<svg xmlns="http://www.w3.org/2000/svg" viewBox="0 0 403.88 433.88"><defs><style>.cls-1{font-size:18px;}.cls-1,.cls-5,.cls-6{fill:#231f20;}.cls-1,.cls-6{font-family:PragmataProLiga-Regular, PragmataPro Liga;}.cls-2{fill:#010101;}.cls-3{fill:#e6e7e8;}.cls-3,.cls-4{stroke:#231f20;stroke-miterlimit:10;}.cls-4{fill:none;}.cls-6{font-size:12px;}</style></defs><title>encryptSession</title><g id="Layer_2" data-name="Layer 2"><g id="Layer_1-2" data-name="Layer 1"><text class="cls-1" transform="translate(23.28 17.06)">Client</text><text class="cls-1" transform="translate(191.98 18)">Server</text><path class="cls-2" d="M169.93,0a2,2,0,0,0-2,2v8a2,2,0,0,0,2,2h12a2,2,0,0,0,2-2V2a2,2,0,0,0-2-2h-12m0,2h12v8h-12V2m-2,11a2,2,0,0,0-2,2v3a2,2,0,0,0,2,2h16a2,2,0,0,0,2-2V15a2,2,0,0,0-2-2h-16m4,2h12v3h-12V15m1,.75v1.5h4v-1.5h-4m6,0v1.5h4v-1.5Z"/><rect class="cls-3" x="1" y="23.35" width="8" height="410.03"/><rect class="cls-3" x="166" y="23.35" width="8" height="410.03"/><text class="cls-1" transform="translate(311.5 18)">Database</text><path class="cls-2" d="M395.88,1c-4.42,0-8,1.79-8,4s3.58,4,8,4,8-1.79,8-4-3.58-4-8-4m-8,6v3c0,2.21,3.58,4,8,4s8-1.79,8-4V7c0,2.21-3.58,4-8,4s-8-1.79-8-4m0,5v3c0,2.21,3.58,4,8,4s8-1.79,8-4V12c0,2.21-3.58,4-8,4S387.88,14.21,387.88,12Z"/><rect class="cls-3" x="392" y="23.35" width="8" height="410.03"/><line class="cls-4" x1="9" y1="29.65" x2="75.71" y2="29.65"/><polygon class="cls-2" points="71.95 29.65 71.95 27.09 74.17 28.37 76.38 29.65 74.17 30.93 71.95 32.21 71.95 29.65"/><path class="cls-5" d="M16.53,40.46a6.62,6.62,0,0,1,3.08-5.71l.51.68a6.1,6.1,0,0,0,0,10l-.51.68A6.63,6.63,0,0,1,16.53,40.46Z"/><path class="cls-5" d="M23.13,44.93h-1V36h1.95a2.35,2.35,0,0,1,1.8.64,2.41,2.41,0,0,1,.61,1.73,2.45,2.45,0,0,1-.67,1.86,2.39,2.39,0,0,1-1.74.65h-.95Zm0-4.91h.95a1.41,1.41,0,0,0,1-.35,1.87,1.87,0,0,0,.35-1.31,1.77,1.77,0,0,0-.32-1.18,1.39,1.39,0,0,0-1.06-.35h-.95Z"/><path class="cls-5" d="M27.8,42.21V38.69a3.14,3.14,0,0,1,.62-2.15,2.18,2.18,0,0,1,3.16,0,3.14,3.14,0,0,1,.62,2.15v3.52a3.15,3.15,0,0,1-.62,2.15A2,2,0,0,1,30,45a2.05,2.05,0,0,1-1.58-.68A3.15,3.15,0,0,1,27.8,42.21Zm1,0a2.63,2.63,0,0,0,.31,1.52,1.16,1.16,0,0,0,1.77,0,2.64,2.64,0,0,0,.32-1.52V38.69a2.64,2.64,0,0,0-.32-1.52,1.16,1.16,0,0,0-1.77,0,2.63,2.63,0,0,0-.31,1.52Z"/><path class="cls-5" d="M38.37,42.84A2.14,2.14,0,0,1,36.09,45a2.6,2.6,0,0,1-2.46-1.47l.74-.56a1.84,1.84,0,0,0,1.72,1.13,1.36,1.36,0,0,0,.91-.33,1.21,1.21,0,0,0,.38-1,1.72,1.72,0,0,0-.66-1.15l-1.93-1.79A2.51,2.51,0,0,1,34,38a2.14,2.14,0,0,1,.59-1.53,2.1,2.1,0,0,1,1.62-.62,2.51,2.51,0,0,1,2.17,1.22l-.76.6a1.54,1.54,0,0,0-1.4-.92,1.32,1.32,0,0,0-.88.3A1.2,1.2,0,0,0,35,38a1.51,1.51,0,0,0,.52,1.15l1.92,1.78A2.61,2.61,0,0,1,38.37,42.84Z"/><path class="cls-5" d="M44.34,36.83H42.5v8.1h-1v-8.1H39.66V36h4.68Z"/><path class="cls-5" d="M49.47,40.46a6.63,6.63,0,0,1-3.08,5.7l-.51-.68a6.1,6.1,0,0,0,0-10l.51-.68A6.62,6.62,0,0,1,49.47,40.46Z"/><path class="cls-5" d="M62.36,36l-3.75,9.69h-1L61.39,36Z"/><path class="cls-5" d="M66,44.16a1.31,1.31,0,0,0,.94-.3.9.9,0,0,0,.32-.71,1,1,0,0,0-.71-.91l-1.27-.58a1.75,1.75,0,0,1-.61-3,2.2,2.2,0,0,1,1.52-.53,2.23,2.23,0,0,1,2,1.23l-.81.49a1.25,1.25,0,0,0-1.22-.83,1.21,1.21,0,0,0-.81.25.83.83,0,0,0-.3.64c0,.34.22.62.67.83l1.2.56a2,2,0,0,1,1.31,1.85,1.69,1.69,0,0,1-.61,1.29A2.38,2.38,0,0,1,66,45a2.56,2.56,0,0,1-2.29-1.36l.82-.49A1.59,1.59,0,0,0,66,44.16Z"/><path class="cls-5" d="M74.23,41.81H70.76V42a2.63,2.63,0,0,0,.38,1.7,1.3,1.3,0,0,0,1,.43,1.48,1.48,0,0,0,1.31-.83l.81.51A2.44,2.44,0,0,1,72.09,45a2.13,2.13,0,0,1-1.67-.73,3.34,3.34,0,0,1-.66-2.3v-.8a3.37,3.37,0,0,1,.66-2.31A2,2,0,0,1,72,38.17a2.13,2.13,0,0,1,1.61.67,3.21,3.21,0,0,1,.62,2.2Zm-1-.88a2.32,2.32,0,0,0-.35-1.44,1.1,1.1,0,0,0-.89-.42,1.13,1.13,0,0,0-.88.42,2.25,2.25,0,0,0-.36,1.44Z"/><path class="cls-5" d="M80.5,43.82A2.44,2.44,0,0,1,78.32,45a2.15,2.15,0,0,1-1.68-.73A3.4,3.4,0,0,1,76,42v-.82a3.4,3.4,0,0,1,.65-2.29,2.15,2.15,0,0,1,1.68-.73A2.43,2.43,0,0,1,80.5,39.4l-.81.5a1.49,1.49,0,0,0-1.31-.83,1.31,1.31,0,0,0-1,.42,2.73,2.73,0,0,0-.37,1.7V42a2.69,2.69,0,0,0,.37,1.7,1.32,1.32,0,0,0,1,.43,1.49,1.49,0,0,0,1.31-.83Z"/><path class="cls-5" d="M86.15,44.93h-1v-.86a1.84,1.84,0,0,1-1.54,1,1.64,1.64,0,0,1-1.25-.56,3,3,0,0,1-.51-2V38.29h1v4.19a2.24,2.24,0,0,0,.27,1.31.87.87,0,0,0,.73.35c.66,0,1.09-.44,1.3-1.3V38.29h1Z"/><path class="cls-5" d="M92.57,39.41l-.86.39a1,1,0,0,0-1-.73c-1,0-1.46.91-1.46,2.73v3.13h-1V38.29h1v1.06a1.81,1.81,0,0,1,1.62-1.18A1.73,1.73,0,0,1,92.57,39.41Z"/><path class="cls-5" d="M98.23,41.81H94.76V42a2.63,2.63,0,0,0,.38,1.7,1.3,1.3,0,0,0,1,.43,1.48,1.48,0,0,0,1.31-.83l.81.51A2.44,2.44,0,0,1,96.09,45a2.13,2.13,0,0,1-1.67-.73,3.34,3.34,0,0,1-.66-2.3v-.8a3.37,3.37,0,0,1,.66-2.31A2,2,0,0,1,96,38.17a2.13,2.13,0,0,1,1.61.67,3.21,3.21,0,0,1,.62,2.2Zm-1-.88a2.32,2.32,0,0,0-.35-1.44,1.1,1.1,0,0,0-.89-.42,1.13,1.13,0,0,0-.88.42,2.25,2.25,0,0,0-.36,1.44Z"/><path class="cls-5" d="M16.53,54.86a6.62,6.62,0,0,1,3.08-5.71l.51.68a6.1,6.1,0,0,0,0,10.05l-.51.68A6.63,6.63,0,0,1,16.53,54.86Z"/><path class="cls-5" d="M26.15,59.33h-1V54.86h-2.3v4.47h-1V50.38h1V54h2.3V50.38h1Z"/><path class="cls-5" d="M32.23,59.33H28.11V50.38h4.12v.85H29.1v2.9h2.31V55H29.1v3.5h3.13Z"/><path class="cls-5" d="M34.63,58.83v.5h-1v-.5a20.11,20.11,0,0,1,.77-4.33l1-4.12h1.12l1,4.12a20.11,20.11,0,0,1,.77,4.33v.5h-1v-.5a10.38,10.38,0,0,0-.17-1.6H34.8A10.38,10.38,0,0,0,34.63,58.83ZM36,52l-.74,3.09q-.18.72-.3,1.32H37q-.12-.6-.3-1.32Z"/><path class="cls-5" d="M44.43,55.66a4.08,4.08,0,0,1-.8,2.71,2.66,2.66,0,0,1-2.17,1H40V50.38h1.48a2.75,2.75,0,0,1,2.17.91,3.82,3.82,0,0,1,.8,2.64Zm-1,0V53.93a3.31,3.31,0,0,0-.52-2,1.72,1.72,0,0,0-1.42-.67H41v7.25h.49a1.68,1.68,0,0,0,1.42-.71A3.6,3.6,0,0,0,43.41,55.66Z"/><path class="cls-5" d="M50.23,59.33H46.11V50.38h4.12v.85H47.1v2.9h2.31V55H47.1v3.5h3.13Z"/><path class="cls-5" d="M54.11,55.25h-1v4.08h-1V50.38h2A2.27,2.27,0,0,1,55.8,51a2.48,2.48,0,0,1,.58,1.73A2.84,2.84,0,0,1,56,54.27a1.82,1.82,0,0,1-.93.8l.11.17a7.58,7.58,0,0,1,1.23,3.69l0,.4h-1l0-.31a7.27,7.27,0,0,0-1.17-3.53Zm-1-.85h1A1.18,1.18,0,0,0,55,54a2,2,0,0,0,.32-1.24A1.76,1.76,0,0,0,55,51.58a1.31,1.31,0,0,0-1-.35h-1Z"/><path class="cls-5" d="M62.37,57.24a2.14,2.14,0,0,1-2.28,2.2A2.6,2.6,0,0,1,57.63,58l.74-.56a1.84,1.84,0,0,0,1.72,1.13,1.36,1.36,0,0,0,.91-.33,1.21,1.21,0,0,0,.38-1,1.72,1.72,0,0,0-.66-1.15l-1.93-1.79a2.51,2.51,0,0,1-.8-1.9,2.14,2.14,0,0,1,.59-1.53,2.1,2.1,0,0,1,1.62-.62,2.51,2.51,0,0,1,2.17,1.22l-.76.6a1.54,1.54,0,0,0-1.4-.92,1.32,1.32,0,0,0-.88.3,1.2,1.2,0,0,0-.34.95,1.51,1.51,0,0,0,.52,1.15l1.92,1.78A2.61,2.61,0,0,1,62.37,57.24Z"/><path class="cls-5" d="M67.47,54.86a6.63,6.63,0,0,1-3.08,5.7l-.51-.68a6.1,6.1,0,0,0,0-10.05l.51-.68A6.62,6.62,0,0,1,67.47,54.86Z"/><path class="cls-5" d="M20.14,73.73H16v-.85h1.59V67.94H16.41v-.85h2.14v5.79h1.59Zm-1.51-8.89a.75.75,0,0,1-.22.55.7.7,0,0,1-.54.22.74.74,0,0,1-.55-.22.8.8,0,0,1-.22-.55.77.77,0,0,1,.22-.54.74.74,0,0,1,.55-.22.7.7,0,0,1,.54.22A.73.73,0,0,1,18.63,64.84Z"/><path class="cls-5" d="M21.68,70a3.59,3.59,0,0,1,.57-2.28,1.69,1.69,0,0,1,1.36-.7,1.67,1.67,0,0,1,1.54.93V64.78h1v9h-1v-.8a1.69,1.69,0,0,1-1.54.91,1.71,1.71,0,0,1-1.36-.69,3.59,3.59,0,0,1-.57-2.28Zm1,.92A3.14,3.14,0,0,0,23,72.48a1,1,0,0,0,.85.46c.66,0,1.09-.44,1.3-1.32V69.26c-.2-.93-.64-1.39-1.3-1.39a1,1,0,0,0-.85.46A3.19,3.19,0,0,0,22.71,70Z"/><path class="cls-5" d="M31.15,68.12a1.13,1.13,0,0,1-.33.81,1.09,1.09,0,0,1-.83.34,1.06,1.06,0,0,1-.82-.34,1.17,1.17,0,0,1,0-1.61A1.07,1.07,0,0,1,30,67a1.09,1.09,0,0,1,.83.35A1.15,1.15,0,0,1,31.15,68.12Zm0,4.57a1.13,1.13,0,0,1-.33.8,1.09,1.09,0,0,1-.83.35,1.07,1.07,0,0,1-.82-.35,1.16,1.16,0,0,1,0-1.6,1,1,0,0,1,.82-.36,1.07,1.07,0,0,1,.83.36A1.15,1.15,0,0,1,31.15,72.69Z"/><path class="cls-5" d="M39.68,67.26a5.26,5.26,0,0,1,1-2.48h.84a6.25,6.25,0,0,0-.8,1.74,1,1,0,0,1,.67.27.88.88,0,0,1,.27.65,1,1,0,0,1-.26.69.87.87,0,0,1-.66.27,1,1,0,0,1-.74-.31A1.19,1.19,0,0,1,39.68,67.26Zm2.74,0a5.26,5.26,0,0,1,1-2.48h.84a6,6,0,0,0-.81,1.74,1,1,0,0,1,.68.27.88.88,0,0,1,.27.65,1,1,0,0,1-.26.69.87.87,0,0,1-.66.27.92.92,0,0,1-.74-.31A1.19,1.19,0,0,1,42.42,67.26Z"/><path class="cls-5" d="M50.29,73.73h-1V71.36c0-1.5.06-3.27.17-5.3l-1.15,3.71h-.62l-1.15-3.71c.11,2,.17,3.8.17,5.3v2.37h-1v-9h1L48,68.5l1.29-3.72h1Z"/><path class="cls-5" d="M56.43,70.06a4.08,4.08,0,0,1-.8,2.71,2.66,2.66,0,0,1-2.17,1H52v-9h1.48a2.75,2.75,0,0,1,2.17.91,3.82,3.82,0,0,1,.8,2.64Zm-1,0V68.33a3.31,3.31,0,0,0-.52-2,1.72,1.72,0,0,0-1.42-.67H53v7.25h.49a1.68,1.68,0,0,0,1.42-.71A3.6,3.6,0,0,0,55.41,70.06Z"/><path class="cls-5" d="M62.21,70.94a3.17,3.17,0,0,1-.66,2.14,2.11,2.11,0,0,1-1.63.76,2.35,2.35,0,0,1-2.18-1.38l.81-.54a1.43,1.43,0,0,0,1.37,1,1.19,1.19,0,0,0,.91-.47,2.38,2.38,0,0,0,.39-1.53,2.31,2.31,0,0,0-.39-1.53A1.61,1.61,0,0,0,59.58,69H58.25v-4.2H62v.85H59.24v2.45h.51a2.47,2.47,0,0,1,1.79.66A3,3,0,0,1,62.21,70.94Z"/><path class="cls-5" d="M74.24,70.86a3.39,3.39,0,0,1-.63,2.25,2.14,2.14,0,0,1-3.22,0,3.45,3.45,0,0,1-.62-2.25V70a3.45,3.45,0,0,1,.62-2.25,2.14,2.14,0,0,1,3.22,0A3.39,3.39,0,0,1,74.24,70Zm-1,0V70a2.73,2.73,0,0,0-.35-1.63,1.11,1.11,0,0,0-1.78,0A2.81,2.81,0,0,0,70.76,70v.91a2.77,2.77,0,0,0,.35,1.62,1.09,1.09,0,0,0,1.78,0A2.7,2.7,0,0,0,73.24,70.86Z"/><path class="cls-5" d="M79.73,66.07a.86.86,0,0,0-.86-.5.8.8,0,0,0-.65.27,1.48,1.48,0,0,0-.23,1v.67h2.23v.85H78v5.42H77V68.31H75.88v-.85H77v-.61a2.3,2.3,0,0,1,.53-1.66,1.74,1.74,0,0,1,1.28-.53,1.83,1.83,0,0,1,1.68.81Z"/><path class="cls-5" d="M92.15,71a3.07,3.07,0,0,1-.62,2.12,2.06,2.06,0,0,1-3.06,0A3.07,3.07,0,0,1,87.85,71V64.78h1V71a2.43,2.43,0,0,0,.33,1.5,1,1,0,0,0,.82.4,1.05,1.05,0,0,0,.82-.4,2.43,2.43,0,0,0,.33-1.5V64.78h1Z"/><path class="cls-5" d="M96,73a1.31,1.31,0,0,0,.94-.3.9.9,0,0,0,.32-.71,1,1,0,0,0-.71-.91l-1.27-.58a1.75,1.75,0,0,1-.61-3A2.2,2.2,0,0,1,96.21,67a2.23,2.23,0,0,1,2,1.23l-.81.49a1.25,1.25,0,0,0-1.22-.83,1.21,1.21,0,0,0-.81.25.81.81,0,0,0-.3.64c0,.34.22.62.67.83l1.2.56A2,2,0,0,1,98.28,72a1.69,1.69,0,0,1-.61,1.29,2.38,2.38,0,0,1-1.66.56,2.56,2.56,0,0,1-2.29-1.36l.82-.49A1.59,1.59,0,0,0,96,73Z"/><path class="cls-5" d="M104.23,70.61h-3.47v.2a2.63,2.63,0,0,0,.38,1.7,1.3,1.3,0,0,0,1,.43,1.48,1.48,0,0,0,1.31-.83l.81.51a2.44,2.44,0,0,1-2.18,1.22,2.13,2.13,0,0,1-1.67-.73,3.34,3.34,0,0,1-.66-2.3V70a3.37,3.37,0,0,1,.66-2.31A2,2,0,0,1,102,67a2.13,2.13,0,0,1,1.61.67,3.21,3.21,0,0,1,.62,2.2Zm-1-.88a2.32,2.32,0,0,0-.35-1.44,1.1,1.1,0,0,0-.89-.42,1.13,1.13,0,0,0-.88.42,2.25,2.25,0,0,0-.36,1.44Z"/><path class="cls-5" d="M110.57,68.21l-.86.39a1,1,0,0,0-1-.73c-1,0-1.46.91-1.46,2.73v3.13h-1V67.09h1v1.06A1.8,1.8,0,0,1,108.87,67,1.73,1.73,0,0,1,110.57,68.21Z"/><path class="cls-5" d="M116.15,73.73h-1v-4.3a2,2,0,0,0-.27-1.2.86.86,0,0,0-.73-.34c-.66,0-1.09.45-1.3,1.35v4.49h-1V67.09h1v.85a1.82,1.82,0,0,1,1.54-1,1.63,1.63,0,0,1,1.25.55,2.68,2.68,0,0,1,.51,1.85Z"/><path class="cls-5" d="M122,73.73h-1V73a1.93,1.93,0,0,1-1.6.86,1.71,1.71,0,0,1-1.32-.56,2,2,0,0,1-.5-1.4,1.89,1.89,0,0,1,.63-1.45,2.61,2.61,0,0,1,1.84-.59h1v-.71c0-.84-.4-1.26-1.19-1.26a1.39,1.39,0,0,0-1.31.78l-.76-.57A2.41,2.41,0,0,1,119.82,67a2.25,2.25,0,0,1,1.57.55,2,2,0,0,1,.61,1.61Zm-1-1.56V70.64h-1A1.55,1.55,0,0,0,119,71a1.16,1.16,0,0,0-.36.9.93.93,0,0,0,1,1.06A1.61,1.61,0,0,0,121,72.17Z"/><path class="cls-5" d="M128.43,73.73h-.82v-5c0-.57-.16-.85-.5-.85s-.53.22-.71.65v5.21h-.8v-5c0-.57-.14-.85-.4-.85s-.6.22-.81.65v5.21h-.82V67.09h.82v.65A1.3,1.3,0,0,1,125.5,67c.39,0,.66.26.81.77a1.23,1.23,0,0,1,1.06-.77c.7,0,1.06.57,1.06,1.7Z"/><path class="cls-5" d="M134.23,70.61h-3.47v.2a2.63,2.63,0,0,0,.38,1.7,1.3,1.3,0,0,0,1,.43,1.48,1.48,0,0,0,1.31-.83l.81.51a2.44,2.44,0,0,1-2.18,1.22,2.13,2.13,0,0,1-1.67-.73,3.34,3.34,0,0,1-.66-2.3V70a3.37,3.37,0,0,1,.66-2.31A2,2,0,0,1,132,67a2.13,2.13,0,0,1,1.61.67,3.21,3.21,0,0,1,.62,2.2Zm-1-.88a2.32,2.32,0,0,0-.35-1.44,1.1,1.1,0,0,0-.89-.42,1.13,1.13,0,0,0-.88.42,2.25,2.25,0,0,0-.36,1.44Z"/><path class="cls-5" d="M137.58,65.82a5.27,5.27,0,0,1-1,2.47h-.84a6.25,6.25,0,0,0,.8-1.74,1,1,0,0,1-.67-.27.88.88,0,0,1-.27-.65,1,1,0,0,1,.25-.69.9.9,0,0,1,.67-.27.94.94,0,0,1,.74.31A1.22,1.22,0,0,1,137.58,65.82Zm2.74,0a5.27,5.27,0,0,1-1,2.47h-.84a6.25,6.25,0,0,0,.8-1.74,1,1,0,0,1-.67-.27.88.88,0,0,1-.27-.65,1,1,0,0,1,.26-.69.87.87,0,0,1,.66-.27A1,1,0,0,1,140,65,1.22,1.22,0,0,1,140.32,65.82Z"/><path class="cls-5" d="M20.49,88.13h-1a3.54,3.54,0,0,0-.72-1.71l-1-1.42-.74.91v2.22h-1V79.19h1v5.49l1.47-1.8a2.79,2.79,0,0,0,.75-1.39h1l0,.22a3.82,3.82,0,0,1-1,1.69l-.79,1,1,1.5a4.73,4.73,0,0,1,1,2Z"/><path class="cls-5" d="M26.23,85H22.76v.2a2.63,2.63,0,0,0,.38,1.7,1.27,1.27,0,0,0,1,.43,1.48,1.48,0,0,0,1.31-.83l.81.52a2.45,2.45,0,0,1-2.18,1.21,2.13,2.13,0,0,1-1.67-.73,3.34,3.34,0,0,1-.66-2.3v-.8a3.39,3.39,0,0,1,.66-2.31A2,2,0,0,1,24,81.37a2.13,2.13,0,0,1,1.61.67,3.21,3.21,0,0,1,.62,2.2Zm-1-.88a2.27,2.27,0,0,0-.35-1.43,1.08,1.08,0,0,0-.89-.43,1.11,1.11,0,0,0-.88.43,2.2,2.2,0,0,0-.36,1.43Z"/><path class="cls-5" d="M28.78,89.2l.76-2-1.38-3.38A6.35,6.35,0,0,1,27.63,82l0-.51h1l0,.48a7.25,7.25,0,0,0,.46,1.58L30,86.06l.92-2.47A7.53,7.53,0,0,0,31.38,82l0-.48h1l0,.51a7.21,7.21,0,0,1-.53,1.84l-2.12,5.49a2.34,2.34,0,0,0-.13.65v.22h-1V90A2.61,2.61,0,0,1,28.78,89.2Z"/><path class="cls-5" d="M37.15,82.53a1.13,1.13,0,0,1-.33.8,1.09,1.09,0,0,1-.83.34,1.06,1.06,0,0,1-.82-.34,1.17,1.17,0,0,1,0-1.61,1.07,1.07,0,0,1,.82-.35,1.09,1.09,0,0,1,.83.35A1.15,1.15,0,0,1,37.15,82.53Zm0,4.56a1.13,1.13,0,0,1-.33.8,1.09,1.09,0,0,1-.83.35,1.07,1.07,0,0,1-.82-.35,1.16,1.16,0,0,1,0-1.6,1,1,0,0,1,.82-.35,1.06,1.06,0,0,1,.83.35A1.15,1.15,0,0,1,37.15,87.09Z"/><path class="cls-5" d="M50.43,84.46a4.08,4.08,0,0,1-.8,2.71,2.66,2.66,0,0,1-2.17,1H46V79.19h1.48a2.74,2.74,0,0,1,2.17.9,3.82,3.82,0,0,1,.8,2.64Zm-1,0V82.73a3.31,3.31,0,0,0-.52-2A1.72,1.72,0,0,0,47.47,80H47v7.25h.49a1.68,1.68,0,0,0,1.42-.71A3.6,3.6,0,0,0,49.41,84.46Z"/><path class="cls-5" d="M56.14,88.13H52v-.85h1.59V82.34H52.41v-.85h2.14v5.79h1.59Zm-1.51-8.89a.75.75,0,0,1-.22.55.7.7,0,0,1-.54.22.74.74,0,0,1-.55-.22.8.8,0,0,1-.22-.55.77.77,0,0,1,.22-.54.74.74,0,0,1,.55-.22.7.7,0,0,1,.54.22A.73.73,0,0,1,54.63,79.24Z"/><path class="cls-5" d="M61.73,80.47a.86.86,0,0,0-.86-.5.8.8,0,0,0-.65.27,1.49,1.49,0,0,0-.23,1v.66h2.23v.85H60v5.42H59V82.71H57.88v-.85H59v-.61a2.3,2.3,0,0,1,.53-1.66,1.74,1.74,0,0,1,1.28-.53,1.83,1.83,0,0,1,1.68.81Z"/><path class="cls-5" d="M67.73,80.47a.86.86,0,0,0-.86-.5.8.8,0,0,0-.65.27,1.49,1.49,0,0,0-.23,1v.66h2.23v.85H66v5.42H65V82.71H63.88v-.85H65v-.61a2.3,2.3,0,0,1,.53-1.66,1.74,1.74,0,0,1,1.28-.53,1.83,1.83,0,0,1,1.68.81Z"/><path class="cls-5" d="M74.14,88.13H70v-.85h1.59V82.34H70.41v-.85h2.14v5.79h1.59Zm-1.51-8.89a.75.75,0,0,1-.22.55.7.7,0,0,1-.54.22.74.74,0,0,1-.55-.22.8.8,0,0,1-.22-.55.77.77,0,0,1,.22-.54.74.74,0,0,1,.55-.22.7.7,0,0,1,.54.22A.73.73,0,0,1,72.63,79.24Z"/><path class="cls-5" d="M80.23,85H76.76v.2a2.63,2.63,0,0,0,.38,1.7,1.27,1.27,0,0,0,1,.43,1.48,1.48,0,0,0,1.31-.83l.81.52a2.45,2.45,0,0,1-2.18,1.21,2.13,2.13,0,0,1-1.67-.73,3.34,3.34,0,0,1-.66-2.3v-.8a3.39,3.39,0,0,1,.66-2.31A2,2,0,0,1,78,81.37a2.13,2.13,0,0,1,1.61.67,3.21,3.21,0,0,1,.62,2.2Zm-1-.88a2.27,2.27,0,0,0-.35-1.43,1.08,1.08,0,0,0-.89-.43,1.11,1.11,0,0,0-.88.43,2.2,2.2,0,0,0-.36,1.43Z"/><path class="cls-5" d="M86.26,85H81.74v-.85h4.52Z"/><path class="cls-5" d="M92.15,88.13h-1V83.66h-2.3v4.47h-1V79.19h1v3.62h2.3V79.19h1Z"/><path class="cls-5" d="M98.23,85H94.76v.2a2.63,2.63,0,0,0,.38,1.7,1.27,1.27,0,0,0,1,.43,1.48,1.48,0,0,0,1.31-.83l.81.52a2.45,2.45,0,0,1-2.18,1.21,2.13,2.13,0,0,1-1.67-.73,3.34,3.34,0,0,1-.66-2.3v-.8a3.39,3.39,0,0,1,.66-2.31A2,2,0,0,1,96,81.37a2.13,2.13,0,0,1,1.61.67,3.21,3.21,0,0,1,.62,2.2Zm-1-.88a2.27,2.27,0,0,0-.35-1.43,1.08,1.08,0,0,0-.89-.43,1.11,1.11,0,0,0-.88.43,2.2,2.2,0,0,0-.36,1.43Z"/><path class="cls-5" d="M104.09,88.13H99.91v-.85h1.59V80h-1.13v-.84h2.13v8.09h1.59Z"/><path class="cls-5" d="M110.09,88.13h-4.18v-.85h1.59V80h-1.13v-.84h2.13v8.09h1.59Z"/><path class="cls-5" d="M116.43,88.13h-.82v-5c0-.57-.16-.85-.5-.85s-.53.22-.71.65v5.21h-.8v-5c0-.57-.14-.85-.4-.85s-.6.22-.81.65v5.21h-.82V81.49h.82v.65a1.3,1.3,0,0,1,1.11-.77c.39,0,.66.26.81.77a1.23,1.23,0,0,1,1.06-.77c.7,0,1.06.57,1.06,1.7Z"/><path class="cls-5" d="M122,88.13h-1v-.75a1.93,1.93,0,0,1-1.6.86,1.71,1.71,0,0,1-1.32-.56,2,2,0,0,1-.5-1.4,1.89,1.89,0,0,1,.63-1.45,2.61,2.61,0,0,1,1.84-.59h1v-.71c0-.84-.4-1.26-1.19-1.26a1.39,1.39,0,0,0-1.31.78l-.76-.57a2.41,2.41,0,0,1,2.07-1.11,2.25,2.25,0,0,1,1.57.55,2,2,0,0,1,.61,1.61Zm-1-1.56V85h-1a1.55,1.55,0,0,0-1.08.34,1.16,1.16,0,0,0-.36.9.93.93,0,0,0,1,1.06A1.61,1.61,0,0,0,121,86.57Z"/><path class="cls-5" d="M128.15,88.13h-1v-4.3a2,2,0,0,0-.27-1.2.86.86,0,0,0-.73-.34c-.66,0-1.09.45-1.3,1.35v4.49h-1V81.49h1v.85a1.84,1.84,0,0,1,1.54-1,1.63,1.63,0,0,1,1.25.55,2.68,2.68,0,0,1,.51,1.85Z"/><path class="cls-5" d="M23.13,102.53h-1V93.59h1.95a2.35,2.35,0,0,1,1.8.64A2.41,2.41,0,0,1,26.49,96a2.45,2.45,0,0,1-.67,1.86,2.39,2.39,0,0,1-1.74.65h-.95Zm0-4.91h.95a1.41,1.41,0,0,0,1-.35A1.87,1.87,0,0,0,25.46,96a1.77,1.77,0,0,0-.32-1.18,1.39,1.39,0,0,0-1.06-.35h-.95Z"/><path class="cls-5" d="M32.15,102.53h-1v-.86a1.84,1.84,0,0,1-1.54,1,1.64,1.64,0,0,1-1.25-.56,3,3,0,0,1-.51-2V95.89h1v4.19a2.24,2.24,0,0,0,.27,1.31.87.87,0,0,0,.73.35c.66,0,1.09-.44,1.3-1.3V95.89h1Z"/><path class="cls-5" d="M38.32,99.67a3.59,3.59,0,0,1-.57,2.28,1.71,1.71,0,0,1-1.36.69,1.67,1.67,0,0,1-1.54-.91v.8h-1V93.59h1V96.7a1.67,1.67,0,0,1,1.54-.93,1.69,1.69,0,0,1,1.36.7,3.59,3.59,0,0,1,.57,2.28Zm-1,0v-.92A3.19,3.19,0,0,0,37,97.13a1,1,0,0,0-.85-.46c-.66,0-1.1.44-1.3,1.33v2.42c.21.88.64,1.32,1.3,1.32a1,1,0,0,0,.85-.46A3.14,3.14,0,0,0,37.29,99.67Z"/><path class="cls-5" d="M44.09,102.53H39.91v-.85H41.5V94.43H40.37v-.84H42.5v8.09h1.59Z"/><path class="cls-5" d="M50.14,102.53H46v-.85h1.59V96.74H46.41v-.85h2.14v5.79h1.59Zm-1.51-8.89a.75.75,0,0,1-.22.55.7.7,0,0,1-.54.22.74.74,0,0,1-.55-.22.8.8,0,0,1-.22-.55.77.77,0,0,1,.22-.54.74.74,0,0,1,.55-.22.7.7,0,0,1,.54.22A.73.73,0,0,1,48.63,93.64Z"/><path class="cls-5" d="M56.5,101.43a2.45,2.45,0,0,1-2.18,1.21,2.15,2.15,0,0,1-1.68-.73,3.4,3.4,0,0,1-.65-2.3v-.82a3.4,3.4,0,0,1,.65-2.29,2.15,2.15,0,0,1,1.68-.73A2.43,2.43,0,0,1,56.5,97l-.81.51a1.49,1.49,0,0,0-1.31-.84,1.31,1.31,0,0,0-1,.42,2.73,2.73,0,0,0-.37,1.7v.82a2.69,2.69,0,0,0,.37,1.7,1.32,1.32,0,0,0,1,.43,1.49,1.49,0,0,0,1.31-.83Z"/><path class="cls-5" d="M65.13,93.59v4.27l1.51-2.24a4.12,4.12,0,0,0,.82-1.71l.05-.32h1l0,.43a5.83,5.83,0,0,1-1,2.13l-.93,1.37,1.32,2.25a6.1,6.1,0,0,1,.92,2.36l0,.4h-1l0-.31a5,5,0,0,0-.73-2l-1.2-2-.69,1v3.25h-1V93.59Z"/><path class="cls-5" d="M74.23,99.41H70.76v.2a2.63,2.63,0,0,0,.38,1.7,1.3,1.3,0,0,0,1,.43,1.48,1.48,0,0,0,1.31-.83l.81.52a2.45,2.45,0,0,1-2.18,1.21,2.13,2.13,0,0,1-1.67-.73,3.34,3.34,0,0,1-.66-2.3v-.8a3.39,3.39,0,0,1,.66-2.31A2,2,0,0,1,72,95.77a2.13,2.13,0,0,1,1.61.67,3.21,3.21,0,0,1,.62,2.2Zm-1-.88a2.32,2.32,0,0,0-.35-1.44,1.1,1.1,0,0,0-.89-.42,1.13,1.13,0,0,0-.88.42,2.25,2.25,0,0,0-.36,1.44Z"/><path class="cls-5" d="M76.78,103.6l.76-2-1.38-3.38a6.35,6.35,0,0,1-.53-1.84l0-.51h1l0,.48A7.25,7.25,0,0,0,77.08,98l.92,2.51L78.92,98a7.53,7.53,0,0,0,.46-1.62l0-.48h1l0,.51a7.21,7.21,0,0,1-.53,1.84l-2.12,5.49a2.34,2.34,0,0,0-.13.65v.21h-1v-.21A2.61,2.61,0,0,1,76.78,103.6Z"/><path class="cls-5" d="M92.24,99.66a3.39,3.39,0,0,1-.63,2.25,2.14,2.14,0,0,1-3.22,0,3.45,3.45,0,0,1-.62-2.25v-.91a3.45,3.45,0,0,1,.62-2.25,2.14,2.14,0,0,1,3.22,0,3.39,3.39,0,0,1,.63,2.25Zm-1,0v-.91a2.75,2.75,0,0,0-.35-1.63,1.11,1.11,0,0,0-1.78,0,2.83,2.83,0,0,0-.35,1.63v.91a2.77,2.77,0,0,0,.35,1.62,1.09,1.09,0,0,0,1.78,0A2.7,2.7,0,0,0,91.24,99.66Z"/><path class="cls-5" d="M97.73,94.87a.86.86,0,0,0-.86-.5.8.8,0,0,0-.65.27,1.48,1.48,0,0,0-.23,1v.67h2.23v.85H96v5.42H95V97.11H93.88v-.85H95v-.61A2.3,2.3,0,0,1,95.52,94a1.74,1.74,0,0,1,1.28-.53,1.83,1.83,0,0,1,1.68.81Z"/><path class="cls-5" d="M107.13,102.53h-1V93.59h2a2.35,2.35,0,0,1,1.8.64,2.41,2.41,0,0,1,.61,1.73,2.45,2.45,0,0,1-.67,1.86,2.39,2.39,0,0,1-1.74.65h-1Zm0-4.91h1a1.41,1.41,0,0,0,1-.35,1.87,1.87,0,0,0,.35-1.31,1.77,1.77,0,0,0-.32-1.18,1.39,1.39,0,0,0-1.06-.35h-1Z"/><path class="cls-5" d="M116.57,97l-.86.39a1,1,0,0,0-1-.73c-1,0-1.46.91-1.46,2.73v3.13h-1V95.89h1V97a1.81,1.81,0,0,1,1.62-1.18A1.73,1.73,0,0,1,116.57,97Z"/><path class="cls-5" d="M122.14,102.53H118v-.85h1.59V96.74h-1.14v-.85h2.14v5.79h1.59Zm-1.51-8.89a.75.75,0,0,1-.22.55.7.7,0,0,1-.54.22.74.74,0,0,1-.55-.22.8.8,0,0,1-.22-.55.77.77,0,0,1,.22-.54.74.74,0,0,1,.55-.22.7.7,0,0,1,.54.22A.73.73,0,0,1,120.63,93.64Z"/><path class="cls-5" d="M128.43,102.53h-.82v-5c0-.57-.16-.85-.5-.85s-.53.22-.71.65v5.21h-.8v-5c0-.57-.14-.85-.4-.85s-.6.22-.81.65v5.21h-.82V95.89h.82v.65a1.3,1.3,0,0,1,1.11-.77c.39,0,.66.26.81.77a1.23,1.23,0,0,1,1.06-.77c.7,0,1.06.57,1.06,1.7Z"/><path class="cls-5" d="M134.23,99.41h-3.47v.2a2.63,2.63,0,0,0,.38,1.7,1.3,1.3,0,0,0,1,.43,1.48,1.48,0,0,0,1.31-.83l.81.52a2.45,2.45,0,0,1-2.18,1.21,2.13,2.13,0,0,1-1.67-.73,3.34,3.34,0,0,1-.66-2.3v-.8a3.39,3.39,0,0,1,.66-2.31,2,2,0,0,1,1.58-.73,2.13,2.13,0,0,1,1.61.67,3.21,3.21,0,0,1,.62,2.2Zm-1-.88a2.32,2.32,0,0,0-.35-1.44,1.1,1.1,0,0,0-.89-.42,1.13,1.13,0,0,0-.88.42,2.25,2.25,0,0,0-.36,1.44Z"/><path class="cls-5" d="M20.32,114.07a3.45,3.45,0,0,1-.6,2.27,1.72,1.72,0,0,1-1.33.7,1.67,1.67,0,0,1-1.54-.93V119h-1v-8.7h1v.79a1.67,1.67,0,0,1,1.54-.91,1.74,1.74,0,0,1,1.33.69,3.49,3.49,0,0,1,.6,2.29Zm-1-.92a2.92,2.92,0,0,0-.32-1.62,1,1,0,0,0-.82-.46c-.66,0-1.09.46-1.3,1.37v2.32c.2.92.64,1.38,1.3,1.38a1,1,0,0,0,.82-.46,2.92,2.92,0,0,0,.32-1.61Z"/><path class="cls-5" d="M26.57,111.41l-.86.39a1,1,0,0,0-1-.73c-1,0-1.46.91-1.46,2.73v3.13h-1v-6.64h1v1.06a1.81,1.81,0,0,1,1.62-1.18A1.73,1.73,0,0,1,26.57,111.41Z"/><path class="cls-5" d="M32.14,116.93H28v-.85h1.59v-4.94H28.41v-.85h2.14v5.79h1.59ZM30.63,108a.75.75,0,0,1-.22.55.7.7,0,0,1-.54.22.74.74,0,0,1-.55-.22.8.8,0,0,1-.22-.55.77.77,0,0,1,.22-.54.74.74,0,0,1,.55-.22.7.7,0,0,1,.54.22A.73.73,0,0,1,30.63,108Z"/><path class="cls-5" d="M38.43,116.93h-.82v-5c0-.57-.16-.85-.5-.85s-.53.22-.71.65v5.21h-.8v-5c0-.57-.14-.85-.4-.85s-.6.22-.81.65v5.21h-.82v-6.64h.82v.65a1.3,1.3,0,0,1,1.11-.77c.39,0,.66.26.81.77a1.23,1.23,0,0,1,1.06-.77c.7,0,1.06.57,1.06,1.7Z"/><path class="cls-5" d="M44.23,113.81H40.76v.2a2.63,2.63,0,0,0,.38,1.7,1.3,1.3,0,0,0,1,.43,1.48,1.48,0,0,0,1.31-.83l.81.51A2.44,2.44,0,0,1,42.09,117a2.13,2.13,0,0,1-1.67-.73,3.34,3.34,0,0,1-.66-2.3v-.8a3.37,3.37,0,0,1,.66-2.31,2,2,0,0,1,1.58-.73,2.13,2.13,0,0,1,1.61.67,3.21,3.21,0,0,1,.62,2.2Zm-1-.88a2.32,2.32,0,0,0-.35-1.44,1.1,1.1,0,0,0-.89-.42,1.13,1.13,0,0,0-.88.42,2.25,2.25,0,0,0-.36,1.44Z"/><path class="cls-5" d="M49.15,111.32a1.13,1.13,0,0,1-.33.81,1.09,1.09,0,0,1-.83.34,1.06,1.06,0,0,1-.82-.34,1.17,1.17,0,0,1,0-1.61,1.07,1.07,0,0,1,.82-.35,1.09,1.09,0,0,1,.83.35A1.15,1.15,0,0,1,49.15,111.32Zm0,4.57a1.13,1.13,0,0,1-.33.8A1.09,1.09,0,0,1,48,117a1.07,1.07,0,0,1-.82-.35,1.16,1.16,0,0,1,0-1.6,1,1,0,0,1,.82-.35,1.06,1.06,0,0,1,.83.35A1.15,1.15,0,0,1,49.15,115.89Z"/><path class="cls-5" d="M62.37,114.84a2.14,2.14,0,0,1-2.28,2.2,2.6,2.6,0,0,1-2.46-1.47l.74-.56a1.84,1.84,0,0,0,1.72,1.13,1.36,1.36,0,0,0,.91-.33,1.21,1.21,0,0,0,.38-1,1.72,1.72,0,0,0-.66-1.15l-1.93-1.79A2.51,2.51,0,0,1,58,110a2.14,2.14,0,0,1,.59-1.53,2.1,2.1,0,0,1,1.62-.62,2.51,2.51,0,0,1,2.17,1.22l-.76.6a1.54,1.54,0,0,0-1.4-.92,1.32,1.32,0,0,0-.88.3,1.2,1.2,0,0,0-.34,1,1.51,1.51,0,0,0,.52,1.15l1.92,1.78A2.61,2.61,0,0,1,62.37,114.84Z"/><path class="cls-5" d="M68.15,116.93h-1v-4.29a2,2,0,0,0-.27-1.23.88.88,0,0,0-.73-.34c-.66,0-1.09.46-1.3,1.37v4.49h-1V108h1v3.09a1.86,1.86,0,0,1,1.54-.91,1.63,1.63,0,0,1,1.25.55,2.69,2.69,0,0,1,.51,1.86Z"/><path class="cls-5" d="M74,116.93H73v-.75a1.93,1.93,0,0,1-1.6.86,1.71,1.71,0,0,1-1.32-.56,2,2,0,0,1-.5-1.4,1.89,1.89,0,0,1,.63-1.45,2.61,2.61,0,0,1,1.84-.59h1v-.71c0-.84-.4-1.26-1.19-1.26a1.39,1.39,0,0,0-1.31.78l-.76-.57a2.41,2.41,0,0,1,2.07-1.11,2.25,2.25,0,0,1,1.57.55,2,2,0,0,1,.61,1.61Zm-1-1.56v-1.53h-1a1.55,1.55,0,0,0-1.08.34,1.16,1.16,0,0,0-.36.9.93.93,0,0,0,1,1.06A1.61,1.61,0,0,0,73,115.37Z"/><path class="cls-5" d="M80.57,111.41l-.86.39a1,1,0,0,0-1-.73c-1,0-1.46.91-1.46,2.73v3.13h-1v-6.64h1v1.06a1.81,1.81,0,0,1,1.62-1.18A1.73,1.73,0,0,1,80.57,111.41Z"/><path class="cls-5" d="M86.23,113.81H82.76v.2a2.63,2.63,0,0,0,.38,1.7,1.3,1.3,0,0,0,1,.43,1.48,1.48,0,0,0,1.31-.83l.81.51A2.44,2.44,0,0,1,84.09,117a2.13,2.13,0,0,1-1.67-.73,3.34,3.34,0,0,1-.66-2.3v-.8a3.37,3.37,0,0,1,.66-2.31,2,2,0,0,1,1.58-.73,2.13,2.13,0,0,1,1.61.67,3.21,3.21,0,0,1,.62,2.2Zm-1-.88a2.32,2.32,0,0,0-.35-1.44,1.1,1.1,0,0,0-.89-.42,1.13,1.13,0,0,0-.88.42,2.25,2.25,0,0,0-.36,1.44Z"/><path class="cls-5" d="M87.68,113.15a3.59,3.59,0,0,1,.57-2.28,1.69,1.69,0,0,1,1.36-.7,1.67,1.67,0,0,1,1.54.93V108h1v8.94h-1v-.8a1.67,1.67,0,0,1-1.54.91,1.71,1.71,0,0,1-1.36-.69,3.59,3.59,0,0,1-.57-2.28Zm1,.92a3.14,3.14,0,0,0,.29,1.61,1,1,0,0,0,.85.46c.66,0,1.09-.44,1.3-1.32v-2.36c-.2-.93-.64-1.39-1.3-1.39a1,1,0,0,0-.85.46,3.19,3.19,0,0,0-.29,1.62Z"/><path class="cls-5" d="M101.13,116.93h-1V108h2a2.35,2.35,0,0,1,1.8.64,2.41,2.41,0,0,1,.61,1.73,2.45,2.45,0,0,1-.67,1.86,2.39,2.39,0,0,1-1.74.65h-1Zm0-4.91h1a1.41,1.41,0,0,0,1-.35,1.87,1.87,0,0,0,.35-1.31,1.77,1.77,0,0,0-.32-1.18,1.39,1.39,0,0,0-1.06-.35h-1Z"/><path class="cls-5" d="M110.57,111.41l-.86.39a1,1,0,0,0-1-.73c-1,0-1.46.91-1.46,2.73v3.13h-1v-6.64h1v1.06a1.81,1.81,0,0,1,1.62-1.18A1.73,1.73,0,0,1,110.57,111.41Z"/><path class="cls-5" d="M116.14,116.93H112v-.85h1.59v-4.94h-1.14v-.85h2.14v5.79h1.59ZM114.63,108a.75.75,0,0,1-.22.55.7.7,0,0,1-.54.22.74.74,0,0,1-.55-.22.8.8,0,0,1-.22-.55.77.77,0,0,1,.22-.54.74.74,0,0,1,.55-.22.7.7,0,0,1,.54.22A.73.73,0,0,1,114.63,108Z"/><path class="cls-5" d="M122.43,116.93h-.82v-5c0-.57-.16-.85-.5-.85s-.53.22-.71.65v5.21h-.8v-5c0-.57-.14-.85-.4-.85s-.6.22-.81.65v5.21h-.82v-6.64h.82v.65a1.3,1.3,0,0,1,1.11-.77c.39,0,.66.26.81.77a1.23,1.23,0,0,1,1.06-.77c.7,0,1.06.57,1.06,1.7Z"/><path class="cls-5" d="M128.23,113.81h-3.47v.2a2.63,2.63,0,0,0,.38,1.7,1.3,1.3,0,0,0,1,.43,1.48,1.48,0,0,0,1.31-.83l.81.51a2.44,2.44,0,0,1-2.18,1.22,2.13,2.13,0,0,1-1.67-.73,3.34,3.34,0,0,1-.66-2.3v-.8a3.37,3.37,0,0,1,.66-2.31,2,2,0,0,1,1.58-.73,2.13,2.13,0,0,1,1.61.67,3.21,3.21,0,0,1,.62,2.2Zm-1-.88a2.32,2.32,0,0,0-.35-1.44,1.1,1.1,0,0,0-.89-.42,1.13,1.13,0,0,0-.88.42,2.25,2.25,0,0,0-.36,1.44Z"/><line class="cls-4" x1="174" y1="164.21" x2="240.71" y2="164.21"/><polygon class="cls-2" points="236.95 164.21 236.95 161.65 239.16 162.93 241.38 164.21 239.16 165.49 236.95 166.77 236.95 164.21"/><path class="cls-5" d="M180.46,176a6.63,6.63,0,0,1,3.08-5.71l.51.68a6.13,6.13,0,0,0,0,10.06l-.51.68A6.64,6.64,0,0,1,180.46,176Z"/><path class="cls-5" d="M190.3,178.4a2.21,2.21,0,0,1-.6,1.56,2.18,2.18,0,0,1-1.68.64,2.6,2.6,0,0,1-2.46-1.47l.74-.56A1.84,1.84,0,0,0,188,179.7a1.36,1.36,0,0,0,.91-.33,1.19,1.19,0,0,0,.38-1,1.68,1.68,0,0,0-.66-1.14l-1.93-1.8a2.49,2.49,0,0,1-.8-1.89,2.16,2.16,0,0,1,.59-1.54,2.13,2.13,0,0,1,1.62-.62,2.53,2.53,0,0,1,2.17,1.22l-.76.61a1.53,1.53,0,0,0-1.4-.92,1.28,1.28,0,0,0-.87.3,1.15,1.15,0,0,0-.35.94,1.47,1.47,0,0,0,.53,1.15l1.91,1.79A2.58,2.58,0,0,1,190.3,178.4Z"/><path class="cls-5" d="M192.57,180v.5h-1V180a20.82,20.82,0,0,1,.77-4.32l1-4.12h1.12l1,4.12a20.15,20.15,0,0,1,.77,4.32v.5h-1V180a10.28,10.28,0,0,0-.17-1.59h-2.4A10.06,10.06,0,0,0,192.57,180Zm1.36-6.86-.74,3.09c-.12.48-.22.92-.3,1.33H195c-.08-.41-.18-.85-.3-1.33Z"/><path class="cls-5" d="M199.37,180.49l-1.11-4.12a17.68,17.68,0,0,1-.75-4.32v-.5h1v.5a17.47,17.47,0,0,0,.56,3.71l.86,3.61.86-3.61a18.16,18.16,0,0,0,.56-3.71v-.5h1v.5a17.57,17.57,0,0,1-.74,4.32l-1.11,4.12Z"/><path class="cls-5" d="M208.16,180.49H204v-8.94h4.12v.85H205v2.89h2.31v.85H205v3.5h3.13Z"/><path class="cls-5" d="M213.4,176a6.64,6.64,0,0,1-3.08,5.71l-.5-.68a6.13,6.13,0,0,0,0-10.06l.5-.68A6.63,6.63,0,0,1,213.4,176Z"/><path class="cls-5" d="M226.29,171.55l-3.75,9.69h-1l3.76-9.69Z"/><path class="cls-5" d="M230,179.72a1.36,1.36,0,0,0,.94-.29.93.93,0,0,0,.32-.72,1,1,0,0,0-.71-.9l-1.27-.59a1.74,1.74,0,0,1-1.19-1.61,1.72,1.72,0,0,1,.58-1.34,2.16,2.16,0,0,1,1.52-.54,2.23,2.23,0,0,1,2,1.23l-.81.49a1.26,1.26,0,0,0-1.22-.83,1.16,1.16,0,0,0-.81.26.8.8,0,0,0-.3.64c0,.34.22.61.67.82l1.2.56a2,2,0,0,1,1.31,1.86,1.69,1.69,0,0,1-.61,1.29,2.38,2.38,0,0,1-1.66.55,2.57,2.57,0,0,1-2.29-1.35l.82-.5A1.58,1.58,0,0,0,230,179.72Z"/><path class="cls-5" d="M238.16,177.37h-3.47v.2a2.64,2.64,0,0,0,.38,1.71,1.29,1.29,0,0,0,1,.42,1.47,1.47,0,0,0,1.31-.83l.81.52A2.43,2.43,0,0,1,236,180.6a2.13,2.13,0,0,1-1.67-.73,3.34,3.34,0,0,1-.66-2.3v-.8a3.39,3.39,0,0,1,.66-2.31,2.07,2.07,0,0,1,1.58-.73,2.1,2.1,0,0,1,1.61.68,3.15,3.15,0,0,1,.62,2.19Zm-1-.88a2.29,2.29,0,0,0-.35-1.43,1.1,1.1,0,0,0-.89-.42,1.13,1.13,0,0,0-.88.42,2.22,2.22,0,0,0-.36,1.43Z"/><path class="cls-5" d="M242,179.72a1.36,1.36,0,0,0,.94-.29.93.93,0,0,0,.32-.72,1,1,0,0,0-.71-.9l-1.27-.59a1.74,1.74,0,0,1-1.19-1.61,1.72,1.72,0,0,1,.58-1.34,2.16,2.16,0,0,1,1.52-.54,2.23,2.23,0,0,1,2,1.23l-.81.49a1.26,1.26,0,0,0-1.22-.83,1.16,1.16,0,0,0-.81.26.8.8,0,0,0-.3.64c0,.34.22.61.67.82l1.2.56a2,2,0,0,1,1.31,1.86,1.69,1.69,0,0,1-.61,1.29,2.38,2.38,0,0,1-1.66.55,2.57,2.57,0,0,1-2.29-1.35l.82-.5A1.58,1.58,0,0,0,242,179.72Z"/><path class="cls-5" d="M248,179.72a1.36,1.36,0,0,0,.94-.29.93.93,0,0,0,.32-.72,1,1,0,0,0-.71-.9l-1.27-.59a1.74,1.74,0,0,1-1.19-1.61,1.72,1.72,0,0,1,.58-1.34,2.16,2.16,0,0,1,1.52-.54,2.23,2.23,0,0,1,2,1.23l-.81.49a1.26,1.26,0,0,0-1.22-.83,1.16,1.16,0,0,0-.81.26.8.8,0,0,0-.3.64c0,.34.22.61.67.82l1.2.56a2,2,0,0,1,1.31,1.86,1.69,1.69,0,0,1-.61,1.29,2.38,2.38,0,0,1-1.66.55,2.57,2.57,0,0,1-2.29-1.35l.82-.5A1.58,1.58,0,0,0,248,179.72Z"/><path class="cls-5" d="M256.07,180.49h-4.18v-.85h1.6v-4.93h-1.15v-.85h2.14v5.78h1.59Zm-1.51-8.88a.73.73,0,0,1-.22.54.7.7,0,0,1-.54.22.74.74,0,0,1-.55-.22.77.77,0,0,1,0-1.08.71.71,0,0,1,.55-.23.68.68,0,0,1,.54.23A.73.73,0,0,1,254.56,171.61Z"/><path class="cls-5" d="M262.17,177.62a3.38,3.38,0,0,1-.63,2.25,2.14,2.14,0,0,1-3.22,0,3.43,3.43,0,0,1-.62-2.25v-.9a3.46,3.46,0,0,1,.62-2.26,2.14,2.14,0,0,1,3.22,0,3.41,3.41,0,0,1,.63,2.26Zm-1,0v-.9a2.71,2.71,0,0,0-.35-1.63,1.11,1.11,0,0,0-1.78,0,2.79,2.79,0,0,0-.35,1.63v.9a2.81,2.81,0,0,0,.35,1.63,1.11,1.11,0,0,0,1.78,0A2.73,2.73,0,0,0,261.17,177.62Z"/><path class="cls-5" d="M268.08,180.49h-1v-4.3a2,2,0,0,0-.26-1.2.92.92,0,0,0-.74-.34c-.66,0-1.09.45-1.3,1.35v4.49h-1v-6.63h1v.85a1.83,1.83,0,0,1,1.54-1,1.65,1.65,0,0,1,1.25.55,2.69,2.69,0,0,1,.51,1.85Z"/><path class="cls-5" d="M272,179.72a1.36,1.36,0,0,0,.94-.29.93.93,0,0,0,.32-.72,1,1,0,0,0-.71-.9l-1.27-.59a1.74,1.74,0,0,1-1.19-1.61,1.72,1.72,0,0,1,.58-1.34,2.16,2.16,0,0,1,1.52-.54,2.23,2.23,0,0,1,2,1.23l-.81.49a1.26,1.26,0,0,0-1.22-.83,1.16,1.16,0,0,0-.81.26.8.8,0,0,0-.3.64c0,.34.22.61.67.82l1.2.56a2,2,0,0,1,1.31,1.86,1.69,1.69,0,0,1-.61,1.29,2.38,2.38,0,0,1-1.66.55,2.57,2.57,0,0,1-2.29-1.35l.82-.5A1.58,1.58,0,0,0,272,179.72Z"/><path class="cls-5" d="M184.07,194.89h-4.18V194h1.6v-4.93h-1.15v-.85h2.14V194h1.59ZM182.56,186a.73.73,0,0,1-.22.54.7.7,0,0,1-.54.22.74.74,0,0,1-.55-.22.77.77,0,0,1,0-1.08.71.71,0,0,1,.55-.23.68.68,0,0,1,.54.23A.73.73,0,0,1,182.56,186Z"/><path class="cls-5" d="M185.61,191.12a3.65,3.65,0,0,1,.57-2.29,1.72,1.72,0,0,1,1.36-.7,1.67,1.67,0,0,1,1.54.93V186h1v8.94h-1v-.8a1.67,1.67,0,0,1-1.54.91,1.71,1.71,0,0,1-1.36-.69,3.59,3.59,0,0,1-.57-2.28Zm1,.91a3.12,3.12,0,0,0,.29,1.61.94.94,0,0,0,.85.46c.66,0,1.09-.44,1.3-1.32v-2.36c-.2-.92-.64-1.38-1.3-1.38a.94.94,0,0,0-.85.46,3.14,3.14,0,0,0-.29,1.62Z"/><path class="cls-5" d="M195.08,189.29a1.13,1.13,0,0,1-.33.8,1.09,1.09,0,0,1-.83.35,1.07,1.07,0,0,1-.82-.35,1.16,1.16,0,0,1-.32-.8,1.19,1.19,0,0,1,.32-.81,1.14,1.14,0,0,1,1.65,0A1.13,1.13,0,0,1,195.08,189.29Zm0,4.56a1.13,1.13,0,0,1-.33.81,1.09,1.09,0,0,1-.83.34,1.06,1.06,0,0,1-.82-.34,1.17,1.17,0,0,1,0-1.61,1.07,1.07,0,0,1,.82-.35,1.09,1.09,0,0,1,.83.35A1.16,1.16,0,0,1,195.08,193.85Z"/><path class="cls-5" d="M203.61,188.42a5.23,5.23,0,0,1,1-2.47h.84a6.21,6.21,0,0,0-.8,1.73.94.94,0,0,1,.67.28.84.84,0,0,1,.27.64,1,1,0,0,1-.26.69.87.87,0,0,1-.66.27,1,1,0,0,1-.74-.31A1.19,1.19,0,0,1,203.61,188.42Zm2.74,0a5.23,5.23,0,0,1,1-2.47h.84a6.58,6.58,0,0,0-.81,1.73,1,1,0,0,1,.68.28.84.84,0,0,1,.27.64,1,1,0,0,1-.26.69.87.87,0,0,1-.66.27.94.94,0,0,1-.74-.31A1.19,1.19,0,0,1,206.35,188.42Z"/><path class="cls-5" d="M214.22,194.89h-1v-2.36c0-1.51.06-3.28.18-5.3l-1.16,3.7h-.62l-1.15-3.7c.11,2,.17,3.79.17,5.3v2.36h-1V186h1l1.29,3.71,1.29-3.71h1Z"/><path class="cls-5" d="M220.36,191.22a4.08,4.08,0,0,1-.8,2.71,2.66,2.66,0,0,1-2.17,1h-1.47V186h1.47a2.74,2.74,0,0,1,2.17.9,3.82,3.82,0,0,1,.8,2.64Zm-1,0v-1.73a3.33,3.33,0,0,0-.52-2,1.71,1.71,0,0,0-1.42-.66h-.49V194h.49a1.68,1.68,0,0,0,1.42-.71A3.58,3.58,0,0,0,219.34,191.22Z"/><path class="cls-5" d="M226.15,192.1a3.15,3.15,0,0,1-.67,2.14,2.06,2.06,0,0,1-1.63.76,2.35,2.35,0,0,1-2.18-1.38l.81-.53a1.43,1.43,0,0,0,1.37,1,1.2,1.2,0,0,0,.91-.46,2.4,2.4,0,0,0,.39-1.54,2.28,2.28,0,0,0-.39-1.52,1.62,1.62,0,0,0-1.26-.44h-1.32V186H226v.85h-2.79v2.44h.51a2.44,2.44,0,0,1,1.79.67A3,3,0,0,1,226.15,192.1Z"/><path class="cls-5" d="M238.17,192a3.38,3.38,0,0,1-.63,2.25,2.14,2.14,0,0,1-3.22,0,3.43,3.43,0,0,1-.62-2.25v-.9a3.46,3.46,0,0,1,.62-2.26,2.14,2.14,0,0,1,3.22,0,3.41,3.41,0,0,1,.63,2.26Zm-1,0v-.9a2.71,2.71,0,0,0-.35-1.63,1.11,1.11,0,0,0-1.78,0,2.79,2.79,0,0,0-.35,1.63v.9a2.81,2.81,0,0,0,.35,1.63,1.11,1.11,0,0,0,1.78,0A2.73,2.73,0,0,0,237.17,192Z"/><path class="cls-5" d="M243.67,187.24a.88.88,0,0,0-.87-.51.8.8,0,0,0-.65.27,1.53,1.53,0,0,0-.23,1v.67h2.23v.85h-2.23v5.41h-1v-5.41h-1.11v-.85h1.11V188a2.26,2.26,0,0,1,.53-1.66,1.71,1.71,0,0,1,1.28-.53,1.84,1.84,0,0,1,1.69.8Z"/><path class="cls-5" d="M256.08,192.21a3.09,3.09,0,0,1-.62,2.12,2.08,2.08,0,0,1-3.06,0,3.09,3.09,0,0,1-.62-2.12V186h1v6.26a2.47,2.47,0,0,0,.33,1.5,1,1,0,0,0,.82.39,1,1,0,0,0,.82-.39,2.47,2.47,0,0,0,.33-1.5V186h1Z"/><path class="cls-5" d="M260,194.12a1.36,1.36,0,0,0,.94-.29.93.93,0,0,0,.32-.72,1,1,0,0,0-.71-.9l-1.27-.59A1.74,1.74,0,0,1,258,190a1.72,1.72,0,0,1,.58-1.34,2.16,2.16,0,0,1,1.52-.54,2.23,2.23,0,0,1,2,1.23l-.81.49a1.26,1.26,0,0,0-1.22-.83,1.16,1.16,0,0,0-.81.26.8.8,0,0,0-.3.64c0,.34.22.61.67.82l1.2.56a2,2,0,0,1,1.31,1.86,1.69,1.69,0,0,1-.61,1.29,2.38,2.38,0,0,1-1.66.55,2.57,2.57,0,0,1-2.29-1.35l.82-.5A1.58,1.58,0,0,0,260,194.12Z"/><path class="cls-5" d="M268.16,191.77h-3.47v.2a2.64,2.64,0,0,0,.38,1.71,1.29,1.29,0,0,0,1,.42,1.47,1.47,0,0,0,1.31-.83l.81.52A2.43,2.43,0,0,1,266,195a2.13,2.13,0,0,1-1.67-.73,3.34,3.34,0,0,1-.66-2.3v-.8a3.39,3.39,0,0,1,.66-2.31,2.07,2.07,0,0,1,1.58-.73,2.1,2.1,0,0,1,1.61.68,3.15,3.15,0,0,1,.62,2.19Zm-1-.88a2.29,2.29,0,0,0-.35-1.43,1.1,1.1,0,0,0-.89-.42,1.13,1.13,0,0,0-.88.42,2.22,2.22,0,0,0-.36,1.43Z"/><path class="cls-5" d="M274.5,189.38l-.86.38a1,1,0,0,0-1-.72c-1,0-1.47.9-1.47,2.72v3.13h-1v-6.63h1v1.06a1.82,1.82,0,0,1,1.62-1.19A1.74,1.74,0,0,1,274.5,189.38Z"/><path class="cls-5" d="M280.08,194.89h-1v-4.3a2,2,0,0,0-.26-1.2.92.92,0,0,0-.74-.34c-.66,0-1.09.45-1.3,1.35v4.49h-1v-6.63h1v.85a1.83,1.83,0,0,1,1.54-1,1.65,1.65,0,0,1,1.25.55,2.69,2.69,0,0,1,.51,1.85Z"/><path class="cls-5" d="M285.93,194.89h-1v-.75a1.93,1.93,0,0,1-1.6.86,1.68,1.68,0,0,1-1.32-.56,2,2,0,0,1-.5-1.4,1.91,1.91,0,0,1,.63-1.45A2.6,2.6,0,0,1,284,191h.95v-.72c0-.84-.4-1.25-1.19-1.25a1.39,1.39,0,0,0-1.31.77l-.76-.56a2.44,2.44,0,0,1,2.07-1.12,2.29,2.29,0,0,1,1.57.55,2,2,0,0,1,.61,1.61Zm-1-1.56v-1.52H284a1.55,1.55,0,0,0-1.08.33,1.18,1.18,0,0,0-.36.9.92.92,0,0,0,1,1.06A1.61,1.61,0,0,0,284.94,193.33Z"/><path class="cls-5" d="M292.36,194.89h-.82v-5c0-.57-.16-.85-.5-.85s-.53.22-.71.66v5.2h-.8v-5c0-.57-.14-.85-.4-.85s-.6.22-.8.66v5.2h-.83v-6.63h.83v.65a1.27,1.27,0,0,1,1.1-.78q.58,0,.81.78a1.22,1.22,0,0,1,1.06-.78c.7,0,1.06.57,1.06,1.7Z"/><path class="cls-5" d="M298.16,191.77h-3.47v.2a2.64,2.64,0,0,0,.38,1.71,1.29,1.29,0,0,0,1,.42,1.47,1.47,0,0,0,1.31-.83l.81.52A2.43,2.43,0,0,1,296,195a2.13,2.13,0,0,1-1.67-.73,3.34,3.34,0,0,1-.66-2.3v-.8a3.39,3.39,0,0,1,.66-2.31,2.07,2.07,0,0,1,1.58-.73,2.1,2.1,0,0,1,1.61.68,3.15,3.15,0,0,1,.62,2.19Zm-1-.88a2.29,2.29,0,0,0-.35-1.43,1.1,1.1,0,0,0-.89-.42,1.13,1.13,0,0,0-.88.42,2.22,2.22,0,0,0-.36,1.43Z"/><path class="cls-5" d="M301.51,187a5.23,5.23,0,0,1-1,2.47h-.84a6.25,6.25,0,0,0,.8-1.74,1,1,0,0,1-.67-.27.85.85,0,0,1-.27-.64.94.94,0,0,1,.26-.7.87.87,0,0,1,.66-.27,1,1,0,0,1,.74.32A1.19,1.19,0,0,1,301.51,187Zm2.74,0a5.23,5.23,0,0,1-1,2.47h-.84a6.25,6.25,0,0,0,.8-1.74,1,1,0,0,1-.67-.27.85.85,0,0,1-.27-.64,1,1,0,0,1,.26-.7.87.87,0,0,1,.66-.27,1,1,0,0,1,.74.32A1.19,1.19,0,0,1,304.25,187Z"/><path class="cls-5" d="M182,208.52a1.36,1.36,0,0,0,.94-.29.93.93,0,0,0,.32-.72,1,1,0,0,0-.71-.9l-1.27-.59a1.74,1.74,0,0,1-1.19-1.61,1.72,1.72,0,0,1,.58-1.34,2.16,2.16,0,0,1,1.52-.54,2.23,2.23,0,0,1,2,1.23l-.81.49a1.26,1.26,0,0,0-1.22-.83,1.16,1.16,0,0,0-.81.26.8.8,0,0,0-.3.64c0,.33.22.61.67.82l1.2.56a2,2,0,0,1,1.31,1.86,1.69,1.69,0,0,1-.61,1.29,2.38,2.38,0,0,1-1.66.55,2.57,2.57,0,0,1-2.29-1.35l.82-.5A1.58,1.58,0,0,0,182,208.52Z"/><path class="cls-5" d="M190.16,206.17h-3.47v.2a2.64,2.64,0,0,0,.38,1.71,1.29,1.29,0,0,0,1,.42,1.47,1.47,0,0,0,1.31-.83l.81.52A2.43,2.43,0,0,1,188,209.4a2.13,2.13,0,0,1-1.67-.73,3.34,3.34,0,0,1-.66-2.3v-.8a3.39,3.39,0,0,1,.66-2.31,2.07,2.07,0,0,1,1.58-.73,2.1,2.1,0,0,1,1.61.68,3.15,3.15,0,0,1,.62,2.19Zm-1-.88a2.29,2.29,0,0,0-.35-1.43,1.1,1.1,0,0,0-.89-.42,1.13,1.13,0,0,0-.88.42,2.22,2.22,0,0,0-.36,1.43Z"/><path class="cls-5" d="M196.43,208.19a2.43,2.43,0,0,1-2.18,1.21,2.15,2.15,0,0,1-1.68-.73,3.39,3.39,0,0,1-.65-2.29v-.82a3.41,3.41,0,0,1,.65-2.3,2.19,2.19,0,0,1,1.68-.73,2.43,2.43,0,0,1,2.18,1.23l-.81.51a1.48,1.48,0,0,0-1.31-.83,1.31,1.31,0,0,0-1,.42,2.71,2.71,0,0,0-.37,1.7v.82a2.71,2.71,0,0,0,.37,1.7,1.31,1.31,0,0,0,1,.42,1.49,1.49,0,0,0,1.31-.83Z"/><path class="cls-5" d="M202.5,203.78l-.86.38a1,1,0,0,0-1-.72c-1,0-1.47.9-1.47,2.72v3.13h-1v-6.63h1v1.06a1.82,1.82,0,0,1,1.62-1.19A1.74,1.74,0,0,1,202.5,203.78Z"/><path class="cls-5" d="M208.16,206.17h-3.47v.2a2.64,2.64,0,0,0,.38,1.71,1.29,1.29,0,0,0,1,.42,1.47,1.47,0,0,0,1.31-.83l.81.52A2.43,2.43,0,0,1,206,209.4a2.13,2.13,0,0,1-1.67-.73,3.34,3.34,0,0,1-.66-2.3v-.8a3.39,3.39,0,0,1,.66-2.31,2.07,2.07,0,0,1,1.58-.73,2.1,2.1,0,0,1,1.61.68,3.15,3.15,0,0,1,.62,2.19Zm-1-.88a2.29,2.29,0,0,0-.35-1.43,1.1,1.1,0,0,0-.89-.42,1.13,1.13,0,0,0-.88.42,2.22,2.22,0,0,0-.36,1.43Z"/><path class="cls-5" d="M214.48,208.36a2.14,2.14,0,0,1-1.86,1,1.76,1.76,0,0,1-1.3-.52,2.11,2.11,0,0,1-.53-1.55v-3.82h-1.11v-.85h1.11v-2.31h1v2.31H214v.85h-2.24v3.88a1.32,1.32,0,0,0,.23.83.84.84,0,0,0,.65.28,1.12,1.12,0,0,0,1.05-.69Z"/><path class="cls-5" d="M219.08,203.69a1.13,1.13,0,0,1-.33.8,1.09,1.09,0,0,1-.83.35,1.07,1.07,0,0,1-.82-.35,1.17,1.17,0,0,1,0-1.61,1.14,1.14,0,0,1,1.65,0A1.13,1.13,0,0,1,219.08,203.69Zm0,4.56a1.15,1.15,0,0,1-.33.81,1.09,1.09,0,0,1-.83.34,1.06,1.06,0,0,1-.82-.34,1.19,1.19,0,0,1-.32-.81,1.16,1.16,0,0,1,.32-.8,1.07,1.07,0,0,1,.82-.35,1.09,1.09,0,0,1,.83.35A1.16,1.16,0,0,1,219.08,208.25Z"/><path class="cls-5" d="M232.36,205.62a4.08,4.08,0,0,1-.8,2.71,2.66,2.66,0,0,1-2.17,1h-1.47v-8.94h1.47a2.74,2.74,0,0,1,2.17.9,3.82,3.82,0,0,1,.8,2.64Zm-1,0v-1.73a3.33,3.33,0,0,0-.52-2,1.71,1.71,0,0,0-1.42-.66h-.49v7.24h.49a1.68,1.68,0,0,0,1.42-.71A3.58,3.58,0,0,0,231.34,205.62Z"/><path class="cls-5" d="M238.08,209.29h-1v-4.47h-2.3v4.47h-1v-8.94h1V204h2.3v-3.62h1Z"/><path class="cls-5" d="M250.3,207.2a2.21,2.21,0,0,1-.6,1.56,2.18,2.18,0,0,1-1.68.64,2.6,2.6,0,0,1-2.46-1.47l.74-.56A1.84,1.84,0,0,0,248,208.5a1.36,1.36,0,0,0,.91-.33,1.19,1.19,0,0,0,.38-1,1.68,1.68,0,0,0-.66-1.14l-1.93-1.8a2.49,2.49,0,0,1-.8-1.89,2.16,2.16,0,0,1,.59-1.54,2.13,2.13,0,0,1,1.62-.62,2.53,2.53,0,0,1,2.17,1.22l-.76.61a1.53,1.53,0,0,0-1.4-.92,1.28,1.28,0,0,0-.87.3,1.15,1.15,0,0,0-.35.94,1.47,1.47,0,0,0,.53,1.15l1.91,1.79A2.58,2.58,0,0,1,250.3,207.2Z"/><path class="cls-5" d="M256.16,206.17h-3.47v.2a2.64,2.64,0,0,0,.38,1.71,1.29,1.29,0,0,0,1,.42,1.47,1.47,0,0,0,1.31-.83l.81.52A2.43,2.43,0,0,1,254,209.4a2.13,2.13,0,0,1-1.67-.73,3.34,3.34,0,0,1-.66-2.3v-.8a3.39,3.39,0,0,1,.66-2.31,2.07,2.07,0,0,1,1.58-.73,2.1,2.1,0,0,1,1.61.68,3.15,3.15,0,0,1,.62,2.19Zm-1-.88a2.29,2.29,0,0,0-.35-1.43,1.1,1.1,0,0,0-.89-.42,1.13,1.13,0,0,0-.88.42,2.22,2.22,0,0,0-.36,1.43Z"/><path class="cls-5" d="M262.43,208.19a2.43,2.43,0,0,1-2.18,1.21,2.15,2.15,0,0,1-1.68-.73,3.39,3.39,0,0,1-.65-2.29v-.82a3.41,3.41,0,0,1,.65-2.3,2.19,2.19,0,0,1,1.68-.73,2.43,2.43,0,0,1,2.18,1.23l-.81.51a1.48,1.48,0,0,0-1.31-.83,1.31,1.31,0,0,0-1,.42,2.71,2.71,0,0,0-.37,1.7v.82a2.71,2.71,0,0,0,.37,1.7,1.31,1.31,0,0,0,1,.42,1.49,1.49,0,0,0,1.31-.83Z"/><path class="cls-5" d="M268.5,203.78l-.86.38a1,1,0,0,0-1-.72c-1,0-1.47.9-1.47,2.72v3.13h-1v-6.63h1v1.06a1.82,1.82,0,0,1,1.62-1.19A1.74,1.74,0,0,1,268.5,203.78Z"/><path class="cls-5" d="M274.16,206.17h-3.47v.2a2.64,2.64,0,0,0,.38,1.71,1.29,1.29,0,0,0,1,.42,1.47,1.47,0,0,0,1.31-.83l.81.52A2.43,2.43,0,0,1,272,209.4a2.13,2.13,0,0,1-1.67-.73,3.34,3.34,0,0,1-.66-2.3v-.8a3.39,3.39,0,0,1,.66-2.31,2.07,2.07,0,0,1,1.58-.73,2.1,2.1,0,0,1,1.61.68,3.15,3.15,0,0,1,.62,2.19Zm-1-.88a2.29,2.29,0,0,0-.35-1.43,1.1,1.1,0,0,0-.89-.42,1.13,1.13,0,0,0-.88.42,2.22,2.22,0,0,0-.36,1.43Z"/><path class="cls-5" d="M280.48,208.36a2.14,2.14,0,0,1-1.86,1,1.76,1.76,0,0,1-1.3-.52,2.11,2.11,0,0,1-.53-1.55v-3.82h-1.11v-.85h1.11v-2.31h1v2.31H280v.85h-2.24v3.88a1.32,1.32,0,0,0,.23.83.84.84,0,0,0,.65.28,1.12,1.12,0,0,0,1.05-.69Z"/><line class="cls-4" x1="391.38" y1="262.21" x2="324.68" y2="262.21"/><polygon class="cls-2" points="328.44 262.21 328.44 264.77 326.22 263.49 324 262.21 326.22 260.93 328.44 259.65 328.44 262.21"/><line class="cls-4" x1="166.38" y1="263.21" x2="99.68" y2="263.21"/><polygon class="cls-2" points="103.44 263.21 103.44 265.77 101.22 264.49 99 263.21 101.22 261.93 103.44 260.65 103.44 263.21"/><path class="cls-5" d="M91.81,272.74A6.61,6.61,0,0,1,94.89,267l.5.68a6.13,6.13,0,0,0,0,10.06l-.5.68A6.62,6.62,0,0,1,91.81,272.74Z"/><path class="cls-5" d="M101.65,275.12a2.13,2.13,0,0,1-2.28,2.2,2.61,2.61,0,0,1-2.47-1.47l.74-.56a1.85,1.85,0,0,0,1.72,1.13,1.32,1.32,0,0,0,.91-.33,1.16,1.16,0,0,0,.38-1A1.7,1.7,0,0,0,100,274l-1.93-1.8a2.49,2.49,0,0,1-.8-1.89,2.08,2.08,0,0,1,2.21-2.16,2.54,2.54,0,0,1,2.17,1.22l-.77.61a1.52,1.52,0,0,0-1.4-.92,1.28,1.28,0,0,0-.87.3,1.18,1.18,0,0,0-.35.94,1.51,1.51,0,0,0,.53,1.15l1.92,1.79A2.61,2.61,0,0,1,101.65,275.12Z"/><path class="cls-5" d="M107.61,269.12h-1.84v8.09h-1v-8.09h-1.84v-.85h4.67Z"/><path class="cls-5" d="M109.91,276.71v.5h-1v-.5a20.51,20.51,0,0,1,.76-4.32l1-4.12h1.13l1,4.12a20.71,20.71,0,0,1,.77,4.32v.5h-1v-.5a10.28,10.28,0,0,0-.17-1.59h-2.39A10.28,10.28,0,0,0,109.91,276.71Zm1.37-6.86-.75,3.09c-.11.48-.21.92-.3,1.33h2.08c-.08-.41-.18-.85-.29-1.33Z"/><path class="cls-5" d="M119.61,269.12h-1.84v8.09h-1v-8.09h-1.84v-.85h4.67Z"/><path class="cls-5" d="M125.43,274.53a3,3,0,0,1-.63,2.12,2,2,0,0,1-1.52.67,2,2,0,0,1-1.53-.67,3,3,0,0,1-.62-2.12v-6.26h1v6.26a2.47,2.47,0,0,0,.33,1.5,1.07,1.07,0,0,0,1.65,0,2.47,2.47,0,0,0,.33-1.5v-6.26h1Z"/><path class="cls-5" d="M131.65,275.12a2.13,2.13,0,0,1-2.28,2.2,2.61,2.61,0,0,1-2.47-1.47l.74-.56a1.85,1.85,0,0,0,1.72,1.13,1.32,1.32,0,0,0,.91-.33,1.16,1.16,0,0,0,.38-1A1.7,1.7,0,0,0,130,274l-1.93-1.8a2.49,2.49,0,0,1-.8-1.89,2.08,2.08,0,0,1,2.21-2.16,2.54,2.54,0,0,1,2.17,1.22l-.77.61a1.52,1.52,0,0,0-1.4-.92,1.28,1.28,0,0,0-.87.3,1.18,1.18,0,0,0-.35.94,1.51,1.51,0,0,0,.53,1.15l1.92,1.79A2.61,2.61,0,0,1,131.65,275.12Z"/><path class="cls-5" d="M136.75,272.74a6.64,6.64,0,0,1-3.08,5.71l-.51-.68a6.13,6.13,0,0,0,0-10.06l.51-.68A6.63,6.63,0,0,1,136.75,272.74Z"/><path class="cls-5" d="M149.46,277.21h-4.14v-.85a5.15,5.15,0,0,1,1.32-3.06l1.33-1.71a2,2,0,0,0,.5-1.25,1.32,1.32,0,0,0-.32-1,1.14,1.14,0,0,0-.87-.32,1.45,1.45,0,0,0-1.37,1.14l-.82-.57a2.38,2.38,0,0,1,2.19-1.48,2.15,2.15,0,0,1,2.18,2.21,3,3,0,0,1-.77,1.91l-1.3,1.68a4.13,4.13,0,0,0-1.07,2.42h3.14Z"/><path class="cls-5" d="M150.89,272.73a13.09,13.09,0,0,1,.59-3.08,1.74,1.74,0,0,1,1.77-1.51,1.76,1.76,0,0,1,1.82,1.51,8.21,8.21,0,0,1,0,6.16,1.76,1.76,0,0,1-1.82,1.51,1.74,1.74,0,0,1-1.77-1.51A13.09,13.09,0,0,1,150.89,272.73Zm3.78,0a11.37,11.37,0,0,0-.53-2.83c-.14-.56-.44-.84-.89-.85s-.7.29-.84.85a7.85,7.85,0,0,0,0,5.67c.14.56.42.84.84.85s.75-.29.89-.85A11.43,11.43,0,0,0,154.67,272.73Zm-.59.94h-.61l-1-2h.61Z"/><path class="cls-5" d="M156.89,272.73a13.09,13.09,0,0,1,.59-3.08,1.74,1.74,0,0,1,1.77-1.51,1.76,1.76,0,0,1,1.82,1.51,8.21,8.21,0,0,1,0,6.16,1.76,1.76,0,0,1-1.82,1.51,1.74,1.74,0,0,1-1.77-1.51A13.09,13.09,0,0,1,156.89,272.73Zm3.78,0a11.37,11.37,0,0,0-.53-2.83c-.14-.56-.44-.84-.89-.85s-.7.29-.84.85a7.85,7.85,0,0,0,0,5.67c.14.56.42.84.84.85s.75-.29.89-.85A11.43,11.43,0,0,0,160.67,272.73Zm-.59.94h-.61l-1-2h.61Z"/><path class="cls-5" d="M19.81,287.14a6.61,6.61,0,0,1,3.08-5.71l.5.68a6.13,6.13,0,0,0,0,10.06l-.5.68A6.62,6.62,0,0,1,19.81,287.14Z"/><path class="cls-5" d="M29.57,288.88a2.67,2.67,0,0,1-.73,2.06,2.73,2.73,0,0,1-1.91.67H25.21v-8.94H27a2.28,2.28,0,0,1,1.73.59,2.15,2.15,0,0,1,.58,1.56,1.8,1.8,0,0,1-1.22,1.87A2,2,0,0,1,29.57,288.88Zm-1.27-4.06a1.34,1.34,0,0,0-.32-1,1.39,1.39,0,0,0-1-.29H26.2v2.86h.71a1.44,1.44,0,0,0,1-.37A1.56,1.56,0,0,0,28.3,284.82Zm.24,4.06a1.86,1.86,0,0,0-.35-1.29,1.24,1.24,0,0,0-1-.36h-1v3.53h.72a1.62,1.62,0,0,0,1.24-.4A2.2,2.2,0,0,0,28.54,288.88Z"/><path class="cls-5" d="M31.08,288.9v-3.53a3.14,3.14,0,0,1,.61-2.15,2.19,2.19,0,0,1,3.17,0,3.14,3.14,0,0,1,.61,2.15v3.53a3.13,3.13,0,0,1-.61,2.14,2.19,2.19,0,0,1-3.17,0A3.13,3.13,0,0,1,31.08,288.9Zm1,0a2.61,2.61,0,0,0,.31,1.51,1.05,1.05,0,0,0,.88.41,1.08,1.08,0,0,0,.89-.41,2.62,2.62,0,0,0,.32-1.51v-3.53a2.58,2.58,0,0,0-.32-1.51,1.06,1.06,0,0,0-.89-.41,1,1,0,0,0-.88.4,2.65,2.65,0,0,0-.31,1.52Z"/><path class="cls-5" d="M41.71,287.94a4.13,4.13,0,0,1-.8,2.71,2.68,2.68,0,0,1-2.17,1H37.26v-8.94h1.48a2.76,2.76,0,0,1,2.17.9,3.88,3.88,0,0,1,.8,2.64Zm-1,0v-1.73a3.26,3.26,0,0,0-.52-2,1.7,1.7,0,0,0-1.42-.66h-.48v7.24h.48a1.67,1.67,0,0,0,1.42-.71A3.51,3.51,0,0,0,40.68,287.94Z"/><path class="cls-5" d="M45.77,291.61h-1V287.8l-1-1.76a6.34,6.34,0,0,1-.93-3v-.41h1v.41a5.52,5.52,0,0,0,.69,2.48l.71,1.38.7-1.38a5.52,5.52,0,0,0,.69-2.48v-.41h1v.41a6.34,6.34,0,0,1-.93,3l-1,1.76Z"/><path class="cls-5" d="M52.75,287.14a6.64,6.64,0,0,1-3.08,5.71l-.51-.68a6.13,6.13,0,0,0,0-10.06l.51-.68A6.63,6.63,0,0,1,52.75,287.14Z"/><path class="cls-5" d="M65.65,289.52a2.13,2.13,0,0,1-2.28,2.2,2.61,2.61,0,0,1-2.47-1.47l.74-.56a1.85,1.85,0,0,0,1.72,1.13,1.32,1.32,0,0,0,.91-.33,1.16,1.16,0,0,0,.38-1,1.7,1.7,0,0,0-.65-1.14l-1.93-1.8a2.49,2.49,0,0,1-.8-1.89,2.08,2.08,0,0,1,2.21-2.16,2.54,2.54,0,0,1,2.17,1.22l-.77.61a1.52,1.52,0,0,0-1.4-.92,1.28,1.28,0,0,0-.87.3,1.18,1.18,0,0,0-.35.94,1.52,1.52,0,0,0,.53,1.15l1.92,1.79A2.61,2.61,0,0,1,65.65,289.52Z"/><path class="cls-5" d="M71.51,288.49H68v.2a2.71,2.71,0,0,0,.38,1.71,1.3,1.3,0,0,0,1,.42,1.48,1.48,0,0,0,1.31-.83l.8.52a2.41,2.41,0,0,1-2.18,1.21,2.15,2.15,0,0,1-1.67-.73,3.4,3.4,0,0,1-.65-2.3v-.8a3.44,3.44,0,0,1,.65-2.31,2.16,2.16,0,0,1,3.19-.05,3.15,3.15,0,0,1,.63,2.19Zm-1-.88a2.22,2.22,0,0,0-.35-1.43,1.08,1.08,0,0,0-.88-.42,1.11,1.11,0,0,0-.88.42,2.21,2.21,0,0,0-.37,1.43Z"/><path class="cls-5" d="M77.85,286.1l-.87.38a1,1,0,0,0-1-.72c-1,0-1.46.9-1.46,2.72v3.13h-1V285h1V286a1.8,1.8,0,0,1,1.62-1.19A1.75,1.75,0,0,1,77.85,286.1Z"/><path class="cls-5" d="M81.85,291.61H80.7l-1.15-3.47a12.17,12.17,0,0,1-.65-2.69l0-.47h1l0,.47a11.4,11.4,0,0,0,.57,2.55l.81,2.67.8-2.67a11.4,11.4,0,0,0,.57-2.55l0-.47h1l0,.47a12.17,12.17,0,0,1-.65,2.69Z"/><path class="cls-5" d="M89.51,288.49H86v.2a2.71,2.71,0,0,0,.38,1.71,1.3,1.3,0,0,0,1,.42,1.48,1.48,0,0,0,1.31-.83l.8.52a2.41,2.41,0,0,1-2.18,1.21,2.15,2.15,0,0,1-1.67-.73,3.4,3.4,0,0,1-.65-2.3v-.8a3.44,3.44,0,0,1,.65-2.31,2.16,2.16,0,0,1,3.19-.05,3.15,3.15,0,0,1,.63,2.19Zm-1-.88a2.22,2.22,0,0,0-.35-1.43,1.08,1.08,0,0,0-.88-.42,1.11,1.11,0,0,0-.88.42,2.21,2.21,0,0,0-.37,1.43Z"/><path class="cls-5" d="M95.85,286.1l-.87.38a1,1,0,0,0-1-.72c-1,0-1.46.9-1.46,2.72v3.13h-1V285h1V286a1.8,1.8,0,0,1,1.62-1.19A1.75,1.75,0,0,1,95.85,286.1Z"/><path class="cls-5" d="M104.4,291.61h-1v-8.94h2a2.34,2.34,0,0,1,1.8.65,2.42,2.42,0,0,1,.61,1.72,2.49,2.49,0,0,1-.67,1.86,2.42,2.42,0,0,1-1.74.65h-1Zm0-4.91h.95a1.44,1.44,0,0,0,1-.35,1.87,1.87,0,0,0,.35-1.31,1.72,1.72,0,0,0-.32-1.17,1.38,1.38,0,0,0-1.07-.35h-.95Z"/><path class="cls-5" d="M113.43,291.61h-1v-.86a1.84,1.84,0,0,1-1.55,1,1.59,1.59,0,0,1-1.24-.56,3,3,0,0,1-.51-2V285h1v4.19a2.26,2.26,0,0,0,.27,1.31.92.92,0,0,0,.74.34c.66,0,1.09-.43,1.3-1.3V285h1Z"/><path class="cls-5" d="M119.6,288.75A3.59,3.59,0,0,1,119,291a1.71,1.71,0,0,1-1.36.69,1.67,1.67,0,0,1-1.54-.91v.8h-1v-8.94h1v3.11a1.67,1.67,0,0,1,1.54-.93,1.72,1.72,0,0,1,1.36.7,3.65,3.65,0,0,1,.57,2.29Zm-1,0v-.91a3.25,3.25,0,0,0-.29-1.62,1,1,0,0,0-.86-.46q-1,0-1.29,1.32v2.42c.2.88.64,1.32,1.29,1.32a1,1,0,0,0,.86-.46A3.23,3.23,0,0,0,118.57,288.75Z"/><path class="cls-5" d="M125.37,291.61h-4.19v-.85h1.6v-7.24h-1.14v-.85h2.13v8.09h1.6Z"/><path class="cls-5" d="M131.42,291.61h-4.18v-.85h1.59v-4.93h-1.14V285h2.14v5.78h1.59Zm-1.51-8.88a.77.77,0,1,1-1.53,0,.77.77,0,0,1,.22-.55.79.79,0,0,1,1.09,0A.77.77,0,0,1,129.91,282.73Z"/><path class="cls-5" d="M137.77,290.51a2.42,2.42,0,0,1-2.18,1.21,2.13,2.13,0,0,1-1.67-.73,3.33,3.33,0,0,1-.65-2.29v-.82a3.36,3.36,0,0,1,.65-2.3,2.17,2.17,0,0,1,1.67-.73,2.42,2.42,0,0,1,2.18,1.23l-.81.51a1.45,1.45,0,0,0-1.31-.83,1.29,1.29,0,0,0-1,.42,2.69,2.69,0,0,0-.38,1.7v.82a2.69,2.69,0,0,0,.38,1.7,1.29,1.29,0,0,0,1,.42A1.47,1.47,0,0,0,137,290Z"/><path class="cls-5" d="M146.4,282.67v4.27l1.52-2.23a4.34,4.34,0,0,0,.82-1.72l0-.32h1l-.05.43a5.9,5.9,0,0,1-1,2.13l-.92,1.38,1.32,2.25a6.16,6.16,0,0,1,.92,2.35l.05.4h-1l0-.31a5.17,5.17,0,0,0-.72-2l-1.2-2-.7,1v3.25h-1v-8.94Z"/><path class="cls-5" d="M155.51,288.49H152v.2a2.71,2.71,0,0,0,.38,1.71,1.3,1.3,0,0,0,1,.42,1.48,1.48,0,0,0,1.31-.83l.8.52a2.41,2.41,0,0,1-2.18,1.21,2.15,2.15,0,0,1-1.67-.73,3.4,3.4,0,0,1-.65-2.3v-.8a3.44,3.44,0,0,1,.65-2.31,2.16,2.16,0,0,1,3.19-.05,3.15,3.15,0,0,1,.63,2.19Zm-1-.88a2.22,2.22,0,0,0-.35-1.43,1.08,1.08,0,0,0-.88-.42,1.11,1.11,0,0,0-.88.42,2.21,2.21,0,0,0-.37,1.43Z"/><path class="cls-5" d="M158.05,292.68l.76-2-1.37-3.38a6.75,6.75,0,0,1-.54-1.83l0-.51h1l0,.47a7.25,7.25,0,0,0,.46,1.58l.92,2.51.92-2.47a7.94,7.94,0,0,0,.45-1.62l0-.47h1l0,.51a7.13,7.13,0,0,1-.52,1.83L159,292.81a2,2,0,0,0-.13.65l0,.22h-1v-.22A2.92,2.92,0,0,1,158.05,292.68Z"/><text class="cls-6" transform="translate(183.93 53.94)">Use prime to generate<tspan x="0" y="14.4">Private &amp; Public Key</tspan><tspan x="0" y="28.8">With Diffie-Hellman</tspan></text><polyline class="cls-4" points="174 30.22 239.16 30.22 239.16 37.52 178.93 37.52"/><polygon class="cls-2" points="182.37 37.6 182.37 40.16 180.15 38.88 177.93 37.6 180.15 36.32 182.37 35.04 182.37 37.6"/><polyline class="cls-4" points="9 298.54 74.17 298.54 74.17 305.84 13.93 305.84"/><polygon class="cls-2" points="17.37 305.92 17.37 308.48 15.15 307.2 12.93 305.92 15.15 304.64 17.37 303.36 17.37 305.92"/><text class="cls-6" transform="translate(15 320.93)">Use Diffie-Hellman to<tspan x="0" y="14.4">pair server public key</tspan><tspan x="0" y="28.8">with client private to</tspan><tspan x="0" y="43.2">make secret</tspan></text><path class="cls-2" d="M16,3a2,2,0,0,1,2,2V17a2,2,0,0,1-2,2H2a2,2,0,0,1-2-2V5A2,2,0,0,1,2,3H16m0,14V7H2V17Z"/><text class="cls-6" transform="translate(183.93 113.94)">Use Diffie-Hellman to<tspan x="0" y="14.4">pair client public key</tspan><tspan x="0" y="28.8">with server private to</tspan><tspan x="0" y="43.2">make secret</tspan></text><polyline class="cls-4" points="174 90.22 239.16 90.22 239.16 97.52 178.93 97.52"/><polygon class="cls-2" points="182.37 97.6 182.37 100.16 180.15 98.88 177.93 97.6 180.15 96.32 182.37 95.04 182.37 97.6"/><polyline class="cls-4" points="9 378.54 74.17 378.54 74.17 385.84 13.93 385.84"/><polygon class="cls-2" points="17.37 385.92 17.37 388.48 15.15 387.2 12.93 385.92 15.15 384.64 17.37 383.36 17.37 385.92"/><path class="cls-5" d="M20.37,398.84a2.14,2.14,0,0,1-2.28,2.2,2.6,2.6,0,0,1-2.46-1.47l.74-.56a1.84,1.84,0,0,0,1.72,1.13,1.36,1.36,0,0,0,.91-.33,1.21,1.21,0,0,0,.38-1,1.72,1.72,0,0,0-.66-1.15l-1.93-1.79A2.51,2.51,0,0,1,16,394a2.14,2.14,0,0,1,.59-1.53,2.1,2.1,0,0,1,1.62-.62,2.51,2.51,0,0,1,2.17,1.22l-.76.6a1.54,1.54,0,0,0-1.4-.92,1.32,1.32,0,0,0-.88.3A1.2,1.2,0,0,0,17,394a1.51,1.51,0,0,0,.52,1.15l1.92,1.78A2.61,2.61,0,0,1,20.37,398.84Z"/><path class="cls-5" d="M26,400.93H25v-.75a1.93,1.93,0,0,1-1.6.86,1.71,1.71,0,0,1-1.32-.56,2,2,0,0,1-.5-1.4,1.89,1.89,0,0,1,.63-1.45,2.61,2.61,0,0,1,1.84-.59h1v-.71c0-.84-.4-1.26-1.19-1.26a1.39,1.39,0,0,0-1.31.78l-.76-.57a2.41,2.41,0,0,1,2.07-1.11,2.25,2.25,0,0,1,1.57.55,2,2,0,0,1,.61,1.61Zm-1-1.56v-1.53h-1a1.55,1.55,0,0,0-1.08.34,1.16,1.16,0,0,0-.36.9.93.93,0,0,0,1,1.06A1.61,1.61,0,0,0,25,399.37Z"/><path class="cls-5" d="M30.57,400.93H29.43l-1.15-3.47a11.74,11.74,0,0,1-.65-2.69l0-.48h1l0,.48a13,13,0,0,0,.57,2.55L30,400l.81-2.67a13,13,0,0,0,.57-2.55l0-.48h1l0,.48a11.74,11.74,0,0,1-.65,2.69Z"/><path class="cls-5" d="M38.23,397.81H34.76v.2a2.63,2.63,0,0,0,.38,1.7,1.3,1.3,0,0,0,1,.43,1.48,1.48,0,0,0,1.31-.83l.81.51A2.44,2.44,0,0,1,36.09,401a2.13,2.13,0,0,1-1.67-.73,3.34,3.34,0,0,1-.66-2.3v-.8a3.37,3.37,0,0,1,.66-2.31,2,2,0,0,1,1.58-.73,2.13,2.13,0,0,1,1.61.67,3.21,3.21,0,0,1,.62,2.2Zm-1-.88a2.32,2.32,0,0,0-.35-1.44,1.1,1.1,0,0,0-.89-.42,1.13,1.13,0,0,0-.88.42,2.25,2.25,0,0,0-.36,1.44Z"/><path class="cls-5" d="M48,400.16a1.31,1.31,0,0,0,.94-.3.9.9,0,0,0,.32-.71,1,1,0,0,0-.71-.91l-1.27-.58a1.75,1.75,0,0,1-.61-3,2.2,2.2,0,0,1,1.52-.53,2.23,2.23,0,0,1,2,1.23l-.81.49a1.25,1.25,0,0,0-1.22-.83,1.21,1.21,0,0,0-.81.25.83.83,0,0,0-.3.64c0,.34.22.62.67.83l1.2.56a2,2,0,0,1,1.31,1.85,1.69,1.69,0,0,1-.61,1.29A2.38,2.38,0,0,1,48,401a2.56,2.56,0,0,1-2.29-1.36l.82-.49A1.59,1.59,0,0,0,48,400.16Z"/><path class="cls-5" d="M56.23,397.81H52.76v.2a2.63,2.63,0,0,0,.38,1.7,1.3,1.3,0,0,0,1,.43,1.48,1.48,0,0,0,1.31-.83l.81.51A2.44,2.44,0,0,1,54.09,401a2.13,2.13,0,0,1-1.67-.73,3.34,3.34,0,0,1-.66-2.3v-.8a3.37,3.37,0,0,1,.66-2.31,2,2,0,0,1,1.58-.73,2.13,2.13,0,0,1,1.61.67,3.21,3.21,0,0,1,.62,2.2Zm-1-.88a2.32,2.32,0,0,0-.35-1.44,1.1,1.1,0,0,0-.89-.42,1.13,1.13,0,0,0-.88.42,2.25,2.25,0,0,0-.36,1.44Z"/><path class="cls-5" d="M62.5,399.82A2.44,2.44,0,0,1,60.32,401a2.15,2.15,0,0,1-1.68-.73A3.4,3.4,0,0,1,58,398v-.82a3.4,3.4,0,0,1,.65-2.29,2.15,2.15,0,0,1,1.68-.73,2.43,2.43,0,0,1,2.18,1.23l-.81.5a1.49,1.49,0,0,0-1.31-.83,1.31,1.31,0,0,0-1,.42,2.73,2.73,0,0,0-.37,1.7V398a2.69,2.69,0,0,0,.37,1.7,1.32,1.32,0,0,0,1,.43,1.49,1.49,0,0,0,1.31-.83Z"/><path class="cls-5" d="M68.57,395.41l-.86.39a1,1,0,0,0-1-.73c-1,0-1.46.91-1.46,2.73v3.13h-1v-6.64h1v1.06a1.81,1.81,0,0,1,1.62-1.18A1.73,1.73,0,0,1,68.57,395.41Z"/><path class="cls-5" d="M74.23,397.81H70.76v.2a2.63,2.63,0,0,0,.38,1.7,1.3,1.3,0,0,0,1,.43,1.48,1.48,0,0,0,1.31-.83l.81.51A2.44,2.44,0,0,1,72.09,401a2.13,2.13,0,0,1-1.67-.73,3.34,3.34,0,0,1-.66-2.3v-.8a3.37,3.37,0,0,1,.66-2.31,2,2,0,0,1,1.58-.73,2.13,2.13,0,0,1,1.61.67,3.21,3.21,0,0,1,.62,2.2Zm-1-.88a2.32,2.32,0,0,0-.35-1.44,1.1,1.1,0,0,0-.89-.42,1.13,1.13,0,0,0-.88.42,2.25,2.25,0,0,0-.36,1.44Z"/><path class="cls-5" d="M80.55,400a2.16,2.16,0,0,1-1.86,1,1.76,1.76,0,0,1-1.3-.53,2.09,2.09,0,0,1-.53-1.55v-3.82H75.75v-.85h1.11V392h1v2.3H80.1v.85H77.86V399a1.27,1.27,0,0,0,.23.82.81.81,0,0,0,.65.29,1.12,1.12,0,0,0,1.05-.69Z"/><path class="cls-5" d="M20.34,407.24H18.5v8.09h-1v-8.09H15.66v-.85h4.68Z"/><path class="cls-5" d="M26.34,407.24H24.5v8.09h-1v-8.09H21.66v-.85h4.68Z"/><path class="cls-5" d="M32.49,415.33H28.42v-8.94h1v8.09h3.07Z"/><path class="cls-5" d="M37.15,409.73a1.13,1.13,0,0,1-.33.8,1.09,1.09,0,0,1-.83.34,1.06,1.06,0,0,1-.82-.34,1.17,1.17,0,0,1,0-1.61,1.07,1.07,0,0,1,.82-.35,1.09,1.09,0,0,1,.83.35A1.15,1.15,0,0,1,37.15,409.73Zm0,4.56a1.13,1.13,0,0,1-.33.8,1.09,1.09,0,0,1-.83.35,1.07,1.07,0,0,1-.82-.35,1.16,1.16,0,0,1,0-1.6,1,1,0,0,1,.82-.35,1.06,1.06,0,0,1,.83.35A1.15,1.15,0,0,1,37.15,414.29Z"/><path class="cls-5" d="M48.19,415.33v-7.74l-1.68,1.31-.46-.76,2.25-1.75h.88v8.94Z"/><path class="cls-5" d="M56.21,412.54a3.17,3.17,0,0,1-.66,2.14,2.07,2.07,0,0,1-1.63.76,2.35,2.35,0,0,1-2.18-1.38l.81-.54a1.43,1.43,0,0,0,1.37,1,1.19,1.19,0,0,0,.91-.47,2.38,2.38,0,0,0,.39-1.53,2.31,2.31,0,0,0-.39-1.53,1.64,1.64,0,0,0-1.25-.43H52.25v-4.19H56v.85H53.24v2.44h.51a2.47,2.47,0,0,1,1.79.66A3,3,0,0,1,56.21,412.54Z"/><path class="cls-5" d="M62.43,415.33h-.82v-5c0-.57-.16-.85-.5-.85s-.53.22-.71.65v5.21h-.8v-5c0-.57-.14-.85-.4-.85s-.6.22-.81.65v5.21h-.82v-6.64h.82v.65a1.3,1.3,0,0,1,1.11-.77c.39,0,.66.26.81.77a1.23,1.23,0,0,1,1.06-.77c.7,0,1.06.57,1.06,1.7Z"/><path class="cls-5" d="M68.14,415.33H64v-.85h1.59v-4.94H64.41v-.85h2.14v5.79h1.59Zm-1.51-8.89a.75.75,0,0,1-.22.55.7.7,0,0,1-.54.22.74.74,0,0,1-.55-.22.8.8,0,0,1-.22-.55.77.77,0,0,1,.22-.54.74.74,0,0,1,.55-.22.7.7,0,0,1,.54.22A.73.73,0,0,1,66.63,406.44Z"/><path class="cls-5" d="M74.15,415.33h-1V411a2,2,0,0,0-.27-1.2.86.86,0,0,0-.73-.34c-.66,0-1.09.45-1.3,1.35v4.49h-1v-6.64h1v.85a1.84,1.84,0,0,1,1.54-1,1.63,1.63,0,0,1,1.25.55,2.68,2.68,0,0,1,.51,1.85Z"/><path class="cls-5" d="M328.25,238.08a2.14,2.14,0,0,1-2.28,2.2,2.6,2.6,0,0,1-2.46-1.47l.74-.56a1.84,1.84,0,0,0,1.72,1.13,1.36,1.36,0,0,0,.91-.33,1.21,1.21,0,0,0,.38-1,1.72,1.72,0,0,0-.66-1.15l-1.93-1.79a2.51,2.51,0,0,1-.8-1.9,2.14,2.14,0,0,1,.59-1.53,2.1,2.1,0,0,1,1.62-.62,2.51,2.51,0,0,1,2.17,1.22l-.76.6a1.55,1.55,0,0,0-1.41-.92,1.31,1.31,0,0,0-.87.3,1.2,1.2,0,0,0-.34.95,1.51,1.51,0,0,0,.52,1.15l1.92,1.78A2.61,2.61,0,0,1,328.25,238.08Z"/><path class="cls-5" d="M333.88,240.17h-1v-.75a1.93,1.93,0,0,1-1.6.86,1.71,1.71,0,0,1-1.32-.56,2,2,0,0,1-.5-1.4,1.89,1.89,0,0,1,.63-1.45,2.61,2.61,0,0,1,1.84-.59h.95v-.71c0-.84-.4-1.26-1.19-1.26a1.39,1.39,0,0,0-1.31.78l-.76-.57a2.41,2.41,0,0,1,2.07-1.11,2.25,2.25,0,0,1,1.57.55,2,2,0,0,1,.61,1.61Zm-1-1.56v-1.53h-.95a1.55,1.55,0,0,0-1.08.34,1.16,1.16,0,0,0-.36.9.93.93,0,0,0,1,1.06A1.61,1.61,0,0,0,332.89,238.61Z"/><path class="cls-5" d="M338.45,240.17h-1.14l-1.15-3.47a11.74,11.74,0,0,1-.65-2.69l0-.48h1l0,.48a13,13,0,0,0,.57,2.55l.81,2.67.81-2.67a13,13,0,0,0,.57-2.55l0-.48h1l0,.48a11.74,11.74,0,0,1-.65,2.69Z"/><path class="cls-5" d="M346.11,237.05h-3.47v.2A2.63,2.63,0,0,0,343,239a1.27,1.27,0,0,0,1,.43,1.48,1.48,0,0,0,1.31-.83l.81.52a2.45,2.45,0,0,1-2.18,1.21,2.13,2.13,0,0,1-1.67-.73,3.34,3.34,0,0,1-.66-2.3v-.8a3.39,3.39,0,0,1,.66-2.31,2,2,0,0,1,1.58-.73,2.13,2.13,0,0,1,1.61.67,3.21,3.21,0,0,1,.62,2.2Zm-1-.88a2.27,2.27,0,0,0-.35-1.43,1.08,1.08,0,0,0-.89-.43,1.11,1.11,0,0,0-.88.43,2.2,2.2,0,0,0-.36,1.43Z"/><path class="cls-5" d="M355.9,239.4a1.31,1.31,0,0,0,.94-.3.9.9,0,0,0,.32-.71,1,1,0,0,0-.71-.91l-1.27-.58a1.75,1.75,0,0,1-.61-3,2.19,2.19,0,0,1,1.51-.53,2.23,2.23,0,0,1,2,1.23l-.81.49a1.25,1.25,0,0,0-1.23-.83,1.2,1.2,0,0,0-.8.25.83.83,0,0,0-.3.64c0,.34.22.62.67.83l1.2.56a2,2,0,0,1,1.31,1.85,1.67,1.67,0,0,1-.61,1.29,2.38,2.38,0,0,1-1.66.56,2.56,2.56,0,0,1-2.29-1.36l.82-.49A1.59,1.59,0,0,0,355.9,239.4Z"/><path class="cls-5" d="M364.11,237.05h-3.47v.2A2.63,2.63,0,0,0,361,239a1.27,1.27,0,0,0,1,.43,1.48,1.48,0,0,0,1.31-.83l.81.52a2.45,2.45,0,0,1-2.18,1.21,2.13,2.13,0,0,1-1.67-.73,3.34,3.34,0,0,1-.66-2.3v-.8a3.39,3.39,0,0,1,.66-2.31,2,2,0,0,1,1.58-.73,2.13,2.13,0,0,1,1.61.67,3.21,3.21,0,0,1,.62,2.2Zm-1-.88a2.27,2.27,0,0,0-.35-1.43,1.08,1.08,0,0,0-.89-.43,1.11,1.11,0,0,0-.88.43,2.2,2.2,0,0,0-.36,1.43Z"/><path class="cls-5" d="M370.38,239.07a2.45,2.45,0,0,1-2.18,1.21,2.15,2.15,0,0,1-1.68-.73,3.4,3.4,0,0,1-.65-2.3v-.82a3.4,3.4,0,0,1,.65-2.29,2.15,2.15,0,0,1,1.68-.73,2.43,2.43,0,0,1,2.18,1.23l-.81.51a1.49,1.49,0,0,0-1.32-.84,1.28,1.28,0,0,0-1,.43,2.67,2.67,0,0,0-.37,1.69v.82a2.69,2.69,0,0,0,.37,1.7,1.28,1.28,0,0,0,1,.43,1.5,1.5,0,0,0,1.32-.83Z"/><path class="cls-5" d="M376.45,234.65l-.87.39a1,1,0,0,0-1-.73c-1,0-1.46.91-1.46,2.73v3.13h-1v-6.64h1v1.06a1.81,1.81,0,0,1,1.62-1.18A1.73,1.73,0,0,1,376.45,234.65Z"/><path class="cls-5" d="M382.11,237.05h-3.47v.2A2.63,2.63,0,0,0,379,239a1.27,1.27,0,0,0,1,.43,1.48,1.48,0,0,0,1.31-.83l.81.52a2.45,2.45,0,0,1-2.18,1.21,2.13,2.13,0,0,1-1.67-.73,3.34,3.34,0,0,1-.66-2.3v-.8a3.39,3.39,0,0,1,.66-2.31,2,2,0,0,1,1.58-.73,2.13,2.13,0,0,1,1.61.67,3.21,3.21,0,0,1,.62,2.2Zm-1-.88a2.27,2.27,0,0,0-.35-1.43,1.08,1.08,0,0,0-.89-.43,1.11,1.11,0,0,0-.88.43,2.2,2.2,0,0,0-.36,1.43Z"/><path class="cls-5" d="M388.43,239.24a2.16,2.16,0,0,1-1.86,1,1.76,1.76,0,0,1-1.3-.53,2.09,2.09,0,0,1-.53-1.55v-3.82h-1.11v-.85h1.11v-2.3h1v2.3H388v.85h-2.24v3.89a1.27,1.27,0,0,0,.23.82.81.81,0,0,0,.65.29,1.13,1.13,0,0,0,1.05-.69Z"/><path class="cls-5" d="M334.22,246.47h-1.84v8.1h-1v-8.1h-1.84v-.84h4.68Z"/><path class="cls-5" d="M340.22,246.47h-1.84v8.1h-1v-8.1h-1.84v-.84h4.68Z"/><path class="cls-5" d="M346.37,254.57H342.3v-8.94h1v8.09h3.07Z"/><path class="cls-5" d="M351,249a1.13,1.13,0,0,1-.33.8,1.09,1.09,0,0,1-.83.34,1.06,1.06,0,0,1-.82-.34,1.17,1.17,0,0,1,0-1.61,1.07,1.07,0,0,1,.82-.35,1.09,1.09,0,0,1,.83.35A1.15,1.15,0,0,1,351,249Zm0,4.56a1.13,1.13,0,0,1-.33.8,1.09,1.09,0,0,1-.83.35,1.07,1.07,0,0,1-.82-.35,1.16,1.16,0,0,1,0-1.6,1,1,0,0,1,.82-.35,1.06,1.06,0,0,1,.83.35A1.15,1.15,0,0,1,351,253.53Z"/><path class="cls-5" d="M362.07,254.57v-7.74l-1.68,1.31-.46-.76,2.25-1.75h.88v8.94Z"/><path class="cls-5" d="M370.09,251.78a3.17,3.17,0,0,1-.66,2.14,2.07,2.07,0,0,1-1.63.76,2.34,2.34,0,0,1-2.18-1.38l.81-.54a1.43,1.43,0,0,0,1.37,1,1.19,1.19,0,0,0,.91-.47,2.38,2.38,0,0,0,.39-1.53,2.31,2.31,0,0,0-.39-1.53,1.64,1.64,0,0,0-1.25-.43h-1.33v-4.19h3.78v.84h-2.79v2.45h.51a2.47,2.47,0,0,1,1.79.66A3,3,0,0,1,370.09,251.78Z"/><path class="cls-5" d="M376.31,254.57h-.82v-5c0-.57-.16-.85-.5-.85s-.53.22-.71.65v5.21h-.8v-5c0-.57-.15-.85-.4-.85s-.6.22-.81.65v5.21h-.82v-6.64h.82v.65a1.3,1.3,0,0,1,1.11-.77c.39,0,.66.26.81.77a1.23,1.23,0,0,1,1.06-.77c.7,0,1.06.57,1.06,1.7Z"/><path class="cls-5" d="M382,254.57h-4.18v-.85h1.59v-4.94h-1.14v-.85h2.14v5.79H382Zm-1.51-8.89a.75.75,0,0,1-.22.55.7.7,0,0,1-.54.22.74.74,0,0,1-.55-.22.8.8,0,0,1-.22-.55.77.77,0,0,1,.22-.54.74.74,0,0,1,.55-.22.7.7,0,0,1,.54.22A.73.73,0,0,1,380.51,245.68Z"/><path class="cls-5" d="M388,254.57h-1v-4.3a2,2,0,0,0-.27-1.2.87.87,0,0,0-.73-.34c-.66,0-1.09.45-1.3,1.35v4.49h-1v-6.64h1v.85a1.82,1.82,0,0,1,1.54-1,1.63,1.63,0,0,1,1.25.55,2.68,2.68,0,0,1,.51,1.85Z"/><polyline class="cls-4" points="391.8 220.22 326.63 220.22 326.63 227.52 386.87 227.52"/><polygon class="cls-2" points="383.43 227.6 383.43 230.16 385.65 228.88 387.87 227.6 385.65 226.32 383.43 225.04 383.43 227.6"/></g></g></svg>