<svg xmlns="http://www.w3.org/2000/svg" viewBox="0 0 551.2 222.15"><defs><style>.cls-1,.cls-2{fill:#c5e3c1;}.cls-2,.cls-4{stroke:#231f20;}.cls-2,.cls-4,.cls-6,.cls-7,.cls-9{stroke-miterlimit:10;}.cls-3{fill:#231f20;}.cls-4{fill:none;}.cls-5,.cls-6{fill:#010101;}.cls-6,.cls-7,.cls-9{stroke:#fff;}.cls-7,.cls-9{fill:#fff;}.cls-8{fill:#e2c0c0;}.cls-9{stroke-width:2px;}</style></defs><title>simpleExample</title><g id="Layer_2" data-name="Layer 2"><g id="Layer_1-2" data-name="Layer 1"><rect class="cls-1" x="166.31" y="24.05" width="95.79" height="49.6"/><rect class="cls-1" x="166.31" y="116" width="95.79" height="44.05"/><rect class="cls-2" x="0.5" y="24.05" width="95.79" height="67.07"/><path class="cls-3" d="M40,16.49a3.79,3.79,0,0,1-3.41,2.15,3.39,3.39,0,0,1-2.46-1q-1-1-1-3.6V9.45a5.07,5.07,0,0,1,1-3.56,3.29,3.29,0,0,1,2.44-1,3.53,3.53,0,0,1,3.34,2.18l-1.22.74a2.21,2.21,0,0,0-2.11-1.56,1.83,1.83,0,0,0-1.39.61,4.17,4.17,0,0,0-.56,2.61v4.62a4.17,4.17,0,0,0,.56,2.61,1.8,1.8,0,0,0,1.39.61,2.38,2.38,0,0,0,2.2-1.63Z"/><path class="cls-3" d="M48.29,18.48H42V17.2h2.39V6.34H42.7V5.06h3.2V17.2h2.39Z"/><path class="cls-3" d="M57.36,18.48H51.1V17.2h2.39V9.8H51.77V8.53H55V17.2h2.38ZM55.11,5.15a1.14,1.14,0,0,1-.33.82,1.18,1.18,0,0,1-1.64,0,1.14,1.14,0,0,1-.33-.82,1.12,1.12,0,0,1,.33-.81,1.16,1.16,0,0,1,1.64,0A1.12,1.12,0,0,1,55.11,5.15Z"/><path class="cls-3" d="M66.51,13.8H61.29v.3a4,4,0,0,0,.57,2.56,2,2,0,0,0,1.53.63,2.18,2.18,0,0,0,2-1.24l1.22.77a3.63,3.63,0,0,1-3.27,1.82,3.22,3.22,0,0,1-2.51-1.09,5.06,5.06,0,0,1-1-3.45V12.9a5.11,5.11,0,0,1,1-3.46,3.1,3.1,0,0,1,2.38-1.1,3.15,3.15,0,0,1,2.41,1,4.79,4.79,0,0,1,.94,3.29ZM65,12.48a3.41,3.41,0,0,0-.52-2.15,1.65,1.65,0,0,0-1.33-.63,1.68,1.68,0,0,0-1.32.63,3.27,3.27,0,0,0-.55,2.15Z"/><path class="cls-3" d="M75.38,18.48H73.89V12a2.94,2.94,0,0,0-.41-1.8,1.33,1.33,0,0,0-1.1-.51c-1,0-1.64.68-1.95,2v6.74h-1.5v-10h1.5V9.8a2.75,2.75,0,0,1,2.32-1.46,2.49,2.49,0,0,1,1.87.82,4.06,4.06,0,0,1,.76,2.78Z"/><path class="cls-3" d="M85,17.09a3.24,3.24,0,0,1-2.8,1.55,2.64,2.64,0,0,1-1.94-.78,3.15,3.15,0,0,1-.79-2.33V9.8H77.78V8.53h1.67V5.06H81V8.53H84.3V9.8H81v5.83a1.87,1.87,0,0,0,.35,1.24,1.19,1.19,0,0,0,1,.42,1.7,1.7,0,0,0,1.58-1Z"/><rect class="cls-4" x="166.31" y="24.05" width="95.79" height="197.6"/><path class="cls-3" d="M208.42,16.29A3.21,3.21,0,0,1,205,19.58a3.91,3.91,0,0,1-3.7-2.2l1.11-.84A2.76,2.76,0,0,0,205,18.23a2,2,0,0,0,1.37-.49,1.81,1.81,0,0,0,.57-1.45,2.54,2.54,0,0,0-1-1.71l-2.89-2.69A3.74,3.74,0,0,1,201.85,9a3.11,3.11,0,0,1,3.31-3.23,3.78,3.78,0,0,1,3.26,1.84l-1.15.9a2.29,2.29,0,0,0-2.1-1.38,1.9,1.9,0,0,0-1.3.45A1.76,1.76,0,0,0,203.34,9a2.32,2.32,0,0,0,.79,1.74L207,13.44A3.89,3.89,0,0,1,208.42,16.29Z"/><path class="cls-3" d="M217.21,14.74H212V15a4.05,4.05,0,0,0,.57,2.56,1.93,1.93,0,0,0,1.52.63,2.22,2.22,0,0,0,2-1.24l1.21.77A3.63,3.63,0,0,1,214,19.58a3.22,3.22,0,0,1-2.5-1.09,5,5,0,0,1-1-3.45V13.83a5.07,5.07,0,0,1,1-3.46,3.12,3.12,0,0,1,2.37-1.09,3.17,3.17,0,0,1,2.42,1,4.79,4.79,0,0,1,.93,3.29Zm-1.49-1.32a3.4,3.4,0,0,0-.53-2.15,1.65,1.65,0,0,0-1.33-.64,1.72,1.72,0,0,0-1.32.64,3.33,3.33,0,0,0-.54,2.15Z"/><path class="cls-3" d="M226.72,11.14l-1.3.58a1.53,1.53,0,0,0-1.49-1.09c-1.46,0-2.19,1.37-2.19,4.09v4.69h-1.5V9.47h1.5v1.59a2.69,2.69,0,0,1,2.43-1.78A2.61,2.61,0,0,1,226.72,11.14Z"/><path class="cls-3" d="M232.72,19.41H231l-1.72-5.2a18,18,0,0,1-1-4l0-.71h1.49l.05.71a17.83,17.83,0,0,0,.85,3.82l1.21,4,1.22-4a18.47,18.47,0,0,0,.85-3.82l0-.71h1.5l-.05.71a17.87,17.87,0,0,1-1,4Z"/><path class="cls-3" d="M244.21,14.74H239V15a4.05,4.05,0,0,0,.57,2.56,1.93,1.93,0,0,0,1.52.63,2.22,2.22,0,0,0,2-1.24l1.21.77A3.63,3.63,0,0,1,241,19.58a3.22,3.22,0,0,1-2.5-1.09,5,5,0,0,1-1-3.45V13.83a5.07,5.07,0,0,1,1-3.46,3.12,3.12,0,0,1,2.37-1.09,3.17,3.17,0,0,1,2.42,1,4.79,4.79,0,0,1,.93,3.29Zm-1.49-1.32a3.4,3.4,0,0,0-.53-2.15,1.65,1.65,0,0,0-1.33-.64,1.72,1.72,0,0,0-1.32.64,3.33,3.33,0,0,0-.54,2.15Z"/><path class="cls-3" d="M253.72,11.14l-1.3.58a1.53,1.53,0,0,0-1.49-1.09c-1.46,0-2.19,1.37-2.19,4.09v4.69h-1.5V9.47h1.5v1.59a2.69,2.69,0,0,1,2.43-1.78A2.61,2.61,0,0,1,253.72,11.14Z"/><path class="cls-3" d="M171.82,40.61v.5h-1v-.5a20.78,20.78,0,0,1,.77-4.33l1-4.12h1.13l1,4.12a20.78,20.78,0,0,1,.77,4.33v.5h-1v-.5a10.38,10.38,0,0,0-.17-1.6H172A11.54,11.54,0,0,0,171.82,40.61Zm1.37-6.86-.75,3.09q-.18.72-.3,1.32h2.08c-.08-.4-.18-.84-.29-1.32Z"/><path class="cls-3" d="M181.51,38.25a3.45,3.45,0,0,1-.6,2.27,1.72,1.72,0,0,1-1.33.7,1.67,1.67,0,0,1-1.54-.93v2.88h-1v-8.7h1v.79a1.67,1.67,0,0,1,1.54-.91,1.74,1.74,0,0,1,1.33.69,3.49,3.49,0,0,1,.6,2.29Zm-1-.92a3,3,0,0,0-.32-1.62,1,1,0,0,0-.83-.46c-.65,0-1.09.46-1.29,1.37v2.32q.3,1.38,1.29,1.38a1,1,0,0,0,.83-.46,3,3,0,0,0,.32-1.61Z"/><path class="cls-3" d="M187.51,38.25a3.45,3.45,0,0,1-.6,2.27,1.72,1.72,0,0,1-1.33.7,1.67,1.67,0,0,1-1.54-.93v2.88h-1v-8.7h1v.79a1.67,1.67,0,0,1,1.54-.91,1.74,1.74,0,0,1,1.33.69,3.49,3.49,0,0,1,.6,2.29Zm-1-.92a3,3,0,0,0-.32-1.62,1,1,0,0,0-.83-.46c-.65,0-1.09.46-1.29,1.37v2.32q.3,1.38,1.29,1.38a1,1,0,0,0,.83-.46,3,3,0,0,0,.32-1.61Z"/><path class="cls-3" d="M191.37,41.11V33.37l-1.68,1.31-.45-.76,2.24-1.76h.89v9Z"/><path class="cls-3" d="M183.82,55v.5h-1V55a20.78,20.78,0,0,1,.77-4.33l1-4.12h1.13l1,4.12a20.78,20.78,0,0,1,.77,4.33v.5h-1V55a10.38,10.38,0,0,0-.17-1.6H184A11.54,11.54,0,0,0,183.82,55Zm1.37-6.86-.75,3.09q-.18.72-.3,1.32h2.08c-.08-.4-.18-.84-.29-1.32Z"/><path class="cls-3" d="M193.51,52.65a3.45,3.45,0,0,1-.6,2.27,1.72,1.72,0,0,1-1.33.7,1.67,1.67,0,0,1-1.54-.93v2.88h-1v-8.7h1v.79a1.67,1.67,0,0,1,1.54-.91,1.74,1.74,0,0,1,1.33.69,3.49,3.49,0,0,1,.6,2.29Zm-1-.92a3,3,0,0,0-.32-1.62,1,1,0,0,0-.83-.46c-.65,0-1.09.46-1.29,1.37v2.32q.3,1.38,1.29,1.38a1,1,0,0,0,.83-.46,3,3,0,0,0,.32-1.61Z"/><path class="cls-3" d="M199.51,52.65a3.45,3.45,0,0,1-.6,2.27,1.72,1.72,0,0,1-1.33.7,1.67,1.67,0,0,1-1.54-.93v2.88h-1v-8.7h1v.79a1.67,1.67,0,0,1,1.54-.91,1.74,1.74,0,0,1,1.33.69,3.49,3.49,0,0,1,.6,2.29Zm-1-.92a3,3,0,0,0-.32-1.62,1,1,0,0,0-.83-.46c-.65,0-1.09.46-1.29,1.37v2.32q.3,1.38,1.29,1.38a1,1,0,0,0,.83-.46,3,3,0,0,0,.32-1.61Z"/><path class="cls-3" d="M203.37,55.51V47.77l-1.68,1.31-.45-.76,2.24-1.76h.89v8.95Z"/><path class="cls-3" d="M211.56,53.42A2.18,2.18,0,0,1,211,55a2.21,2.21,0,0,1-1.68.65,2.6,2.6,0,0,1-2.47-1.47l.74-.56a1.85,1.85,0,0,0,1.72,1.13,1.32,1.32,0,0,0,.91-.33,1.18,1.18,0,0,0,.38-1,1.74,1.74,0,0,0-.65-1.15L208,50.49a2.48,2.48,0,0,1-.8-1.9,2.06,2.06,0,0,1,2.21-2.15,2.52,2.52,0,0,1,2.17,1.22l-.77.6a1.53,1.53,0,0,0-1.4-.92,1.28,1.28,0,0,0-.87.3,1.2,1.2,0,0,0-.35,1,1.52,1.52,0,0,0,.53,1.15l1.91,1.78A2.63,2.63,0,0,1,211.56,53.42Z"/><path class="cls-3" d="M217.42,52.39h-3.48v.2a2.69,2.69,0,0,0,.38,1.7,1.31,1.31,0,0,0,1,.43,1.46,1.46,0,0,0,1.3-.83l.81.51a2.42,2.42,0,0,1-2.18,1.22,2.15,2.15,0,0,1-1.67-.73,3.4,3.4,0,0,1-.65-2.3v-.8a3.43,3.43,0,0,1,.65-2.31,2.06,2.06,0,0,1,1.59-.73,2.1,2.1,0,0,1,1.6.67,3.16,3.16,0,0,1,.63,2.2Zm-1-.88a2.25,2.25,0,0,0-.35-1.44,1.08,1.08,0,0,0-.88-.42,1.11,1.11,0,0,0-.88.42,2.18,2.18,0,0,0-.37,1.44Z"/><path class="cls-3" d="M223.68,54.4a2.43,2.43,0,0,1-2.18,1.22,2.12,2.12,0,0,1-1.67-.73,3.34,3.34,0,0,1-.65-2.3v-.82a3.35,3.35,0,0,1,.65-2.29,2.12,2.12,0,0,1,1.67-.73A2.42,2.42,0,0,1,223.68,50l-.81.5a1.47,1.47,0,0,0-1.31-.83,1.29,1.29,0,0,0-1,.42,2.71,2.71,0,0,0-.38,1.7v.82a2.67,2.67,0,0,0,.38,1.7,1.3,1.3,0,0,0,1,.43,1.47,1.47,0,0,0,1.31-.83Z"/><path class="cls-3" d="M229.76,50l-.87.39a1,1,0,0,0-1-.73c-1,0-1.46.91-1.46,2.73v3.13h-1V48.87h1v1.06a1.79,1.79,0,0,1,1.62-1.18A1.74,1.74,0,0,1,229.76,50Z"/><path class="cls-3" d="M235.42,52.39h-3.48v.2a2.69,2.69,0,0,0,.38,1.7,1.31,1.31,0,0,0,1,.43,1.46,1.46,0,0,0,1.3-.83l.81.51a2.42,2.42,0,0,1-2.18,1.22,2.15,2.15,0,0,1-1.67-.73,3.4,3.4,0,0,1-.65-2.3v-.8a3.43,3.43,0,0,1,.65-2.31,2.06,2.06,0,0,1,1.59-.73,2.1,2.1,0,0,1,1.6.67,3.16,3.16,0,0,1,.63,2.2Zm-1-.88a2.25,2.25,0,0,0-.35-1.44,1.08,1.08,0,0,0-.88-.42,1.11,1.11,0,0,0-.88.42,2.18,2.18,0,0,0-.37,1.44Z"/><path class="cls-3" d="M241.73,54.58a2.14,2.14,0,0,1-1.86,1,1.78,1.78,0,0,1-1.3-.53,2.09,2.09,0,0,1-.52-1.55V49.72h-1.11v-.85h1.11V46.56h1v2.31h2.23v.85h-2.23v3.89a1.22,1.22,0,0,0,.23.82.8.8,0,0,0,.65.29,1.13,1.13,0,0,0,1-.69Z"/><path class="cls-3" d="M245.37,55.51V47.77l-1.68,1.31-.45-.76,2.24-1.76h.89v8.95Z"/><path class="cls-3" d="M183.82,69.41v.5h-1v-.5a20.78,20.78,0,0,1,.77-4.33l1-4.12h1.13l1,4.12a20.78,20.78,0,0,1,.77,4.33v.5h-1v-.5a10.38,10.38,0,0,0-.17-1.6H184A11.54,11.54,0,0,0,183.82,69.41Zm1.37-6.86-.75,3.09q-.18.72-.3,1.32h2.08c-.08-.4-.18-.84-.29-1.32Z"/><path class="cls-3" d="M193.51,67.05a3.45,3.45,0,0,1-.6,2.27,1.72,1.72,0,0,1-1.33.7,1.67,1.67,0,0,1-1.54-.93V72h-1v-8.7h1v.79a1.67,1.67,0,0,1,1.54-.91,1.74,1.74,0,0,1,1.33.69,3.49,3.49,0,0,1,.6,2.29Zm-1-.92a3,3,0,0,0-.32-1.62,1,1,0,0,0-.83-.46c-.65,0-1.09.46-1.29,1.37v2.32q.3,1.38,1.29,1.38a1,1,0,0,0,.83-.46,3,3,0,0,0,.32-1.61Z"/><path class="cls-3" d="M199.51,67.05a3.45,3.45,0,0,1-.6,2.27,1.72,1.72,0,0,1-1.33.7,1.67,1.67,0,0,1-1.54-.93V72h-1v-8.7h1v.79a1.67,1.67,0,0,1,1.54-.91,1.74,1.74,0,0,1,1.33.69,3.49,3.49,0,0,1,.6,2.29Zm-1-.92a3,3,0,0,0-.32-1.62,1,1,0,0,0-.83-.46c-.65,0-1.09.46-1.29,1.37v2.32q.3,1.38,1.29,1.38a1,1,0,0,0,.83-.46,3,3,0,0,0,.32-1.61Z"/><path class="cls-3" d="M203.37,69.91V62.17l-1.68,1.31-.45-.76L203.48,61h.89v8.95Z"/><path class="cls-3" d="M211.56,67.82a2.18,2.18,0,0,1-.6,1.55,2.21,2.21,0,0,1-1.68.65,2.6,2.6,0,0,1-2.47-1.47l.74-.56a1.85,1.85,0,0,0,1.72,1.13,1.32,1.32,0,0,0,.91-.33,1.18,1.18,0,0,0,.38-1,1.74,1.74,0,0,0-.65-1.15L208,64.89a2.48,2.48,0,0,1-.8-1.9,2.06,2.06,0,0,1,2.21-2.15,2.52,2.52,0,0,1,2.17,1.22l-.77.6a1.53,1.53,0,0,0-1.4-.92,1.28,1.28,0,0,0-.87.3,1.2,1.2,0,0,0-.35,1,1.52,1.52,0,0,0,.53,1.15l1.91,1.78A2.63,2.63,0,0,1,211.56,67.82Z"/><path class="cls-3" d="M217.42,66.79h-3.48V67a2.69,2.69,0,0,0,.38,1.7,1.31,1.31,0,0,0,1,.43,1.46,1.46,0,0,0,1.3-.83l.81.51A2.42,2.42,0,0,1,215.27,70a2.15,2.15,0,0,1-1.67-.73A3.4,3.4,0,0,1,213,67v-.8a3.43,3.43,0,0,1,.65-2.31,2.17,2.17,0,0,1,3.19-.06,3.16,3.16,0,0,1,.63,2.2Zm-1-.88a2.25,2.25,0,0,0-.35-1.44,1.08,1.08,0,0,0-.88-.42,1.11,1.11,0,0,0-.88.42,2.18,2.18,0,0,0-.37,1.44Z"/><path class="cls-3" d="M223.68,68.8A2.43,2.43,0,0,1,221.5,70a2.12,2.12,0,0,1-1.67-.73,3.34,3.34,0,0,1-.65-2.3v-.82a3.35,3.35,0,0,1,.65-2.29,2.12,2.12,0,0,1,1.67-.73,2.43,2.43,0,0,1,2.18,1.22l-.81.51a1.47,1.47,0,0,0-1.31-.83,1.29,1.29,0,0,0-1,.42,2.71,2.71,0,0,0-.38,1.7V67a2.67,2.67,0,0,0,.38,1.7,1.3,1.3,0,0,0,1,.43,1.47,1.47,0,0,0,1.31-.83Z"/><path class="cls-3" d="M229.76,64.39l-.87.39a1,1,0,0,0-1-.73c-1,0-1.46.91-1.46,2.73v3.13h-1V63.27h1v1.06a1.79,1.79,0,0,1,1.62-1.18A1.74,1.74,0,0,1,229.76,64.39Z"/><path class="cls-3" d="M235.42,66.79h-3.48V67a2.69,2.69,0,0,0,.38,1.7,1.31,1.31,0,0,0,1,.43,1.46,1.46,0,0,0,1.3-.83l.81.51A2.42,2.42,0,0,1,233.27,70a2.15,2.15,0,0,1-1.67-.73A3.4,3.4,0,0,1,231,67v-.8a3.43,3.43,0,0,1,.65-2.31,2.17,2.17,0,0,1,3.19-.06,3.16,3.16,0,0,1,.63,2.2Zm-1-.88a2.25,2.25,0,0,0-.35-1.44,1.08,1.08,0,0,0-.88-.42,1.11,1.11,0,0,0-.88.42,2.18,2.18,0,0,0-.37,1.44Z"/><path class="cls-3" d="M241.73,69a2.14,2.14,0,0,1-1.86,1,1.78,1.78,0,0,1-1.3-.53,2.09,2.09,0,0,1-.52-1.55V64.12h-1.11v-.85h1.11V61h1v2.31h2.23v.85h-2.23V68a1.22,1.22,0,0,0,.23.82.8.8,0,0,0,.65.29,1.13,1.13,0,0,0,1-.69Z"/><path class="cls-3" d="M247.37,69.91h-4.14v-.85A5.15,5.15,0,0,1,244.55,66l1.33-1.7a2,2,0,0,0,.5-1.25,1.36,1.36,0,0,0-.32-1,1.18,1.18,0,0,0-.87-.32c-.63,0-1.09.38-1.37,1.15l-.82-.57a2.38,2.38,0,0,1,2.19-1.48,2.15,2.15,0,0,1,2.18,2.2A3.07,3.07,0,0,1,246.6,65l-1.3,1.68a4.13,4.13,0,0,0-1.08,2.42h3.15Z"/><path class="cls-3" d="M171.82,83.81v.5h-1v-.5a20.78,20.78,0,0,1,.77-4.33l1-4.11h1.13l1,4.11a20.78,20.78,0,0,1,.77,4.33v.5h-1v-.5a10.38,10.38,0,0,0-.17-1.6H172A11.54,11.54,0,0,0,171.82,83.81ZM173.19,77,172.44,80c-.12.48-.22.92-.3,1.33h2.08c-.08-.41-.18-.85-.29-1.33Z"/><path class="cls-3" d="M181.51,81.45a3.45,3.45,0,0,1-.6,2.27,1.72,1.72,0,0,1-1.33.7,1.67,1.67,0,0,1-1.54-.93v2.88h-1v-8.7h1v.79a1.67,1.67,0,0,1,1.54-.91,1.74,1.74,0,0,1,1.33.69,3.49,3.49,0,0,1,.6,2.29Zm-1-.92a3,3,0,0,0-.32-1.62,1,1,0,0,0-.83-.46c-.65,0-1.09.46-1.29,1.37v2.32q.3,1.38,1.29,1.38a1,1,0,0,0,.83-.46,3,3,0,0,0,.32-1.61Z"/><path class="cls-3" d="M187.51,81.45a3.45,3.45,0,0,1-.6,2.27,1.72,1.72,0,0,1-1.33.7,1.67,1.67,0,0,1-1.54-.93v2.88h-1v-8.7h1v.79a1.67,1.67,0,0,1,1.54-.91,1.74,1.74,0,0,1,1.33.69,3.49,3.49,0,0,1,.6,2.29Zm-1-.92a3,3,0,0,0-.32-1.62,1,1,0,0,0-.83-.46c-.65,0-1.09.46-1.29,1.37v2.32q.3,1.38,1.29,1.38a1,1,0,0,0,.83-.46,3,3,0,0,0,.32-1.61Z"/><path class="cls-3" d="M193.37,84.31h-4.14v-.85a5.17,5.17,0,0,1,1.32-3.07l1.33-1.7a2,2,0,0,0,.5-1.25,1.36,1.36,0,0,0-.32-1,1.18,1.18,0,0,0-.87-.32c-.63,0-1.09.39-1.37,1.15l-.82-.57a2.38,2.38,0,0,1,2.19-1.48,2.15,2.15,0,0,1,2.18,2.21,3.07,3.07,0,0,1-.77,1.91L191.3,81a4.15,4.15,0,0,0-1.08,2.42h3.15Z"/><path class="cls-3" d="M183.82,98.21v.5h-1v-.5a20.78,20.78,0,0,1,.77-4.33l1-4.11h1.13l1,4.11a20.78,20.78,0,0,1,.77,4.33v.5h-1v-.5a10.38,10.38,0,0,0-.17-1.6H184A11.54,11.54,0,0,0,183.82,98.21Zm1.37-6.86-.75,3.09c-.12.48-.22.92-.3,1.33h2.08c-.08-.41-.18-.85-.29-1.33Z"/><path class="cls-3" d="M193.51,95.85a3.45,3.45,0,0,1-.6,2.27,1.72,1.72,0,0,1-1.33.7,1.67,1.67,0,0,1-1.54-.93v2.88h-1v-8.7h1v.79a1.67,1.67,0,0,1,1.54-.91,1.74,1.74,0,0,1,1.33.69,3.49,3.49,0,0,1,.6,2.29Zm-1-.92a3,3,0,0,0-.32-1.62,1,1,0,0,0-.83-.46c-.65,0-1.09.46-1.29,1.37v2.32q.3,1.38,1.29,1.38a1,1,0,0,0,.83-.46,3,3,0,0,0,.32-1.61Z"/><path class="cls-3" d="M199.51,95.85a3.45,3.45,0,0,1-.6,2.27,1.72,1.72,0,0,1-1.33.7,1.67,1.67,0,0,1-1.54-.93v2.88h-1v-8.7h1v.79a1.67,1.67,0,0,1,1.54-.91,1.74,1.74,0,0,1,1.33.69,3.49,3.49,0,0,1,.6,2.29Zm-1-.92a3,3,0,0,0-.32-1.62,1,1,0,0,0-.83-.46c-.65,0-1.09.46-1.29,1.37v2.32q.3,1.38,1.29,1.38a1,1,0,0,0,.83-.46,3,3,0,0,0,.32-1.61Z"/><path class="cls-3" d="M205.37,98.71h-4.14v-.85a5.15,5.15,0,0,1,1.32-3.07l1.33-1.7a2,2,0,0,0,.5-1.25,1.36,1.36,0,0,0-.32-1,1.18,1.18,0,0,0-.87-.32c-.63,0-1.09.39-1.37,1.15l-.82-.57a2.38,2.38,0,0,1,2.19-1.48,2.15,2.15,0,0,1,2.18,2.21,3.07,3.07,0,0,1-.77,1.91l-1.3,1.68a4.13,4.13,0,0,0-1.08,2.42h3.15Z"/><path class="cls-3" d="M211.56,96.62a2.18,2.18,0,0,1-.6,1.55,2.21,2.21,0,0,1-1.68.65,2.6,2.6,0,0,1-2.47-1.47l.74-.56a1.85,1.85,0,0,0,1.72,1.13,1.32,1.32,0,0,0,.91-.33,1.18,1.18,0,0,0,.38-1,1.74,1.74,0,0,0-.65-1.15L208,93.69a2.48,2.48,0,0,1-.8-1.9,2.06,2.06,0,0,1,2.21-2.15,2.52,2.52,0,0,1,2.17,1.22l-.77.6a1.53,1.53,0,0,0-1.4-.92,1.28,1.28,0,0,0-.87.3,1.2,1.2,0,0,0-.35,1,1.52,1.52,0,0,0,.53,1.15l1.91,1.78A2.63,2.63,0,0,1,211.56,96.62Z"/><path class="cls-3" d="M217.42,95.59h-3.48v.2a2.69,2.69,0,0,0,.38,1.7,1.31,1.31,0,0,0,1,.43,1.46,1.46,0,0,0,1.3-.83l.81.51a2.42,2.42,0,0,1-2.18,1.22,2.15,2.15,0,0,1-1.67-.73,3.4,3.4,0,0,1-.65-2.3V95a3.43,3.43,0,0,1,.65-2.31,2.06,2.06,0,0,1,1.59-.73,2.1,2.1,0,0,1,1.6.67,3.16,3.16,0,0,1,.63,2.2Zm-1-.88a2.25,2.25,0,0,0-.35-1.44,1.08,1.08,0,0,0-.88-.42,1.11,1.11,0,0,0-.88.42,2.18,2.18,0,0,0-.37,1.44Z"/><path class="cls-3" d="M223.68,97.6a2.43,2.43,0,0,1-2.18,1.22,2.12,2.12,0,0,1-1.67-.73,3.34,3.34,0,0,1-.65-2.3V95a3.35,3.35,0,0,1,.65-2.29A2.12,2.12,0,0,1,221.5,92a2.42,2.42,0,0,1,2.18,1.23l-.81.5a1.47,1.47,0,0,0-1.31-.83,1.29,1.29,0,0,0-1,.42,2.71,2.71,0,0,0-.38,1.7v.82a2.67,2.67,0,0,0,.38,1.7,1.3,1.3,0,0,0,1,.43,1.47,1.47,0,0,0,1.31-.83Z"/><path class="cls-3" d="M229.76,93.19l-.87.39a1,1,0,0,0-1-.73c-1,0-1.46.91-1.46,2.73v3.13h-1V92.07h1v1.06A1.8,1.8,0,0,1,228.06,92,1.74,1.74,0,0,1,229.76,93.19Z"/><path class="cls-3" d="M235.42,95.59h-3.48v.2a2.69,2.69,0,0,0,.38,1.7,1.31,1.31,0,0,0,1,.43,1.46,1.46,0,0,0,1.3-.83l.81.51a2.42,2.42,0,0,1-2.18,1.22,2.15,2.15,0,0,1-1.67-.73,3.4,3.4,0,0,1-.65-2.3V95a3.43,3.43,0,0,1,.65-2.31,2.06,2.06,0,0,1,1.59-.73,2.1,2.1,0,0,1,1.6.67,3.16,3.16,0,0,1,.63,2.2Zm-1-.88a2.25,2.25,0,0,0-.35-1.44,1.08,1.08,0,0,0-.88-.42,1.11,1.11,0,0,0-.88.42,2.18,2.18,0,0,0-.37,1.44Z"/><path class="cls-3" d="M241.73,97.78a2.14,2.14,0,0,1-1.86,1,1.78,1.78,0,0,1-1.3-.53,2.09,2.09,0,0,1-.52-1.55V92.92h-1.11v-.85h1.11v-2.3h1v2.3h2.23v.85h-2.23v3.89a1.22,1.22,0,0,0,.23.82.8.8,0,0,0,.65.29,1.13,1.13,0,0,0,1-.69Z"/><path class="cls-3" d="M245.37,98.71V91l-1.68,1.31-.45-.76,2.24-1.75h.89v8.94Z"/><path class="cls-3" d="M175.34,110.42a3,3,0,0,1-.63,2.12,2,2,0,0,1-1.52.68,2,2,0,0,1-1.53-.68,3,3,0,0,1-.62-2.12v-6.26h1v6.26a2.43,2.43,0,0,0,.33,1.5,1.05,1.05,0,0,0,.82.4,1.07,1.07,0,0,0,.83-.4,2.43,2.43,0,0,0,.33-1.5v-6.26h1Z"/><path class="cls-3" d="M179.21,112.34a1.33,1.33,0,0,0,.94-.3.93.93,0,0,0,.32-.71,1,1,0,0,0-.71-.91l-1.28-.58a1.74,1.74,0,0,1-.6-3,2.17,2.17,0,0,1,1.51-.53,2.23,2.23,0,0,1,2,1.23l-.81.49a1.26,1.26,0,0,0-1.23-.83,1.16,1.16,0,0,0-.8.25.81.81,0,0,0-.3.64c0,.34.22.62.66.83l1.21.56a2,2,0,0,1,1.31,1.85,1.72,1.72,0,0,1-.61,1.29,2.38,2.38,0,0,1-1.66.56,2.55,2.55,0,0,1-2.29-1.36l.82-.49A1.58,1.58,0,0,0,179.21,112.34Z"/><path class="cls-3" d="M187.42,110h-3.48v.2a2.69,2.69,0,0,0,.38,1.7,1.31,1.31,0,0,0,1,.43,1.46,1.46,0,0,0,1.3-.83l.81.51a2.42,2.42,0,0,1-2.18,1.22,2.15,2.15,0,0,1-1.67-.73,3.4,3.4,0,0,1-.65-2.3v-.8a3.43,3.43,0,0,1,.65-2.31,2.06,2.06,0,0,1,1.59-.73,2.1,2.1,0,0,1,1.6.67,3.16,3.16,0,0,1,.63,2.2Zm-1-.88a2.25,2.25,0,0,0-.35-1.44,1.08,1.08,0,0,0-.88-.42,1.11,1.11,0,0,0-.88.42,2.18,2.18,0,0,0-.37,1.44Z"/><path class="cls-3" d="M193.76,107.59l-.87.39a1,1,0,0,0-1-.73c-1,0-1.46.91-1.46,2.73v3.13h-1v-6.64h1v1.06a1.8,1.8,0,0,1,1.62-1.18A1.74,1.74,0,0,1,193.76,107.59Z"/><path class="cls-3" d="M197.21,112.34a1.33,1.33,0,0,0,.94-.3.93.93,0,0,0,.32-.71,1,1,0,0,0-.71-.91l-1.28-.58a1.74,1.74,0,0,1-.6-3,2.17,2.17,0,0,1,1.51-.53,2.23,2.23,0,0,1,2,1.23l-.81.49a1.26,1.26,0,0,0-1.23-.83,1.16,1.16,0,0,0-.8.25.81.81,0,0,0-.3.64c0,.34.22.62.66.83l1.21.56a2,2,0,0,1,1.31,1.85,1.72,1.72,0,0,1-.61,1.29,2.38,2.38,0,0,1-1.66.56,2.55,2.55,0,0,1-2.29-1.36l.82-.49A1.58,1.58,0,0,0,197.21,112.34Z"/><path class="cls-3" d="M187.34,124.82a3,3,0,0,1-.63,2.12,2,2,0,0,1-1.52.68,2,2,0,0,1-1.53-.68,3,3,0,0,1-.62-2.12v-6.26h1v6.26a2.43,2.43,0,0,0,.33,1.5,1.05,1.05,0,0,0,.82.4,1.07,1.07,0,0,0,.83-.4,2.43,2.43,0,0,0,.33-1.5v-6.26h1Z"/><path class="cls-3" d="M191.21,126.74a1.33,1.33,0,0,0,.94-.3.93.93,0,0,0,.32-.71,1,1,0,0,0-.71-.91l-1.28-.58a1.74,1.74,0,0,1-.6-3,2.17,2.17,0,0,1,1.51-.53,2.23,2.23,0,0,1,2,1.23l-.81.49a1.26,1.26,0,0,0-1.23-.83,1.16,1.16,0,0,0-.8.25.81.81,0,0,0-.3.64c0,.34.22.62.66.83l1.21.56a2,2,0,0,1,1.31,1.85,1.72,1.72,0,0,1-.61,1.29,2.38,2.38,0,0,1-1.66.56,2.55,2.55,0,0,1-2.29-1.36l.82-.49A1.58,1.58,0,0,0,191.21,126.74Z"/><path class="cls-3" d="M199.42,124.39h-3.48v.2a2.69,2.69,0,0,0,.38,1.7,1.31,1.31,0,0,0,1,.43,1.46,1.46,0,0,0,1.3-.83l.81.51a2.42,2.42,0,0,1-2.18,1.22,2.15,2.15,0,0,1-1.67-.73,3.4,3.4,0,0,1-.65-2.3v-.8a3.43,3.43,0,0,1,.65-2.31,2.06,2.06,0,0,1,1.59-.73,2.1,2.1,0,0,1,1.6.67,3.16,3.16,0,0,1,.63,2.2Zm-1-.88a2.25,2.25,0,0,0-.35-1.44,1.08,1.08,0,0,0-.88-.42,1.11,1.11,0,0,0-.88.42,2.18,2.18,0,0,0-.37,1.44Z"/><path class="cls-3" d="M205.76,122l-.87.39a1,1,0,0,0-1-.73c-1,0-1.46.91-1.46,2.73v3.13h-1v-6.64h1v1.06a1.79,1.79,0,0,1,1.62-1.18A1.74,1.74,0,0,1,205.76,122Z"/><path class="cls-3" d="M209.37,127.51v-7.74l-1.68,1.31-.45-.76,2.24-1.76h.89v9Z"/><path class="cls-3" d="M196.31,141.91h-1V133h2a2.37,2.37,0,0,1,1.8.64,2.45,2.45,0,0,1,.61,1.73,2.49,2.49,0,0,1-.67,1.86,2.42,2.42,0,0,1-1.74.65h-1Zm0-4.91h.95a1.44,1.44,0,0,0,1-.35,1.87,1.87,0,0,0,.34-1.31,1.78,1.78,0,0,0-.31-1.18,1.42,1.42,0,0,0-1.07-.35h-.95Z"/><path class="cls-3" d="M205.34,141.91h-1v-.86a1.86,1.86,0,0,1-1.55,1,1.62,1.62,0,0,1-1.24-.56,3,3,0,0,1-.51-2v-4.19h1v4.19a2.24,2.24,0,0,0,.27,1.31.9.9,0,0,0,.74.35c.66,0,1.09-.44,1.3-1.3v-4.55h1Z"/><path class="cls-3" d="M211.51,139.05a3.59,3.59,0,0,1-.57,2.28,1.71,1.71,0,0,1-1.36.69,1.67,1.67,0,0,1-1.54-.91v.8h-1V133h1v3.11a1.67,1.67,0,0,1,1.54-.93,1.69,1.69,0,0,1,1.36.7,3.59,3.59,0,0,1,.57,2.28Zm-1,0v-.92a3.3,3.3,0,0,0-.29-1.62,1,1,0,0,0-.86-.46c-.66,0-1.09.44-1.29,1.33v2.42c.2.88.64,1.32,1.29,1.32a1,1,0,0,0,.86-.46A3.25,3.25,0,0,0,210.48,139.05Z"/><path class="cls-3" d="M217.28,141.91h-4.19v-.85h1.6v-7.25h-1.14V133h2.13v8.09h1.6Z"/><path class="cls-3" d="M223.32,141.91h-4.17v-.85h1.59v-4.94H219.6v-.85h2.14v5.79h1.58Zm-1.5-8.89a.75.75,0,0,1-.22.55.74.74,0,0,1-.55.22.72.72,0,0,1-.54-.22.75.75,0,0,1-.22-.55.73.73,0,0,1,.22-.54.72.72,0,0,1,.54-.22.75.75,0,0,1,.77.76Z"/><path class="cls-3" d="M229.68,140.81A2.44,2.44,0,0,1,227.5,142a2.12,2.12,0,0,1-1.67-.73,3.34,3.34,0,0,1-.65-2.3v-.82a3.35,3.35,0,0,1,.65-2.29,2.12,2.12,0,0,1,1.67-.73,2.42,2.42,0,0,1,2.18,1.23l-.81.51a1.46,1.46,0,0,0-1.31-.84,1.27,1.27,0,0,0-1,.43,2.66,2.66,0,0,0-.38,1.69V139a2.67,2.67,0,0,0,.38,1.7,1.27,1.27,0,0,0,1,.43,1.47,1.47,0,0,0,1.31-.83Z"/><path class="cls-3" d="M238.31,133v4.27l1.52-2.24a4.25,4.25,0,0,0,.82-1.71l0-.32h1l-.05.43a6.08,6.08,0,0,1-1,2.13l-.92,1.37,1.32,2.25a6.05,6.05,0,0,1,.91,2.36l.06.4h-1l0-.31a5.17,5.17,0,0,0-.72-2l-1.2-2-.7,1v3.25h-1V133Z"/><path class="cls-3" d="M247.42,138.79h-3.48v.2a2.69,2.69,0,0,0,.38,1.7,1.27,1.27,0,0,0,1,.43,1.46,1.46,0,0,0,1.3-.83l.81.52a2.43,2.43,0,0,1-2.18,1.21,2.15,2.15,0,0,1-1.67-.73A3.4,3.4,0,0,1,243,139v-.8a3.44,3.44,0,0,1,.65-2.31,2.06,2.06,0,0,1,1.59-.73,2.1,2.1,0,0,1,1.6.67,3.16,3.16,0,0,1,.63,2.2Zm-1-.88a2.2,2.2,0,0,0-.35-1.43,1.07,1.07,0,0,0-.88-.43,1.09,1.09,0,0,0-.88.43,2.14,2.14,0,0,0-.37,1.43Z"/><path class="cls-3" d="M250,143l.76-2-1.37-3.38a6.8,6.8,0,0,1-.54-1.84l0-.51h1l0,.48a6.7,6.7,0,0,0,.46,1.58l.92,2.51.92-2.47a7.94,7.94,0,0,0,.45-1.62l0-.48h1l0,.51a7.07,7.07,0,0,1-.52,1.84l-2.12,5.49a2,2,0,0,0-.13.65l0,.22h-1v-.22A2.92,2.92,0,0,1,250,143Z"/><path class="cls-3" d="M195.82,155.81v.5h-1v-.5a20.78,20.78,0,0,1,.77-4.33l1-4.12h1.13l1,4.12a20.78,20.78,0,0,1,.77,4.33v.5h-1v-.5a10.38,10.38,0,0,0-.17-1.6H196A11.54,11.54,0,0,0,195.82,155.81Zm1.37-6.86-.75,3.09q-.18.72-.3,1.32h2.08c-.08-.4-.18-.84-.29-1.32Z"/><path class="cls-3" d="M205.51,153.45a3.45,3.45,0,0,1-.6,2.27,1.75,1.75,0,0,1-1.33.7,1.67,1.67,0,0,1-1.54-.93v2.88h-1v-8.7h1v.79a1.67,1.67,0,0,1,1.54-.91,1.74,1.74,0,0,1,1.33.69,3.49,3.49,0,0,1,.6,2.29Zm-1-.92a3,3,0,0,0-.32-1.62,1,1,0,0,0-.83-.46c-.65,0-1.09.46-1.29,1.37v2.32q.3,1.38,1.29,1.38a1,1,0,0,0,.83-.46,3,3,0,0,0,.32-1.61Z"/><path class="cls-3" d="M211.51,153.45a3.45,3.45,0,0,1-.6,2.27,1.75,1.75,0,0,1-1.33.7,1.67,1.67,0,0,1-1.54-.93v2.88h-1v-8.7h1v.79a1.67,1.67,0,0,1,1.54-.91,1.74,1.74,0,0,1,1.33.69,3.49,3.49,0,0,1,.6,2.29Zm-1-.92a3,3,0,0,0-.32-1.62,1,1,0,0,0-.83-.46c-.65,0-1.09.46-1.29,1.37v2.32q.3,1.38,1.29,1.38a1,1,0,0,0,.83-.46,3,3,0,0,0,.32-1.61Z"/><path class="cls-3" d="M215.37,156.31v-7.74l-1.68,1.31-.45-.76,2.24-1.76h.89v8.95Z"/><path class="cls-3" d="M187.34,168a3,3,0,0,1-.63,2.12,2,2,0,0,1-1.52.68,2,2,0,0,1-1.53-.68A3,3,0,0,1,183,168v-6.25h1V168a2.43,2.43,0,0,0,.33,1.5,1.05,1.05,0,0,0,.82.4,1.07,1.07,0,0,0,.83-.4,2.43,2.43,0,0,0,.33-1.5v-6.25h1Z"/><path class="cls-3" d="M191.21,169.94a1.33,1.33,0,0,0,.94-.3.93.93,0,0,0,.32-.71,1,1,0,0,0-.71-.91l-1.28-.58a1.74,1.74,0,0,1-.6-3,2.17,2.17,0,0,1,1.51-.53,2.23,2.23,0,0,1,2,1.23l-.81.49a1.26,1.26,0,0,0-1.23-.83,1.16,1.16,0,0,0-.8.25.83.83,0,0,0-.3.64c0,.34.22.62.66.83l1.21.56a2,2,0,0,1,1.31,1.85,1.72,1.72,0,0,1-.61,1.29,2.38,2.38,0,0,1-1.66.56,2.55,2.55,0,0,1-2.29-1.36l.82-.49A1.58,1.58,0,0,0,191.21,169.94Z"/><path class="cls-3" d="M199.42,167.59h-3.48v.2a2.69,2.69,0,0,0,.38,1.7,1.31,1.31,0,0,0,1,.43,1.46,1.46,0,0,0,1.3-.83l.81.51a2.42,2.42,0,0,1-2.18,1.22,2.15,2.15,0,0,1-1.67-.73,3.4,3.4,0,0,1-.65-2.3V167a3.43,3.43,0,0,1,.65-2.31,2.06,2.06,0,0,1,1.59-.73,2.1,2.1,0,0,1,1.6.67,3.16,3.16,0,0,1,.63,2.2Zm-1-.88a2.25,2.25,0,0,0-.35-1.44,1.08,1.08,0,0,0-.88-.42,1.11,1.11,0,0,0-.88.42,2.18,2.18,0,0,0-.37,1.44Z"/><path class="cls-3" d="M205.76,165.19l-.87.39a1,1,0,0,0-1-.73c-1,0-1.46.91-1.46,2.73v3.13h-1v-6.64h1v1.06a1.8,1.8,0,0,1,1.62-1.18A1.74,1.74,0,0,1,205.76,165.19Z"/><path class="cls-3" d="M211.37,170.71h-4.14v-.85a5.15,5.15,0,0,1,1.32-3.07l1.33-1.7a2,2,0,0,0,.5-1.25,1.36,1.36,0,0,0-.32-1,1.18,1.18,0,0,0-.87-.32c-.63,0-1.09.39-1.37,1.15l-.82-.57a2.38,2.38,0,0,1,2.19-1.48,2.15,2.15,0,0,1,2.18,2.21,3.07,3.07,0,0,1-.77,1.91l-1.3,1.68a4.13,4.13,0,0,0-1.08,2.42h3.15Z"/><path class="cls-3" d="M196.31,185.11h-1v-9h2a2.37,2.37,0,0,1,1.8.65,2.45,2.45,0,0,1,.61,1.73,2.49,2.49,0,0,1-.67,1.86,2.42,2.42,0,0,1-1.74.65h-1Zm0-4.91h.95a1.44,1.44,0,0,0,1-.35,1.89,1.89,0,0,0,.34-1.31,1.78,1.78,0,0,0-.31-1.18,1.42,1.42,0,0,0-1.07-.35h-.95Z"/><path class="cls-3" d="M205.34,185.11h-1v-.87a1.85,1.85,0,0,1-1.55,1,1.62,1.62,0,0,1-1.24-.56,3,3,0,0,1-.51-2v-4.19h1v4.19a2.24,2.24,0,0,0,.27,1.31.89.89,0,0,0,.74.34c.66,0,1.09-.43,1.3-1.29v-4.55h1Z"/><path class="cls-3" d="M211.51,182.25a3.61,3.61,0,0,1-.57,2.28,1.71,1.71,0,0,1-1.36.69,1.69,1.69,0,0,1-1.54-.91v.8h-1v-9h1v3.12a1.67,1.67,0,0,1,1.54-.93,1.69,1.69,0,0,1,1.36.7,3.59,3.59,0,0,1,.57,2.28Zm-1,0v-.92a3.3,3.3,0,0,0-.29-1.62,1,1,0,0,0-.86-.46c-.66,0-1.09.44-1.29,1.33V183c.2.88.64,1.31,1.29,1.31a1,1,0,0,0,.86-.45A3.25,3.25,0,0,0,210.48,182.25Z"/><path class="cls-3" d="M217.28,185.11h-4.19v-.85h1.6V177h-1.14v-.85h2.13v8.1h1.6Z"/><path class="cls-3" d="M223.32,185.11h-4.17v-.85h1.59v-4.94H219.6v-.85h2.14v5.79h1.58Zm-1.5-8.89a.77.77,0,0,1-.22.55.74.74,0,0,1-.55.22.72.72,0,0,1-.54-.22.77.77,0,0,1-.22-.55.73.73,0,0,1,.22-.54.72.72,0,0,1,.54-.22.75.75,0,0,1,.77.76Z"/><path class="cls-3" d="M229.68,184a2.43,2.43,0,0,1-2.18,1.22,2.12,2.12,0,0,1-1.67-.73,3.34,3.34,0,0,1-.65-2.3v-.82a3.35,3.35,0,0,1,.65-2.29,2.12,2.12,0,0,1,1.67-.73,2.43,2.43,0,0,1,2.18,1.22l-.81.51a1.47,1.47,0,0,0-1.31-.83,1.29,1.29,0,0,0-1,.42,2.71,2.71,0,0,0-.38,1.7v.82a2.67,2.67,0,0,0,.38,1.7,1.29,1.29,0,0,0,1,.42,1.46,1.46,0,0,0,1.31-.82Z"/><path class="cls-3" d="M238.31,176.16v4.28l1.52-2.24a4.31,4.31,0,0,0,.82-1.71l0-.33h1l-.05.44a6.08,6.08,0,0,1-1,2.13l-.92,1.37,1.32,2.25a6.05,6.05,0,0,1,.91,2.36l.06.4h-1l0-.31a5.17,5.17,0,0,0-.72-2l-1.2-2-.7,1v3.25h-1v-9Z"/><path class="cls-3" d="M247.42,182h-3.48v.2a2.69,2.69,0,0,0,.38,1.7,1.3,1.3,0,0,0,1,.42,1.45,1.45,0,0,0,1.3-.82l.81.51a2.42,2.42,0,0,1-2.18,1.22,2.15,2.15,0,0,1-1.67-.73,3.4,3.4,0,0,1-.65-2.3v-.8a3.43,3.43,0,0,1,.65-2.31,2.17,2.17,0,0,1,3.19-.06,3.16,3.16,0,0,1,.63,2.2Zm-1-.88a2.25,2.25,0,0,0-.35-1.44,1.08,1.08,0,0,0-.88-.42,1.11,1.11,0,0,0-.88.42,2.18,2.18,0,0,0-.37,1.44Z"/><path class="cls-3" d="M250,186.18l.76-2-1.37-3.38a6.9,6.9,0,0,1-.54-1.84l0-.51h1l0,.48a6.83,6.83,0,0,0,.46,1.58l.92,2.51.92-2.48a7.74,7.74,0,0,0,.45-1.61l0-.48h1l0,.51a7.07,7.07,0,0,1-.52,1.84l-2.12,5.49a2,2,0,0,0-.13.65l0,.21h-1V187A2.92,2.92,0,0,1,250,186.18Z"/><path class="cls-3" d="M195.82,199v.5h-1V199a20.78,20.78,0,0,1,.77-4.33l1-4.12h1.13l1,4.12a20.78,20.78,0,0,1,.77,4.33v.5h-1V199a10.38,10.38,0,0,0-.17-1.6H196A11.54,11.54,0,0,0,195.82,199Zm1.37-6.86-.75,3.09q-.18.72-.3,1.32h2.08c-.08-.4-.18-.84-.29-1.32Z"/><path class="cls-3" d="M205.51,196.65a3.45,3.45,0,0,1-.6,2.27,1.72,1.72,0,0,1-1.33.7,1.67,1.67,0,0,1-1.54-.93v2.88h-1v-8.7h1v.79a1.67,1.67,0,0,1,1.54-.91,1.74,1.74,0,0,1,1.33.69,3.49,3.49,0,0,1,.6,2.29Zm-1-.92a3,3,0,0,0-.32-1.62,1,1,0,0,0-.83-.46c-.65,0-1.09.46-1.29,1.37v2.32q.3,1.38,1.29,1.38a1,1,0,0,0,.83-.46,3,3,0,0,0,.32-1.61Z"/><path class="cls-3" d="M211.51,196.65a3.45,3.45,0,0,1-.6,2.27,1.72,1.72,0,0,1-1.33.7,1.67,1.67,0,0,1-1.54-.93v2.88h-1v-8.7h1v.79a1.67,1.67,0,0,1,1.54-.91,1.74,1.74,0,0,1,1.33.69,3.49,3.49,0,0,1,.6,2.29Zm-1-.92a3,3,0,0,0-.32-1.62,1,1,0,0,0-.83-.46c-.65,0-1.09.46-1.29,1.37v2.32q.3,1.38,1.29,1.38a1,1,0,0,0,.83-.46,3,3,0,0,0,.32-1.61Z"/><path class="cls-3" d="M215.37,199.51v-7.74l-1.68,1.31-.45-.76,2.24-1.76h.89v8.95Z"/><path class="cls-3" d="M195.82,213.41v.5h-1v-.5a20.78,20.78,0,0,1,.77-4.33l1-4.11h1.13l1,4.11a20.78,20.78,0,0,1,.77,4.33v.5h-1v-.5a10.51,10.51,0,0,0-.17-1.6H196A11.68,11.68,0,0,0,195.82,213.41Zm1.37-6.86-.75,3.09c-.12.48-.22.92-.3,1.33h2.08c-.08-.41-.18-.85-.29-1.33Z"/><path class="cls-3" d="M205.51,211.05a3.45,3.45,0,0,1-.6,2.27,1.72,1.72,0,0,1-1.33.7,1.67,1.67,0,0,1-1.54-.93V216h-1v-8.71h1v.79a1.67,1.67,0,0,1,1.54-.91,1.74,1.74,0,0,1,1.33.69,3.49,3.49,0,0,1,.6,2.29Zm-1-.92a3,3,0,0,0-.32-1.62,1,1,0,0,0-.83-.46c-.65,0-1.09.46-1.29,1.37v2.32q.3,1.38,1.29,1.38a1,1,0,0,0,.83-.46,3,3,0,0,0,.32-1.61Z"/><path class="cls-3" d="M211.51,211.05a3.45,3.45,0,0,1-.6,2.27,1.72,1.72,0,0,1-1.33.7,1.67,1.67,0,0,1-1.54-.93V216h-1v-8.71h1v.79a1.67,1.67,0,0,1,1.54-.91,1.74,1.74,0,0,1,1.33.69,3.49,3.49,0,0,1,.6,2.29Zm-1-.92a3,3,0,0,0-.32-1.62,1,1,0,0,0-.83-.46c-.65,0-1.09.46-1.29,1.37v2.32q.3,1.38,1.29,1.38a1,1,0,0,0,.83-.46,3,3,0,0,0,.32-1.61Z"/><path class="cls-3" d="M217.37,213.91h-4.14v-.85a5.17,5.17,0,0,1,1.32-3.07l1.33-1.7a2,2,0,0,0,.5-1.25,1.36,1.36,0,0,0-.32-1,1.18,1.18,0,0,0-.87-.32c-.63,0-1.09.39-1.37,1.15l-.82-.57a2.38,2.38,0,0,1,2.19-1.48,2.15,2.15,0,0,1,2.18,2.21,3.07,3.07,0,0,1-.77,1.91l-1.3,1.68a4.15,4.15,0,0,0-1.08,2.42h3.15Z"/><path class="cls-3" d="M9.53,38.42a3,3,0,0,1-.63,2.12,2,2,0,0,1-1.52.68,2,2,0,0,1-1.53-.68,3.07,3.07,0,0,1-.62-2.12V32.16h1v6.26a2.35,2.35,0,0,0,.34,1.5,1,1,0,0,0,.81.4,1.07,1.07,0,0,0,.83-.4,2.43,2.43,0,0,0,.33-1.5V32.16h1Z"/><path class="cls-3" d="M13.4,40.34a1.31,1.31,0,0,0,.94-.3.93.93,0,0,0,.32-.71,1,1,0,0,0-.71-.91l-1.28-.58a1.75,1.75,0,0,1-.6-3,2.19,2.19,0,0,1,1.51-.53,2.23,2.23,0,0,1,2,1.23l-.81.49a1.26,1.26,0,0,0-1.23-.83,1.16,1.16,0,0,0-.8.25.81.81,0,0,0-.3.64c0,.34.22.62.66.83l1.21.56a2,2,0,0,1,1.31,1.85,1.72,1.72,0,0,1-.61,1.29,2.38,2.38,0,0,1-1.66.56,2.55,2.55,0,0,1-2.29-1.36l.82-.49A1.58,1.58,0,0,0,13.4,40.34Z"/><path class="cls-3" d="M21.61,38H18.14v.2a2.71,2.71,0,0,0,.37,1.7,1.32,1.32,0,0,0,1,.43,1.48,1.48,0,0,0,1.31-.83l.81.51a2.44,2.44,0,0,1-2.18,1.22,2.12,2.12,0,0,1-1.67-.73,3.34,3.34,0,0,1-.66-2.3v-.8a3.37,3.37,0,0,1,.66-2.31,2,2,0,0,1,1.58-.73A2.14,2.14,0,0,1,21,35a3.21,3.21,0,0,1,.62,2.2Zm-1-.88a2.33,2.33,0,0,0-.34-1.44,1.14,1.14,0,0,0-1.77,0,2.25,2.25,0,0,0-.36,1.44Z"/><path class="cls-3" d="M28,35.59l-.87.39a1,1,0,0,0-1-.73c-1,0-1.46.91-1.46,2.73v3.13h-1V34.47h1v1.06a1.8,1.8,0,0,1,1.62-1.18A1.74,1.74,0,0,1,28,35.59Z"/><path class="cls-3" d="M31.57,41.11V33.37l-1.69,1.31-.45-.76,2.25-1.76h.88v9Z"/><path class="cls-3" d="M18.5,55.51h-1V46.56h1.95a2.37,2.37,0,0,1,1.8.65,2.84,2.84,0,0,1-.06,3.59,2.42,2.42,0,0,1-1.74.65h-1Zm0-4.91h.95a1.42,1.42,0,0,0,1-.35,1.87,1.87,0,0,0,.35-1.31,1.77,1.77,0,0,0-.32-1.18,1.42,1.42,0,0,0-1.07-.35H18.5Z"/><path class="cls-3" d="M28,50l-.87.39a1,1,0,0,0-1-.73c-1,0-1.46.91-1.46,2.73v3.13h-1V48.87h1v1.06a1.79,1.79,0,0,1,1.62-1.18A1.74,1.74,0,0,1,28,50Z"/><path class="cls-3" d="M33.52,55.51H29.34v-.85h1.59V49.72H29.79v-.85h2.14v5.79h1.59ZM32,46.62a.75.75,0,0,1-.22.55.72.72,0,0,1-.54.22.74.74,0,0,1-.55-.22.75.75,0,0,1-.22-.55.75.75,0,0,1,.77-.76.72.72,0,0,1,.54.22A.73.73,0,0,1,32,46.62Z"/><path class="cls-3" d="M38,55.51H36.8L35.66,52A11.89,11.89,0,0,1,35,49.35l0-.48h1l0,.48a13,13,0,0,0,.57,2.55l.81,2.67.81-2.67a12.09,12.09,0,0,0,.56-2.55l0-.48h1l0,.48A12.3,12.3,0,0,1,39.1,52Z"/><path class="cls-3" d="M45.38,55.51h-1v-.75a1.94,1.94,0,0,1-1.6.86,1.69,1.69,0,0,1-1.32-.56,2,2,0,0,1-.5-1.4,1.89,1.89,0,0,1,.63-1.45,2.59,2.59,0,0,1,1.84-.59h1v-.71c0-.84-.4-1.26-1.19-1.26a1.42,1.42,0,0,0-1.32.78l-.75-.57a2.41,2.41,0,0,1,2.07-1.11,2.25,2.25,0,0,1,1.57.55,2,2,0,0,1,.61,1.61Zm-1-1.56V52.42h-1a1.55,1.55,0,0,0-1.08.34,1.17,1.17,0,0,0-.37.9.93.93,0,0,0,1,1.06A1.63,1.63,0,0,0,44.39,54Z"/><path class="cls-3" d="M51.93,54.58a2.17,2.17,0,0,1-1.87,1,1.76,1.76,0,0,1-1.29-.53,2.09,2.09,0,0,1-.53-1.55V49.72H47.13v-.85h1.11V46.56h1v2.31h2.24v.85H49.24v3.89a1.27,1.27,0,0,0,.23.82.8.8,0,0,0,.65.29A1.13,1.13,0,0,0,51.17,54Z"/><path class="cls-3" d="M57.61,52.39H54.14v.2a2.71,2.71,0,0,0,.37,1.7,1.32,1.32,0,0,0,1,.43,1.48,1.48,0,0,0,1.31-.83l.81.51a2.44,2.44,0,0,1-2.18,1.22,2.12,2.12,0,0,1-1.67-.73,3.34,3.34,0,0,1-.66-2.3v-.8a3.37,3.37,0,0,1,.66-2.31,2,2,0,0,1,1.58-.73,2.14,2.14,0,0,1,1.61.67,3.21,3.21,0,0,1,.62,2.2Zm-1-.88a2.33,2.33,0,0,0-.34-1.44,1.14,1.14,0,0,0-1.77,0,2.25,2.25,0,0,0-.36,1.44Z"/><path class="cls-3" d="M66.5,46.56v4.28L68,48.6a4.12,4.12,0,0,0,.82-1.71l0-.33h1l0,.44a5.9,5.9,0,0,1-1,2.13l-.92,1.37,1.32,2.25a6.1,6.1,0,0,1,.92,2.36l.05.4h-1l0-.31a5,5,0,0,0-.72-2l-1.2-2-.7,1v3.25h-1V46.56Z"/><path class="cls-3" d="M75.61,52.39H72.14v.2a2.71,2.71,0,0,0,.37,1.7,1.32,1.32,0,0,0,1,.43,1.48,1.48,0,0,0,1.31-.83l.81.51a2.44,2.44,0,0,1-2.18,1.22,2.12,2.12,0,0,1-1.67-.73,3.34,3.34,0,0,1-.66-2.3v-.8a3.37,3.37,0,0,1,.66-2.31,2,2,0,0,1,1.58-.73,2.14,2.14,0,0,1,1.61.67,3.21,3.21,0,0,1,.62,2.2Zm-1-.88a2.33,2.33,0,0,0-.34-1.44,1.14,1.14,0,0,0-1.77,0,2.25,2.25,0,0,0-.36,1.44Z"/><path class="cls-3" d="M78.15,56.58l.76-2-1.37-3.38A6.9,6.9,0,0,1,77,49.38l0-.51h1l0,.48a7.41,7.41,0,0,0,.46,1.58l.92,2.51L80.3,51a7.31,7.31,0,0,0,.45-1.62l0-.48h1l0,.51a6.68,6.68,0,0,1-.52,1.84L79.1,56.71a2,2,0,0,0-.13.65v.21H78v-.21A2.92,2.92,0,0,1,78.15,56.58Z"/><path class="cls-3" d="M21.75,67.82A2.14,2.14,0,0,1,19.47,70,2.61,2.61,0,0,1,17,68.55l.74-.56a1.86,1.86,0,0,0,1.73,1.13,1.32,1.32,0,0,0,.9-.33,1.18,1.18,0,0,0,.38-1,1.7,1.7,0,0,0-.65-1.15l-1.93-1.79a2.51,2.51,0,0,1-.8-1.9,2.08,2.08,0,0,1,2.21-2.15,2.51,2.51,0,0,1,2.17,1.22l-.77.6a1.52,1.52,0,0,0-1.4-.92,1.31,1.31,0,0,0-.87.3,1.2,1.2,0,0,0-.35,1,1.52,1.52,0,0,0,.53,1.15l1.92,1.78A2.61,2.61,0,0,1,21.75,67.82Z"/><path class="cls-3" d="M27.87,68.8A2.42,2.42,0,0,1,25.69,70,2.13,2.13,0,0,1,24,69.29a3.4,3.4,0,0,1-.65-2.3v-.82A3.4,3.4,0,0,1,24,63.88a2.13,2.13,0,0,1,1.67-.73,2.42,2.42,0,0,1,2.18,1.22l-.8.51a1.5,1.5,0,0,0-1.32-.83,1.29,1.29,0,0,0-1,.42,2.71,2.71,0,0,0-.38,1.7V67a2.67,2.67,0,0,0,.38,1.7,1.3,1.3,0,0,0,1,.43,1.5,1.5,0,0,0,1.32-.83Z"/><path class="cls-3" d="M33.62,67A3.39,3.39,0,0,1,33,69.29a2.14,2.14,0,0,1-3.22,0A3.4,3.4,0,0,1,29.15,67v-.91a3.4,3.4,0,0,1,.62-2.25,2.14,2.14,0,0,1,3.22,0,3.39,3.39,0,0,1,.63,2.25Zm-1,0v-.91a2.81,2.81,0,0,0-.35-1.63,1.08,1.08,0,0,0-.89-.45,1.06,1.06,0,0,0-.89.45,2.81,2.81,0,0,0-.35,1.63V67a2.77,2.77,0,0,0,.35,1.62,1.07,1.07,0,0,0,.89.46,1.09,1.09,0,0,0,.89-.46A2.77,2.77,0,0,0,32.62,67Z"/><path class="cls-3" d="M39.7,67.05a3.45,3.45,0,0,1-.6,2.27,1.72,1.72,0,0,1-1.33.7,1.67,1.67,0,0,1-1.54-.93V72h-1v-8.7h1v.79a1.67,1.67,0,0,1,1.54-.91,1.74,1.74,0,0,1,1.33.69,3.49,3.49,0,0,1,.6,2.29Zm-1-.92a2.92,2.92,0,0,0-.32-1.62,1,1,0,0,0-.83-.46c-.65,0-1.08.46-1.29,1.37v2.32q.3,1.38,1.29,1.38a1,1,0,0,0,.83-.46,2.92,2.92,0,0,0,.32-1.61Z"/><path class="cls-3" d="M45.61,66.79H42.14V67a2.71,2.71,0,0,0,.37,1.7,1.32,1.32,0,0,0,1,.43,1.48,1.48,0,0,0,1.31-.83l.81.51A2.44,2.44,0,0,1,43.47,70a2.12,2.12,0,0,1-1.67-.73,3.34,3.34,0,0,1-.66-2.3v-.8a3.37,3.37,0,0,1,.66-2.31,2,2,0,0,1,1.58-.73,2.11,2.11,0,0,1,1.61.67,3.21,3.21,0,0,1,.62,2.2Zm-1-.88a2.33,2.33,0,0,0-.34-1.44,1.14,1.14,0,0,0-1.77,0,2.25,2.25,0,0,0-.36,1.44Z"/><path class="cls-3" d="M50.53,64.3a1.13,1.13,0,0,1-.33.81,1.1,1.1,0,0,1-.83.34,1.06,1.06,0,0,1-.82-.34,1.17,1.17,0,0,1,0-1.61,1.07,1.07,0,0,1,.82-.35,1.11,1.11,0,0,1,.83.35A1.15,1.15,0,0,1,50.53,64.3Zm0,4.57a1.13,1.13,0,0,1-.33.8,1.11,1.11,0,0,1-.83.35,1.07,1.07,0,0,1-.82-.35,1.16,1.16,0,0,1,0-1.6,1,1,0,0,1,.82-.36,1.08,1.08,0,0,1,.83.36A1.15,1.15,0,0,1,50.53,68.87Z"/><path class="cls-3" d="M60,69.41v.5H59v-.5a20.57,20.57,0,0,1,.76-4.33l1-4.12h1.12l1,4.12a20.78,20.78,0,0,1,.77,4.33v.5h-1v-.5a9.26,9.26,0,0,0-.17-1.6H60.18A10.38,10.38,0,0,0,60,69.41Zm1.37-6.86-.75,3.09L60.33,67h2.08c-.08-.4-.17-.84-.29-1.32Z"/><path class="cls-3" d="M69.7,67.05a3.45,3.45,0,0,1-.6,2.27,1.72,1.72,0,0,1-1.33.7,1.67,1.67,0,0,1-1.54-.93V72h-1v-8.7h1v.79a1.67,1.67,0,0,1,1.54-.91,1.74,1.74,0,0,1,1.33.69,3.49,3.49,0,0,1,.6,2.29Zm-1-.92a2.92,2.92,0,0,0-.32-1.62,1,1,0,0,0-.83-.46c-.65,0-1.08.46-1.29,1.37v2.32q.3,1.38,1.29,1.38a1,1,0,0,0,.83-.46,2.92,2.92,0,0,0,.32-1.61Z"/><path class="cls-3" d="M75.7,67.05a3.45,3.45,0,0,1-.6,2.27,1.72,1.72,0,0,1-1.33.7,1.67,1.67,0,0,1-1.54-.93V72h-1v-8.7h1v.79a1.67,1.67,0,0,1,1.54-.91,1.74,1.74,0,0,1,1.33.69,3.49,3.49,0,0,1,.6,2.29Zm-1-.92a2.92,2.92,0,0,0-.32-1.62,1,1,0,0,0-.83-.46c-.65,0-1.08.46-1.29,1.37v2.32q.3,1.38,1.29,1.38a1,1,0,0,0,.83-.46,2.92,2.92,0,0,0,.32-1.61Z"/><path class="cls-3" d="M79.57,69.91V62.17l-1.69,1.31-.45-.76L79.68,61h.88v8.95Z"/><path class="cls-3" d="M21.92,83a2.53,2.53,0,0,1-2.27,1.44A2.26,2.26,0,0,1,18,83.77a3.36,3.36,0,0,1-.67-2.4V78.29A3.36,3.36,0,0,1,18,75.92a2.15,2.15,0,0,1,1.63-.68,2.34,2.34,0,0,1,2.22,1.45l-.81.49a1.49,1.49,0,0,0-1.41-1,1.22,1.22,0,0,0-.93.41,2.75,2.75,0,0,0-.37,1.74v3.08a2.75,2.75,0,0,0,.37,1.74,1.22,1.22,0,0,0,.93.41,1.61,1.61,0,0,0,1.47-1.09Z"/><path class="cls-3" d="M27.62,81.44A3.39,3.39,0,0,1,27,83.69a2.14,2.14,0,0,1-3.22,0,3.4,3.4,0,0,1-.62-2.25v-.91a3.4,3.4,0,0,1,.62-2.25,2.14,2.14,0,0,1,3.22,0,3.39,3.39,0,0,1,.63,2.25Zm-1,0v-.91a2.83,2.83,0,0,0-.35-1.63,1.08,1.08,0,0,0-.89-.45,1.06,1.06,0,0,0-.89.45,2.83,2.83,0,0,0-.35,1.63v.91a2.77,2.77,0,0,0,.35,1.62,1,1,0,0,0,.89.46,1.06,1.06,0,0,0,.89-.46A2.77,2.77,0,0,0,26.62,81.44Z"/><path class="cls-3" d="M33.8,84.31H33v-5c0-.57-.17-.85-.5-.85s-.53.22-.71.65v5.21H31v-5c0-.57-.14-.85-.4-.85s-.59.22-.8.65v5.21H29V77.67h.82v.65a1.3,1.3,0,0,1,1.1-.77c.4,0,.67.26.82.77a1.23,1.23,0,0,1,1.05-.77c.71,0,1.06.57,1.06,1.7Z"/><path class="cls-3" d="M39.8,84.31H39v-5c0-.57-.17-.85-.5-.85s-.53.22-.71.65v5.21H37v-5c0-.57-.14-.85-.4-.85s-.59.22-.8.65v5.21H35V77.67h.82v.65a1.3,1.3,0,0,1,1.1-.77c.4,0,.67.26.82.77a1.23,1.23,0,0,1,1.05-.77c.71,0,1.06.57,1.06,1.7Z"/><path class="cls-3" d="M45.38,84.31h-1v-.75a1.94,1.94,0,0,1-1.6.86,1.69,1.69,0,0,1-1.32-.56,2,2,0,0,1-.5-1.4A1.89,1.89,0,0,1,41.6,81a2.59,2.59,0,0,1,1.84-.59h1v-.71c0-.84-.4-1.26-1.19-1.26a1.42,1.42,0,0,0-1.32.78l-.75-.57a2.41,2.41,0,0,1,2.07-1.11,2.25,2.25,0,0,1,1.57.55,2,2,0,0,1,.61,1.61Zm-1-1.56V81.22h-1a1.55,1.55,0,0,0-1.08.34,1.17,1.17,0,0,0-.37.9.93.93,0,0,0,1,1.06A1.63,1.63,0,0,0,44.39,82.75Z"/><path class="cls-3" d="M51.53,84.31h-1V80a2,2,0,0,0-.27-1.2.88.88,0,0,0-.74-.34c-.65,0-1.09.45-1.3,1.35v4.49h-1V77.67h1v.85a1.84,1.84,0,0,1,1.55-1A1.63,1.63,0,0,1,51,78.1,2.68,2.68,0,0,1,51.53,80Z"/><path class="cls-3" d="M53.06,80.53a3.59,3.59,0,0,1,.57-2.28,1.71,1.71,0,0,1,2.9.23V75.37h1v8.94h-1v-.8a1.72,1.72,0,0,1-2.9.22,3.59,3.59,0,0,1-.57-2.28Zm1,.92a3.12,3.12,0,0,0,.3,1.61,1,1,0,0,0,.85.46c.66,0,1.09-.44,1.3-1.32V79.84c-.21-.93-.64-1.39-1.3-1.39a1,1,0,0,0-.85.46,3.17,3.17,0,0,0-.3,1.62Z"/><path class="cls-3" d="M62.53,78.71a1.13,1.13,0,0,1-.33.8,1.1,1.1,0,0,1-.83.34,1.06,1.06,0,0,1-.82-.34,1.17,1.17,0,0,1,0-1.61,1.07,1.07,0,0,1,.82-.35,1.11,1.11,0,0,1,.83.35A1.15,1.15,0,0,1,62.53,78.71Zm0,4.56a1.13,1.13,0,0,1-.33.8,1.11,1.11,0,0,1-.83.35,1.07,1.07,0,0,1-.82-.35,1.16,1.16,0,0,1,0-1.6,1,1,0,0,1,.82-.35,1.07,1.07,0,0,1,.83.35A1.15,1.15,0,0,1,62.53,83.27Z"/><path class="cls-3" d="M75.62,81.59A3.09,3.09,0,0,1,75,83.74a2.12,2.12,0,0,1-1.6.68,2.09,2.09,0,0,1-1.59-.68,3.14,3.14,0,0,1-.62-2.15V78.07a3.09,3.09,0,0,1,.63-2.15,2.09,2.09,0,0,1,1.64-.68,2.25,2.25,0,0,1,2.08,1.45l-.81.49c-.3-.69-.72-1-1.26-1a1.18,1.18,0,0,0-1,.41,2.51,2.51,0,0,0-.34,1.52v3.52a2.52,2.52,0,0,0,.33,1.52,1.07,1.07,0,0,0,.89.41,1.13,1.13,0,0,0,.9-.41,2.46,2.46,0,0,0,.34-1.52V80.37H73.56v-.84h2.06Z"/><path class="cls-3" d="M81.61,84.31H77.49V75.37h4.12v.84H78.48v2.9h2.31V80H78.48v3.5h3.13Z"/><path class="cls-3" d="M87.72,76.21H85.88v8.1h-1v-8.1H83v-.84h4.68Z"/><path class="cls-5" d="M178.31,1.41a2,2,0,0,0-2,2v8a2,2,0,0,0,2,2h12a2,2,0,0,0,2-2v-8a2,2,0,0,0-2-2h-12m0,2h12v8h-12v-8m-2,11a2,2,0,0,0-2,2v3a2,2,0,0,0,2,2h16a2,2,0,0,0,2-2v-3a2,2,0,0,0-2-2h-16m4,2h12v3h-12v-3m1,.75v1.5h4v-1.5h-4m6,0v1.5h4v-1.5Z"/><path class="cls-5" d="M17.38,3.41a4,4,0,1,1-4,4,4,4,0,0,1,4-4m0,10c4.42,0,8,1.79,8,4v2h-16v-2C9.38,15.2,13,13.41,17.38,13.41Z"/><polyline class="cls-4" points="160.59 136.64 134.34 136.64 134.34 54.15 96.29 54.15"/><path class="cls-6" d="M142.79,104.12v4h-4v-3h-3v-3h-3l-2.26-2.26a5.86,5.86,0,0,1-1.74.26,6,6,0,1,1,6-6,5.86,5.86,0,0,1-.26,1.74l8.26,8.26m-15-13a2,2,0,1,0,2,2A2,2,0,0,0,127.79,91.12Z"/><polygon class="cls-5" points="159.72 136.64 159.72 134.08 161.94 135.36 164.16 136.64 161.94 137.92 159.72 139.21 159.72 136.64"/><line class="cls-4" x1="166.31" y1="38.49" x2="99.6" y2="38.49"/><polygon class="cls-5" points="103.36 38.49 103.36 41.05 101.14 39.77 98.93 38.49 101.14 37.21 103.36 35.93 103.36 38.49"/><path class="cls-7" d="M134.41,36.39h3.85l-3.85-3.85v3.85m-4.9-4.9h5.6l4.2,4.2v8.4a1.4,1.4,0,0,1-1.4,1.4h-8.4a1.4,1.4,0,0,1-1.4-1.4V32.89a1.4,1.4,0,0,1,1.4-1.4m6.3,11.2v-1.4h-6.3v1.4h6.3m2.1-2.8v-1.4h-8.4v1.4Z"/><path class="cls-5" d="M134.41,36.39h3.85l-3.85-3.85v3.85m-4.9-4.9h5.6l4.2,4.2v8.4a1.4,1.4,0,0,1-1.4,1.4h-8.4a1.4,1.4,0,0,1-1.4-1.4V32.89a1.4,1.4,0,0,1,1.4-1.4m6.3,11.2v-1.4h-6.3v1.4h6.3m2.1-2.8v-1.4h-8.4v1.4Z"/><rect class="cls-8" x="454.91" y="72.25" width="95.79" height="28.8"/><rect class="cls-1" x="454.91" y="114.59" width="95.79" height="44.05"/><rect class="cls-2" x="289.1" y="22.64" width="95.79" height="67.07"/><path class="cls-3" d="M328.57,15.08a3.81,3.81,0,0,1-3.41,2.15,3.4,3.4,0,0,1-2.46-1c-.66-.65-1-1.84-1-3.59V8a5.05,5.05,0,0,1,1-3.56,3.29,3.29,0,0,1,2.44-1,3.51,3.51,0,0,1,3.34,2.18l-1.22.73a2.22,2.22,0,0,0-2.11-1.55,1.8,1.8,0,0,0-1.39.61A4.17,4.17,0,0,0,323.2,8v4.62a4.17,4.17,0,0,0,.56,2.61,1.83,1.83,0,0,0,1.39.61,2.39,2.39,0,0,0,2.2-1.63Z"/><path class="cls-3" d="M336.9,17.06h-6.28V15.79H333V4.92h-1.7V3.65h3.19V15.79h2.4Z"/><path class="cls-3" d="M346,17.06H339.7V15.79h2.39V8.39h-1.71V7.11h3.2v8.68H346ZM343.71,3.74a1.12,1.12,0,0,1-.33.81,1.16,1.16,0,0,1-1.64,0,1.12,1.12,0,0,1-.33-.81,1.1,1.1,0,0,1,.33-.81,1.16,1.16,0,0,1,1.64,0A1.1,1.1,0,0,1,343.71,3.74Z"/><path class="cls-3" d="M355.11,12.39h-5.22v.3a4,4,0,0,0,.57,2.55,2,2,0,0,0,1.53.64,2.22,2.22,0,0,0,2-1.24l1.21.77a3.65,3.65,0,0,1-3.27,1.82,3.24,3.24,0,0,1-2.51-1.09,5.09,5.09,0,0,1-1-3.45V11.48a5.12,5.12,0,0,1,1-3.46,3.09,3.09,0,0,1,2.38-1.09,3.15,3.15,0,0,1,2.41,1,4.77,4.77,0,0,1,.94,3.29Zm-1.5-1.32a3.44,3.44,0,0,0-.52-2.16,1.65,1.65,0,0,0-1.33-.63,1.68,1.68,0,0,0-1.32.63,3.36,3.36,0,0,0-.55,2.16Z"/><path class="cls-3" d="M364,17.06h-1.49V10.61a3,3,0,0,0-.41-1.8,1.33,1.33,0,0,0-1.1-.5c-1,0-1.64.67-2,2v6.73h-1.5V7.11H359V8.39a2.73,2.73,0,0,1,2.32-1.46,2.46,2.46,0,0,1,1.87.82,4,4,0,0,1,.76,2.77Z"/><path class="cls-3" d="M373.58,15.67a3.22,3.22,0,0,1-2.79,1.56,2.62,2.62,0,0,1-2-.79,3.12,3.12,0,0,1-.79-2.32V8.39h-1.67V7.11h1.67V3.65h1.5V7.11h3.35V8.39h-3.35v5.82a1.85,1.85,0,0,0,.35,1.24,1.17,1.17,0,0,0,1,.43,1.71,1.71,0,0,0,1.58-1Z"/><rect class="cls-4" x="454.91" y="22.64" width="95.79" height="197.6"/><path class="cls-3" d="M497,14.87a3.21,3.21,0,0,1-3.42,3.3A3.92,3.92,0,0,1,489.9,16l1.11-.83a2.77,2.77,0,0,0,2.58,1.68,2.06,2.06,0,0,0,1.37-.48,1.81,1.81,0,0,0,.57-1.45,2.54,2.54,0,0,0-1-1.71l-2.89-2.69a3.77,3.77,0,0,1-1.2-2.85,3.12,3.12,0,0,1,3.31-3.24A3.8,3.8,0,0,1,497,6.23l-1.15.91a2.29,2.29,0,0,0-2.1-1.38,1.9,1.9,0,0,0-1.3.45,1.75,1.75,0,0,0-.53,1.41,2.26,2.26,0,0,0,.8,1.73L495.61,12A3.91,3.91,0,0,1,497,14.87Z"/><path class="cls-3" d="M505.81,13.32H500.6v.3a4,4,0,0,0,.57,2.56,1.93,1.93,0,0,0,1.52.63,2.2,2.2,0,0,0,2-1.24l1.21.78a3.65,3.65,0,0,1-3.27,1.82,3.25,3.25,0,0,1-2.5-1.09,5.05,5.05,0,0,1-1-3.46v-1.2a5.05,5.05,0,0,1,1-3.46,3.08,3.08,0,0,1,2.37-1.09,3.13,3.13,0,0,1,2.42,1,4.76,4.76,0,0,1,.93,3.28ZM504.32,12a3.41,3.41,0,0,0-.53-2.16,1.64,1.64,0,0,0-1.33-.63,1.7,1.7,0,0,0-1.32.63A3.34,3.34,0,0,0,500.6,12Z"/><path class="cls-3" d="M515.32,9.73l-1.3.58a1.52,1.52,0,0,0-1.49-1.09q-2.19,0-2.19,4.09V18h-1.5V8.05h1.5V9.64a2.7,2.7,0,0,1,2.43-1.77A2.61,2.61,0,0,1,515.32,9.73Z"/><path class="cls-3" d="M521.32,18H519.6l-1.72-5.2a18.08,18.08,0,0,1-1-4l0-.71h1.49l0,.71a17.88,17.88,0,0,0,.85,3.83l1.21,4,1.22-4a18.53,18.53,0,0,0,.85-3.83l0-.71h1.5l-.05.71a17.93,17.93,0,0,1-1,4Z"/><path class="cls-3" d="M532.81,13.32H527.6v.3a4,4,0,0,0,.57,2.56,1.93,1.93,0,0,0,1.52.63,2.2,2.2,0,0,0,2-1.24l1.21.78a3.65,3.65,0,0,1-3.27,1.82,3.25,3.25,0,0,1-2.5-1.09,5.05,5.05,0,0,1-1-3.46v-1.2a5.05,5.05,0,0,1,1-3.46,3.08,3.08,0,0,1,2.37-1.09,3.13,3.13,0,0,1,2.42,1,4.76,4.76,0,0,1,.93,3.28ZM531.32,12a3.41,3.41,0,0,0-.53-2.16,1.64,1.64,0,0,0-1.33-.63,1.7,1.7,0,0,0-1.32.63A3.34,3.34,0,0,0,527.6,12Z"/><path class="cls-3" d="M542.32,9.73l-1.3.58a1.52,1.52,0,0,0-1.49-1.09q-2.19,0-2.19,4.09V18h-1.5V8.05h1.5V9.64a2.7,2.7,0,0,1,2.43-1.77A2.61,2.61,0,0,1,542.32,9.73Z"/><path class="cls-3" d="M460.42,39.19v.5h-1v-.5a20.61,20.61,0,0,1,.76-4.32l1-4.12h1.13l1,4.12a20.82,20.82,0,0,1,.77,4.32v.5h-1v-.5A9.16,9.16,0,0,0,463,37.6h-2.39A10.28,10.28,0,0,0,460.42,39.19Zm1.37-6.86-.75,3.1q-.17.7-.3,1.32h2.08c-.08-.41-.18-.85-.29-1.32Z"/><path class="cls-3" d="M470.11,36.84a3.47,3.47,0,0,1-.6,2.27,1.74,1.74,0,0,1-1.33.69,1.66,1.66,0,0,1-1.54-.92v2.88h-1v-8.7h1v.78a1.68,1.68,0,0,1,1.54-.9,1.74,1.74,0,0,1,1.33.69,3.47,3.47,0,0,1,.6,2.29Zm-1-.92a3,3,0,0,0-.32-1.62,1,1,0,0,0-.83-.46c-.65,0-1.08.45-1.29,1.36v2.33c.2.91.63,1.37,1.29,1.37a1,1,0,0,0,.83-.46,3,3,0,0,0,.32-1.6Z"/><path class="cls-3" d="M476.11,36.84a3.47,3.47,0,0,1-.6,2.27,1.74,1.74,0,0,1-1.33.69,1.66,1.66,0,0,1-1.54-.92v2.88h-1v-8.7h1v.78a1.68,1.68,0,0,1,1.54-.9,1.74,1.74,0,0,1,1.33.69,3.47,3.47,0,0,1,.6,2.29Zm-1-.92a3,3,0,0,0-.32-1.62,1,1,0,0,0-.83-.46c-.65,0-1.08.45-1.29,1.36v2.33c.2.91.63,1.37,1.29,1.37a1,1,0,0,0,.83-.46,3,3,0,0,0,.32-1.6Z"/><path class="cls-3" d="M480,39.69V32l-1.68,1.32-.45-.76,2.24-1.76H481v8.94Z"/><path class="cls-3" d="M472.42,53.59v.5h-1v-.5a20.61,20.61,0,0,1,.76-4.32l1-4.12h1.13l1,4.12a20.82,20.82,0,0,1,.77,4.32v.5h-1v-.5A9.16,9.16,0,0,0,475,52h-2.39A10.28,10.28,0,0,0,472.42,53.59Zm1.37-6.86-.75,3.1q-.17.7-.3,1.32h2.08c-.08-.41-.18-.85-.29-1.32Z"/><path class="cls-3" d="M482.11,51.24a3.47,3.47,0,0,1-.6,2.27,1.74,1.74,0,0,1-1.33.69,1.68,1.68,0,0,1-1.54-.92v2.88h-1v-8.7h1v.78a1.68,1.68,0,0,1,1.54-.9,1.74,1.74,0,0,1,1.33.69,3.47,3.47,0,0,1,.6,2.29Zm-1-.92a3,3,0,0,0-.32-1.62,1,1,0,0,0-.83-.46c-.65,0-1.08.45-1.29,1.36v2.33c.2.91.63,1.37,1.29,1.37a1,1,0,0,0,.83-.46,3,3,0,0,0,.32-1.6Z"/><path class="cls-3" d="M488.11,51.24a3.47,3.47,0,0,1-.6,2.27,1.74,1.74,0,0,1-1.33.69,1.68,1.68,0,0,1-1.54-.92v2.88h-1v-8.7h1v.78a1.68,1.68,0,0,1,1.54-.9,1.74,1.74,0,0,1,1.33.69,3.47,3.47,0,0,1,.6,2.29Zm-1-.92a3,3,0,0,0-.32-1.62,1,1,0,0,0-.83-.46c-.65,0-1.08.45-1.29,1.36v2.33c.2.91.63,1.37,1.29,1.37a1,1,0,0,0,.83-.46,3,3,0,0,0,.32-1.6Z"/><path class="cls-3" d="M492,54.09V46.35l-1.68,1.32-.45-.76,2.24-1.76H493v8.94Z"/><path class="cls-3" d="M500.16,52a2.13,2.13,0,0,1-2.28,2.19,2.61,2.61,0,0,1-2.47-1.47l.74-.55a1.84,1.84,0,0,0,1.72,1.12,1.37,1.37,0,0,0,.91-.32,1.19,1.19,0,0,0,.38-1,1.7,1.7,0,0,0-.65-1.14l-1.93-1.79a2.49,2.49,0,0,1-.8-1.9A2.08,2.08,0,0,1,498,45a2.52,2.52,0,0,1,2.17,1.23l-.77.6a1.53,1.53,0,0,0-1.4-.92,1.28,1.28,0,0,0-.87.3,1.18,1.18,0,0,0-.35.94,1.54,1.54,0,0,0,.53,1.16l1.91,1.78A2.59,2.59,0,0,1,500.16,52Z"/><path class="cls-3" d="M506,51h-3.48v.19a2.71,2.71,0,0,0,.38,1.71,1.3,1.3,0,0,0,1,.42,1.47,1.47,0,0,0,1.31-.82l.8.51a2.41,2.41,0,0,1-2.18,1.21,2.17,2.17,0,0,1-1.67-.72,3.43,3.43,0,0,1-.65-2.31v-.8a3.4,3.4,0,0,1,.65-2.3,2.06,2.06,0,0,1,1.59-.73,2.11,2.11,0,0,1,1.61.67A3.2,3.2,0,0,1,506,50.2Zm-1-.88a2.24,2.24,0,0,0-.35-1.44,1.08,1.08,0,0,0-.88-.42,1.11,1.11,0,0,0-.88.42,2.22,2.22,0,0,0-.37,1.44Z"/><path class="cls-3" d="M512.28,53a2.41,2.41,0,0,1-2.18,1.21,2.16,2.16,0,0,1-1.67-.72,3.36,3.36,0,0,1-.65-2.3v-.82a3.33,3.33,0,0,1,.65-2.29,2.13,2.13,0,0,1,1.67-.73,2.4,2.4,0,0,1,2.18,1.22l-.81.51a1.47,1.47,0,0,0-1.31-.83,1.29,1.29,0,0,0-1,.42,2.69,2.69,0,0,0-.38,1.7v.82a2.69,2.69,0,0,0,.38,1.7,1.29,1.29,0,0,0,1,.42,1.46,1.46,0,0,0,1.31-.82Z"/><path class="cls-3" d="M518.36,48.58l-.87.39a1,1,0,0,0-1-.73c-1,0-1.46.91-1.46,2.72v3.13h-1V47.46h1v1.06a1.79,1.79,0,0,1,1.62-1.18A1.74,1.74,0,0,1,518.36,48.58Z"/><path class="cls-3" d="M524,51h-3.48v.19a2.71,2.71,0,0,0,.38,1.71,1.3,1.3,0,0,0,1,.42,1.47,1.47,0,0,0,1.31-.82l.8.51a2.41,2.41,0,0,1-2.18,1.21,2.17,2.17,0,0,1-1.67-.72,3.43,3.43,0,0,1-.65-2.31v-.8a3.4,3.4,0,0,1,.65-2.3,2.06,2.06,0,0,1,1.59-.73,2.11,2.11,0,0,1,1.61.67A3.2,3.2,0,0,1,524,50.2Zm-1-.88a2.24,2.24,0,0,0-.35-1.44,1.08,1.08,0,0,0-.88-.42,1.11,1.11,0,0,0-.88.42,2.22,2.22,0,0,0-.37,1.44Z"/><path class="cls-3" d="M530.34,53.17a2.16,2.16,0,0,1-1.87,1,1.77,1.77,0,0,1-1.3-.52,2.11,2.11,0,0,1-.52-1.55V48.31h-1.11v-.85h1.11V45.15h1v2.31h2.23v.85h-2.23v3.88a1.25,1.25,0,0,0,.23.83.79.79,0,0,0,.65.28,1.14,1.14,0,0,0,1.05-.68Z"/><path class="cls-3" d="M534,54.09V46.35l-1.68,1.32-.45-.76,2.24-1.76H535v8.94Z"/><path class="cls-3" d="M472.42,68v.5h-1V68a20.61,20.61,0,0,1,.76-4.32l1-4.12h1.13l1,4.12a20.82,20.82,0,0,1,.77,4.32v.5h-1V68A9.16,9.16,0,0,0,475,66.4h-2.39A10.28,10.28,0,0,0,472.42,68Zm1.37-6.86-.75,3.1q-.17.7-.3,1.32h2.08c-.08-.41-.18-.85-.29-1.32Z"/><path class="cls-3" d="M482.11,65.64a3.47,3.47,0,0,1-.6,2.27,1.74,1.74,0,0,1-1.33.69,1.68,1.68,0,0,1-1.54-.92v2.88h-1v-8.7h1v.78a1.68,1.68,0,0,1,1.54-.9,1.74,1.74,0,0,1,1.33.69,3.47,3.47,0,0,1,.6,2.29Zm-1-.92a3,3,0,0,0-.32-1.62,1,1,0,0,0-.83-.46c-.65,0-1.08.45-1.29,1.36v2.33c.2.91.63,1.37,1.29,1.37a1,1,0,0,0,.83-.46,3,3,0,0,0,.32-1.6Z"/><path class="cls-3" d="M488.11,65.64a3.47,3.47,0,0,1-.6,2.27,1.74,1.74,0,0,1-1.33.69,1.68,1.68,0,0,1-1.54-.92v2.88h-1v-8.7h1v.78a1.68,1.68,0,0,1,1.54-.9,1.74,1.74,0,0,1,1.33.69,3.47,3.47,0,0,1,.6,2.29Zm-1-.92a3,3,0,0,0-.32-1.62,1,1,0,0,0-.83-.46c-.65,0-1.08.45-1.29,1.36v2.33c.2.91.63,1.37,1.29,1.37a1,1,0,0,0,.83-.46,3,3,0,0,0,.32-1.6Z"/><path class="cls-3" d="M492,68.49V60.75l-1.68,1.32-.45-.76,2.24-1.76H493v8.94Z"/><path class="cls-3" d="M500.16,66.41a2.13,2.13,0,0,1-2.28,2.19,2.61,2.61,0,0,1-2.47-1.47l.74-.55a1.84,1.84,0,0,0,1.72,1.12,1.37,1.37,0,0,0,.91-.32,1.19,1.19,0,0,0,.38-1,1.7,1.7,0,0,0-.65-1.14l-1.93-1.79a2.49,2.49,0,0,1-.8-1.9A2.08,2.08,0,0,1,498,59.42a2.52,2.52,0,0,1,2.17,1.23l-.77.6a1.53,1.53,0,0,0-1.4-.92,1.28,1.28,0,0,0-.87.3,1.18,1.18,0,0,0-.35.94,1.54,1.54,0,0,0,.53,1.16l1.91,1.78A2.59,2.59,0,0,1,500.16,66.41Z"/><path class="cls-3" d="M506,65.37h-3.48v.2a2.71,2.71,0,0,0,.38,1.71,1.3,1.3,0,0,0,1,.42,1.46,1.46,0,0,0,1.31-.83l.8.52a2.41,2.41,0,0,1-2.18,1.21,2.17,2.17,0,0,1-1.67-.72,3.44,3.44,0,0,1-.65-2.31v-.8a3.4,3.4,0,0,1,.65-2.3,2.06,2.06,0,0,1,1.59-.73,2.11,2.11,0,0,1,1.61.67A3.2,3.2,0,0,1,506,64.6Zm-1-.87a2.24,2.24,0,0,0-.35-1.44,1.08,1.08,0,0,0-.88-.42,1.11,1.11,0,0,0-.88.42,2.22,2.22,0,0,0-.37,1.44Z"/><path class="cls-3" d="M512.28,67.39a2.41,2.41,0,0,1-2.18,1.21,2.16,2.16,0,0,1-1.67-.72,3.36,3.36,0,0,1-.65-2.3v-.82a3.33,3.33,0,0,1,.65-2.29,2.13,2.13,0,0,1,1.67-.73A2.4,2.4,0,0,1,512.28,63l-.81.51a1.47,1.47,0,0,0-1.31-.83,1.29,1.29,0,0,0-1,.42,2.69,2.69,0,0,0-.38,1.7v.82a2.69,2.69,0,0,0,.38,1.7,1.29,1.29,0,0,0,1,.42,1.45,1.45,0,0,0,1.31-.83Z"/><path class="cls-3" d="M518.36,63l-.87.39a1,1,0,0,0-1-.73c-1,0-1.46.91-1.46,2.72v3.13h-1V61.86h1v1.06a1.79,1.79,0,0,1,1.62-1.18A1.74,1.74,0,0,1,518.36,63Z"/><path class="cls-3" d="M524,65.37h-3.48v.2a2.71,2.71,0,0,0,.38,1.71,1.3,1.3,0,0,0,1,.42,1.46,1.46,0,0,0,1.31-.83l.8.52a2.41,2.41,0,0,1-2.18,1.21,2.17,2.17,0,0,1-1.67-.72,3.44,3.44,0,0,1-.65-2.31v-.8a3.4,3.4,0,0,1,.65-2.3,2.06,2.06,0,0,1,1.59-.73,2.11,2.11,0,0,1,1.61.67A3.2,3.2,0,0,1,524,64.6Zm-1-.87a2.24,2.24,0,0,0-.35-1.44,1.08,1.08,0,0,0-.88-.42,1.11,1.11,0,0,0-.88.42,2.22,2.22,0,0,0-.37,1.44Z"/><path class="cls-3" d="M530.34,67.57a2.16,2.16,0,0,1-1.87,1,1.77,1.77,0,0,1-1.3-.52,2.11,2.11,0,0,1-.52-1.55V62.71h-1.11v-.85h1.11V59.55h1v2.31h2.23v.85h-2.23v3.88a1.25,1.25,0,0,0,.23.83.79.79,0,0,0,.65.28,1.14,1.14,0,0,0,1.05-.68Z"/><path class="cls-3" d="M536,68.49h-4.14v-.85a5.15,5.15,0,0,1,1.32-3.06l1.33-1.71a2,2,0,0,0,.5-1.25,1.33,1.33,0,0,0-.32-1,1.18,1.18,0,0,0-.87-.32,1.45,1.45,0,0,0-1.37,1.14l-.82-.57a2.39,2.39,0,0,1,2.19-1.48A2.17,2.17,0,0,1,536,61.63a3.07,3.07,0,0,1-.77,1.92l-1.3,1.67a4.15,4.15,0,0,0-1.07,2.42H536Z"/><path class="cls-3" d="M460.42,82.39v.5h-1v-.5a20.61,20.61,0,0,1,.76-4.32l1-4.12h1.13l1,4.12a20.82,20.82,0,0,1,.77,4.32v.5h-1v-.5A9.16,9.16,0,0,0,463,80.8h-2.39A10.28,10.28,0,0,0,460.42,82.39Zm1.37-6.86-.75,3.1q-.17.7-.3,1.32h2.08c-.08-.41-.18-.85-.29-1.32Z"/><path class="cls-3" d="M470.11,80a3.47,3.47,0,0,1-.6,2.27,1.74,1.74,0,0,1-1.33.69,1.66,1.66,0,0,1-1.54-.92V85h-1v-8.7h1V77a1.68,1.68,0,0,1,1.54-.9,1.74,1.74,0,0,1,1.33.69,3.47,3.47,0,0,1,.6,2.29Zm-1-.92a3,3,0,0,0-.32-1.62,1,1,0,0,0-.83-.46c-.65,0-1.08.45-1.29,1.36v2.33c.2.91.63,1.37,1.29,1.37a1,1,0,0,0,.83-.46,3,3,0,0,0,.32-1.6Z"/><path class="cls-3" d="M476.11,80a3.47,3.47,0,0,1-.6,2.27,1.74,1.74,0,0,1-1.33.69,1.66,1.66,0,0,1-1.54-.92V85h-1v-8.7h1V77a1.68,1.68,0,0,1,1.54-.9,1.74,1.74,0,0,1,1.33.69,3.47,3.47,0,0,1,.6,2.29Zm-1-.92a3,3,0,0,0-.32-1.62,1,1,0,0,0-.83-.46c-.65,0-1.08.45-1.29,1.36v2.33c.2.91.63,1.37,1.29,1.37a1,1,0,0,0,.83-.46,3,3,0,0,0,.32-1.6Z"/><path class="cls-3" d="M482,82.89h-4.14V82A5.15,5.15,0,0,1,479.15,79l1.33-1.71A2,2,0,0,0,481,76a1.34,1.34,0,0,0-.32-1,1.18,1.18,0,0,0-.87-.32,1.45,1.45,0,0,0-1.37,1.14l-.82-.57a2.39,2.39,0,0,1,2.19-1.48A2.17,2.17,0,0,1,482,76,3.07,3.07,0,0,1,481.2,78l-1.3,1.67A4.15,4.15,0,0,0,478.83,82H482Z"/><path class="cls-3" d="M472.42,96.79v.5h-1v-.5a20.61,20.61,0,0,1,.76-4.32l1-4.12h1.13l1,4.12a20.82,20.82,0,0,1,.77,4.32v.5h-1v-.5A9.16,9.16,0,0,0,475,95.2h-2.39A10.28,10.28,0,0,0,472.42,96.79Zm1.37-6.86L473,93q-.17.7-.3,1.32h2.08c-.08-.41-.18-.85-.29-1.32Z"/><path class="cls-3" d="M482.11,94.44a3.47,3.47,0,0,1-.6,2.27,1.74,1.74,0,0,1-1.33.69,1.66,1.66,0,0,1-1.54-.92v2.88h-1v-8.7h1v.78a1.68,1.68,0,0,1,1.54-.9,1.74,1.74,0,0,1,1.33.69,3.47,3.47,0,0,1,.6,2.29Zm-1-.92a3,3,0,0,0-.32-1.62,1,1,0,0,0-.83-.46c-.65,0-1.08.45-1.29,1.36v2.33c.2.91.63,1.37,1.29,1.37a1,1,0,0,0,.83-.46,3,3,0,0,0,.32-1.6Z"/><path class="cls-3" d="M488.11,94.44a3.47,3.47,0,0,1-.6,2.27,1.74,1.74,0,0,1-1.33.69,1.66,1.66,0,0,1-1.54-.92v2.88h-1v-8.7h1v.78a1.68,1.68,0,0,1,1.54-.9,1.74,1.74,0,0,1,1.33.69,3.47,3.47,0,0,1,.6,2.29Zm-1-.92a3,3,0,0,0-.32-1.62,1,1,0,0,0-.83-.46c-.65,0-1.08.45-1.29,1.36v2.33c.2.91.63,1.37,1.29,1.37a1,1,0,0,0,.83-.46,3,3,0,0,0,.32-1.6Z"/><path class="cls-3" d="M494,97.29h-4.14v-.85a5.15,5.15,0,0,1,1.32-3.06l1.33-1.71a2,2,0,0,0,.5-1.24,1.34,1.34,0,0,0-.32-1,1.18,1.18,0,0,0-.87-.32,1.45,1.45,0,0,0-1.37,1.14l-.82-.57a2.39,2.39,0,0,1,2.19-1.48A2.17,2.17,0,0,1,494,90.43a3.07,3.07,0,0,1-.77,1.92L491.9,94a4.15,4.15,0,0,0-1.07,2.42H494Z"/><path class="cls-3" d="M500.16,95.21a2.13,2.13,0,0,1-2.28,2.19,2.61,2.61,0,0,1-2.47-1.47l.74-.55a1.84,1.84,0,0,0,1.72,1.12,1.37,1.37,0,0,0,.91-.32,1.19,1.19,0,0,0,.38-1,1.7,1.7,0,0,0-.65-1.14l-1.93-1.79a2.49,2.49,0,0,1-.8-1.9A2.08,2.08,0,0,1,498,88.22a2.52,2.52,0,0,1,2.17,1.23l-.77.6a1.53,1.53,0,0,0-1.4-.92,1.28,1.28,0,0,0-.87.3,1.18,1.18,0,0,0-.35.94,1.54,1.54,0,0,0,.53,1.16l1.91,1.78A2.59,2.59,0,0,1,500.16,95.21Z"/><path class="cls-3" d="M506,94.18h-3.48v.19a2.71,2.71,0,0,0,.38,1.71,1.3,1.3,0,0,0,1,.42,1.47,1.47,0,0,0,1.31-.82l.8.51a2.41,2.41,0,0,1-2.18,1.21,2.17,2.17,0,0,1-1.67-.72,3.43,3.43,0,0,1-.65-2.31v-.8a3.4,3.4,0,0,1,.65-2.3,2.06,2.06,0,0,1,1.59-.73,2.11,2.11,0,0,1,1.61.67A3.2,3.2,0,0,1,506,93.4Zm-1-.88a2.24,2.24,0,0,0-.35-1.44,1.08,1.08,0,0,0-.88-.42,1.11,1.11,0,0,0-.88.42,2.22,2.22,0,0,0-.37,1.44Z"/><path class="cls-3" d="M512.28,96.19a2.41,2.41,0,0,1-2.18,1.21,2.16,2.16,0,0,1-1.67-.72,3.36,3.36,0,0,1-.65-2.3v-.82a3.33,3.33,0,0,1,.65-2.29,2.13,2.13,0,0,1,1.67-.73,2.4,2.4,0,0,1,2.18,1.22l-.81.51a1.47,1.47,0,0,0-1.31-.83,1.29,1.29,0,0,0-1,.42,2.69,2.69,0,0,0-.38,1.7v.82a2.69,2.69,0,0,0,.38,1.7,1.29,1.29,0,0,0,1,.42,1.46,1.46,0,0,0,1.31-.82Z"/><path class="cls-3" d="M518.36,91.78l-.87.39a1,1,0,0,0-1-.73c-1,0-1.46.91-1.46,2.72v3.13h-1V90.66h1v1.06a1.79,1.79,0,0,1,1.62-1.18A1.74,1.74,0,0,1,518.36,91.78Z"/><path class="cls-3" d="M524,94.18h-3.48v.19a2.71,2.71,0,0,0,.38,1.71,1.3,1.3,0,0,0,1,.42,1.47,1.47,0,0,0,1.31-.82l.8.51a2.41,2.41,0,0,1-2.18,1.21,2.17,2.17,0,0,1-1.67-.72,3.43,3.43,0,0,1-.65-2.31v-.8a3.4,3.4,0,0,1,.65-2.3,2.06,2.06,0,0,1,1.59-.73,2.11,2.11,0,0,1,1.61.67A3.2,3.2,0,0,1,524,93.4Zm-1-.88a2.24,2.24,0,0,0-.35-1.44,1.08,1.08,0,0,0-.88-.42,1.11,1.11,0,0,0-.88.42,2.22,2.22,0,0,0-.37,1.44Z"/><path class="cls-3" d="M530.34,96.37a2.16,2.16,0,0,1-1.87,1,1.77,1.77,0,0,1-1.3-.52,2.11,2.11,0,0,1-.52-1.55V91.51h-1.11v-.85h1.11V88.35h1v2.31h2.23v.85h-2.23v3.88a1.25,1.25,0,0,0,.23.83.79.79,0,0,0,.65.28,1.14,1.14,0,0,0,1.05-.68Z"/><path class="cls-3" d="M534,97.29V89.55l-1.68,1.32-.45-.76,2.24-1.76H535v8.94Z"/><path class="cls-3" d="M463.94,109a3,3,0,0,1-.63,2.12,2,2,0,0,1-1.52.67,2,2,0,0,1-1.53-.67,3,3,0,0,1-.62-2.12v-6.26h1V109a2.43,2.43,0,0,0,.33,1.5,1.07,1.07,0,0,0,1.65,0,2.43,2.43,0,0,0,.33-1.5v-6.26h1Z"/><path class="cls-3" d="M467.81,110.92a1.32,1.32,0,0,0,.94-.29,1,1,0,0,0,.32-.72,1,1,0,0,0-.71-.9l-1.28-.59a1.73,1.73,0,0,1-.6-3,2.13,2.13,0,0,1,1.51-.53,2.22,2.22,0,0,1,2,1.22l-.81.49a1.27,1.27,0,0,0-1.23-.83,1.17,1.17,0,0,0-.8.26.8.8,0,0,0-.3.64c0,.34.22.61.66.82l1.21.57a2,2,0,0,1,1.31,1.85,1.72,1.72,0,0,1-.61,1.29,2.38,2.38,0,0,1-1.66.55,2.56,2.56,0,0,1-2.29-1.35l.82-.5A1.57,1.57,0,0,0,467.81,110.92Z"/><path class="cls-3" d="M476,108.58h-3.48v.19a2.71,2.71,0,0,0,.38,1.71,1.3,1.3,0,0,0,1,.42,1.47,1.47,0,0,0,1.31-.82l.8.51a2.41,2.41,0,0,1-2.18,1.21,2.17,2.17,0,0,1-1.67-.72,3.43,3.43,0,0,1-.65-2.31V108a3.4,3.4,0,0,1,.65-2.3,2.06,2.06,0,0,1,1.59-.73,2.11,2.11,0,0,1,1.61.67,3.2,3.2,0,0,1,.62,2.19Zm-1-.88a2.24,2.24,0,0,0-.35-1.44,1.08,1.08,0,0,0-.88-.42,1.11,1.11,0,0,0-.88.42,2.22,2.22,0,0,0-.37,1.44Z"/><path class="cls-3" d="M482.36,106.18l-.87.39a1,1,0,0,0-1-.73c-1,0-1.46.91-1.46,2.72v3.13h-1v-6.63h1v1.06a1.79,1.79,0,0,1,1.62-1.18A1.74,1.74,0,0,1,482.36,106.18Z"/><path class="cls-3" d="M485.81,110.92a1.32,1.32,0,0,0,.94-.29,1,1,0,0,0,.32-.72,1,1,0,0,0-.71-.9l-1.28-.59a1.73,1.73,0,0,1-.6-3,2.13,2.13,0,0,1,1.51-.53,2.22,2.22,0,0,1,2,1.22l-.81.49a1.27,1.27,0,0,0-1.23-.83,1.17,1.17,0,0,0-.8.26.8.8,0,0,0-.3.64c0,.34.22.61.66.82l1.21.57a2,2,0,0,1,1.31,1.85,1.72,1.72,0,0,1-.61,1.29,2.38,2.38,0,0,1-1.66.55,2.56,2.56,0,0,1-2.29-1.35l.82-.5A1.57,1.57,0,0,0,485.81,110.92Z"/><path class="cls-3" d="M475.94,123.41a3,3,0,0,1-.63,2.12,2,2,0,0,1-1.52.67,2,2,0,0,1-1.53-.67,3,3,0,0,1-.62-2.12v-6.26h1v6.26a2.43,2.43,0,0,0,.33,1.5,1.07,1.07,0,0,0,1.65,0,2.43,2.43,0,0,0,.33-1.5v-6.26h1Z"/><path class="cls-3" d="M479.81,125.32a1.32,1.32,0,0,0,.94-.29,1,1,0,0,0,.32-.72,1,1,0,0,0-.71-.9l-1.28-.59a1.73,1.73,0,0,1-.6-2.95,2.13,2.13,0,0,1,1.51-.53,2.22,2.22,0,0,1,2,1.22l-.81.49a1.27,1.27,0,0,0-1.23-.83,1.17,1.17,0,0,0-.8.26.8.8,0,0,0-.3.64c0,.34.22.61.66.82l1.21.57a2,2,0,0,1,1.31,1.85,1.72,1.72,0,0,1-.61,1.29,2.38,2.38,0,0,1-1.66.55,2.56,2.56,0,0,1-2.29-1.35l.82-.5A1.57,1.57,0,0,0,479.81,125.32Z"/><path class="cls-3" d="M488,123h-3.48v.19a2.71,2.71,0,0,0,.38,1.71,1.3,1.3,0,0,0,1,.42,1.47,1.47,0,0,0,1.31-.82l.8.51a2.41,2.41,0,0,1-2.18,1.21,2.17,2.17,0,0,1-1.67-.72,3.43,3.43,0,0,1-.65-2.31v-.8a3.4,3.4,0,0,1,.65-2.3,2.06,2.06,0,0,1,1.59-.73,2.11,2.11,0,0,1,1.61.67,3.2,3.2,0,0,1,.62,2.19Zm-1-.88a2.24,2.24,0,0,0-.35-1.44,1.08,1.08,0,0,0-.88-.42,1.11,1.11,0,0,0-.88.42,2.22,2.22,0,0,0-.37,1.44Z"/><path class="cls-3" d="M494.36,120.58l-.87.39a1,1,0,0,0-1-.73c-1,0-1.46.91-1.46,2.72v3.13h-1v-6.63h1v1.06a1.79,1.79,0,0,1,1.62-1.18A1.74,1.74,0,0,1,494.36,120.58Z"/><path class="cls-3" d="M498,126.09v-7.74l-1.68,1.32-.45-.76,2.24-1.76H499v8.94Z"/><path class="cls-3" d="M484.91,140.49h-1v-8.94h1.95a2.37,2.37,0,0,1,1.8.65,2.44,2.44,0,0,1,.61,1.72,2.49,2.49,0,0,1-.67,1.86,2.38,2.38,0,0,1-1.74.65h-1Zm0-4.91h.95a1.39,1.39,0,0,0,1-.35,1.87,1.87,0,0,0,.35-1.31,1.72,1.72,0,0,0-.32-1.17,1.42,1.42,0,0,0-1.07-.35h-.95Z"/><path class="cls-3" d="M493.94,140.49h-1v-.86a1.82,1.82,0,0,1-1.55,1,1.61,1.61,0,0,1-1.24-.55,3,3,0,0,1-.51-2v-4.19h1v4.19a2.26,2.26,0,0,0,.27,1.31.89.89,0,0,0,.74.34c.66,0,1.09-.43,1.3-1.29v-4.55h1Z"/><path class="cls-3" d="M500.11,137.63a3.59,3.59,0,0,1-.57,2.28,1.71,1.71,0,0,1-1.36.69,1.68,1.68,0,0,1-1.54-.9v.79h-1v-8.94h1v3.11a1.68,1.68,0,0,1,1.54-.92,1.71,1.71,0,0,1,1.36.69,3.65,3.65,0,0,1,.57,2.29Zm-1,0v-.91a3.3,3.3,0,0,0-.29-1.62,1,1,0,0,0-.86-.46q-1,0-1.29,1.32v2.42q.32,1.32,1.29,1.32a1,1,0,0,0,.86-.46A3.23,3.23,0,0,0,499.08,137.63Z"/><path class="cls-3" d="M505.88,140.49H501.7v-.85h1.59V132.4h-1.14v-.85h2.13v8.09h1.6Z"/><path class="cls-3" d="M511.93,140.49h-4.18v-.85h1.59v-4.93H508.2v-.85h2.14v5.78h1.59Zm-1.51-8.88a.73.73,0,0,1-.22.54.74.74,0,0,1-.54.23.77.77,0,1,1,0-1.54.74.74,0,0,1,.54.23A.73.73,0,0,1,510.42,131.61Z"/><path class="cls-3" d="M518.28,139.39a2.41,2.41,0,0,1-2.18,1.21,2.16,2.16,0,0,1-1.67-.72,3.36,3.36,0,0,1-.65-2.3v-.82a3.33,3.33,0,0,1,.65-2.29,2.13,2.13,0,0,1,1.67-.73,2.4,2.4,0,0,1,2.18,1.22l-.81.51a1.47,1.47,0,0,0-1.31-.83,1.29,1.29,0,0,0-1,.42,2.69,2.69,0,0,0-.38,1.7v.82a2.69,2.69,0,0,0,.38,1.7,1.29,1.29,0,0,0,1,.42,1.46,1.46,0,0,0,1.31-.82Z"/><path class="cls-3" d="M526.91,131.55v4.27l1.52-2.23a4.34,4.34,0,0,0,.82-1.72l0-.32h1l0,.43a5.83,5.83,0,0,1-1,2.13l-.92,1.38,1.32,2.25a6.23,6.23,0,0,1,.92,2.35l0,.4h-1l0-.31a5.13,5.13,0,0,0-.72-2l-1.2-2-.7,1v3.24h-1v-8.94Z"/><path class="cls-3" d="M536,137.38h-3.48v.19a2.71,2.71,0,0,0,.38,1.71,1.3,1.3,0,0,0,1,.42,1.47,1.47,0,0,0,1.31-.82l.8.51a2.41,2.41,0,0,1-2.18,1.21,2.17,2.17,0,0,1-1.67-.72,3.43,3.43,0,0,1-.65-2.31v-.8a3.4,3.4,0,0,1,.65-2.3,2.06,2.06,0,0,1,1.59-.73,2.11,2.11,0,0,1,1.61.67,3.2,3.2,0,0,1,.62,2.19Zm-1-.88a2.24,2.24,0,0,0-.35-1.44,1.08,1.08,0,0,0-.88-.42,1.11,1.11,0,0,0-.88.42,2.22,2.22,0,0,0-.37,1.44Z"/><path class="cls-3" d="M538.56,141.56l.76-2L538,136.2a6.75,6.75,0,0,1-.54-1.83l0-.51h1l0,.47a7.44,7.44,0,0,0,.46,1.59l.92,2.5.92-2.47a7.77,7.77,0,0,0,.45-1.62l0-.47h1l0,.51a7.13,7.13,0,0,1-.52,1.83l-2.12,5.49a2.08,2.08,0,0,0-.13.65v.22h-1v-.22A2.92,2.92,0,0,1,538.56,141.56Z"/><path class="cls-3" d="M484.42,154.39v.5h-1v-.5a20.61,20.61,0,0,1,.76-4.32l1-4.12h1.13l1,4.12a20.82,20.82,0,0,1,.77,4.32v.5h-1v-.5a9.16,9.16,0,0,0-.17-1.59h-2.39A10.28,10.28,0,0,0,484.42,154.39Zm1.37-6.86-.75,3.1q-.17.7-.3,1.32h2.08c-.08-.41-.18-.85-.29-1.32Z"/><path class="cls-3" d="M494.11,152a3.47,3.47,0,0,1-.6,2.27,1.74,1.74,0,0,1-1.33.69,1.68,1.68,0,0,1-1.54-.92V157h-1v-8.7h1V149a1.68,1.68,0,0,1,1.54-.9,1.74,1.74,0,0,1,1.33.69,3.47,3.47,0,0,1,.6,2.29Zm-1-.92a3,3,0,0,0-.32-1.62,1,1,0,0,0-.83-.46c-.65,0-1.08.45-1.29,1.36v2.33c.2.91.63,1.37,1.29,1.37a1,1,0,0,0,.83-.46,3,3,0,0,0,.32-1.6Z"/><path class="cls-3" d="M500.11,152a3.47,3.47,0,0,1-.6,2.27,1.74,1.74,0,0,1-1.33.69,1.68,1.68,0,0,1-1.54-.92V157h-1v-8.7h1V149a1.68,1.68,0,0,1,1.54-.9,1.74,1.74,0,0,1,1.33.69,3.47,3.47,0,0,1,.6,2.29Zm-1-.92a3,3,0,0,0-.32-1.62,1,1,0,0,0-.83-.46c-.65,0-1.08.45-1.29,1.36v2.33c.2.91.63,1.37,1.29,1.37a1,1,0,0,0,.83-.46,3,3,0,0,0,.32-1.6Z"/><path class="cls-3" d="M504,154.89v-7.74l-1.68,1.32-.45-.76,2.24-1.76H505v8.94Z"/><path class="cls-3" d="M475.94,166.61a3,3,0,0,1-.63,2.12,2,2,0,0,1-1.52.67,2,2,0,0,1-1.53-.67,3,3,0,0,1-.62-2.12v-6.26h1v6.26a2.43,2.43,0,0,0,.33,1.5,1.07,1.07,0,0,0,1.65,0,2.43,2.43,0,0,0,.33-1.5v-6.26h1Z"/><path class="cls-3" d="M479.81,168.52a1.32,1.32,0,0,0,.94-.29,1,1,0,0,0,.32-.72,1,1,0,0,0-.71-.9l-1.28-.59a1.73,1.73,0,0,1-.6-3,2.13,2.13,0,0,1,1.51-.53,2.22,2.22,0,0,1,2,1.22l-.81.49a1.27,1.27,0,0,0-1.23-.83,1.17,1.17,0,0,0-.8.26.8.8,0,0,0-.3.64c0,.34.22.61.66.82l1.21.57a2,2,0,0,1,1.31,1.85,1.72,1.72,0,0,1-.61,1.29,2.38,2.38,0,0,1-1.66.55,2.56,2.56,0,0,1-2.29-1.35l.82-.5A1.57,1.57,0,0,0,479.81,168.52Z"/><path class="cls-3" d="M488,166.18h-3.48v.19a2.71,2.71,0,0,0,.38,1.71,1.3,1.3,0,0,0,1,.42,1.47,1.47,0,0,0,1.31-.82l.8.51a2.41,2.41,0,0,1-2.18,1.21,2.17,2.17,0,0,1-1.67-.72,3.43,3.43,0,0,1-.65-2.31v-.8a3.4,3.4,0,0,1,.65-2.3,2.06,2.06,0,0,1,1.59-.73,2.11,2.11,0,0,1,1.61.67,3.2,3.2,0,0,1,.62,2.19Zm-1-.88a2.24,2.24,0,0,0-.35-1.44,1.08,1.08,0,0,0-.88-.42,1.11,1.11,0,0,0-.88.42,2.22,2.22,0,0,0-.37,1.44Z"/><path class="cls-3" d="M494.36,163.78l-.87.39a1,1,0,0,0-1-.73c-1,0-1.46.91-1.46,2.72v3.13h-1v-6.63h1v1.06a1.79,1.79,0,0,1,1.62-1.18A1.74,1.74,0,0,1,494.36,163.78Z"/><path class="cls-3" d="M500,169.29h-4.14v-.85a5.15,5.15,0,0,1,1.32-3.06l1.33-1.71a2,2,0,0,0,.5-1.24,1.34,1.34,0,0,0-.32-1,1.18,1.18,0,0,0-.87-.32,1.45,1.45,0,0,0-1.37,1.14l-.82-.57a2.39,2.39,0,0,1,2.19-1.48,2.17,2.17,0,0,1,2.18,2.21,3.07,3.07,0,0,1-.77,1.92L497.9,166a4.15,4.15,0,0,0-1.07,2.42H500Z"/><path class="cls-3" d="M484.91,183.69h-1v-8.94h1.95a2.37,2.37,0,0,1,1.8.65,2.42,2.42,0,0,1,.61,1.72,2.49,2.49,0,0,1-.67,1.86,2.38,2.38,0,0,1-1.74.65h-1Zm0-4.91h.95a1.39,1.39,0,0,0,1-.35,1.87,1.87,0,0,0,.35-1.31,1.72,1.72,0,0,0-.32-1.17,1.42,1.42,0,0,0-1.07-.35h-.95Z"/><path class="cls-3" d="M493.94,183.69h-1v-.86a1.82,1.82,0,0,1-1.55,1,1.61,1.61,0,0,1-1.24-.55,3,3,0,0,1-.51-2v-4.19h1v4.19a2.26,2.26,0,0,0,.27,1.31.89.89,0,0,0,.74.34c.66,0,1.09-.43,1.3-1.29v-4.55h1Z"/><path class="cls-3" d="M500.11,180.83a3.59,3.59,0,0,1-.57,2.28,1.71,1.71,0,0,1-1.36.69,1.67,1.67,0,0,1-1.54-.91v.8h-1v-8.94h1v3.11a1.66,1.66,0,0,1,1.54-.92,1.71,1.71,0,0,1,1.36.69,3.65,3.65,0,0,1,.57,2.29Zm-1,0v-.91a3.25,3.25,0,0,0-.29-1.62,1,1,0,0,0-.86-.46q-1,0-1.29,1.32v2.42q.32,1.32,1.29,1.32a1,1,0,0,0,.86-.46A3.23,3.23,0,0,0,499.08,180.83Z"/><path class="cls-3" d="M505.88,183.69H501.7v-.85h1.59V175.6h-1.14v-.85h2.13v8.09h1.6Z"/><path class="cls-3" d="M511.93,183.69h-4.18v-.85h1.59v-4.93H508.2v-.85h2.14v5.78h1.59Zm-1.51-8.88a.73.73,0,0,1-.22.54.74.74,0,0,1-.54.23.77.77,0,1,1,0-1.54.74.74,0,0,1,.54.23A.73.73,0,0,1,510.42,174.81Z"/><path class="cls-3" d="M518.28,182.59a2.41,2.41,0,0,1-2.18,1.21,2.16,2.16,0,0,1-1.67-.72,3.36,3.36,0,0,1-.65-2.3V180a3.33,3.33,0,0,1,.65-2.29,2.13,2.13,0,0,1,1.67-.73,2.4,2.4,0,0,1,2.18,1.22l-.81.51a1.47,1.47,0,0,0-1.31-.83,1.29,1.29,0,0,0-1,.42,2.69,2.69,0,0,0-.38,1.7v.82a2.69,2.69,0,0,0,.38,1.7,1.29,1.29,0,0,0,1,.42,1.45,1.45,0,0,0,1.31-.83Z"/><path class="cls-3" d="M526.91,174.75V179l1.52-2.23a4.34,4.34,0,0,0,.82-1.72l0-.32h1l0,.43a5.9,5.9,0,0,1-1,2.13l-.92,1.38,1.32,2.25a6.23,6.23,0,0,1,.92,2.35l0,.4h-1l0-.31a5.23,5.23,0,0,0-.72-2l-1.2-2-.7,1v3.24h-1v-8.94Z"/><path class="cls-3" d="M536,180.57h-3.48v.2a2.71,2.71,0,0,0,.38,1.71,1.3,1.3,0,0,0,1,.42,1.46,1.46,0,0,0,1.31-.83l.8.52a2.41,2.41,0,0,1-2.18,1.21,2.17,2.17,0,0,1-1.67-.72,3.44,3.44,0,0,1-.65-2.31V180a3.4,3.4,0,0,1,.65-2.3,2.06,2.06,0,0,1,1.59-.73,2.11,2.11,0,0,1,1.61.67,3.2,3.2,0,0,1,.62,2.19Zm-1-.87a2.24,2.24,0,0,0-.35-1.44,1.08,1.08,0,0,0-.88-.42,1.11,1.11,0,0,0-.88.42,2.22,2.22,0,0,0-.37,1.44Z"/><path class="cls-3" d="M538.56,184.76l.76-2L538,179.4a6.75,6.75,0,0,1-.54-1.83l0-.51h1l0,.47a7.44,7.44,0,0,0,.46,1.59l.92,2.5.92-2.47a7.94,7.94,0,0,0,.45-1.62l0-.47h1l0,.51a7.13,7.13,0,0,1-.52,1.83l-2.12,5.49a2.08,2.08,0,0,0-.13.65v.22h-1v-.22A2.92,2.92,0,0,1,538.56,184.76Z"/><path class="cls-3" d="M484.42,197.59v.5h-1v-.5a20.61,20.61,0,0,1,.76-4.32l1-4.12h1.13l1,4.12a20.82,20.82,0,0,1,.77,4.32v.5h-1v-.5A9.16,9.16,0,0,0,487,196h-2.39A10.28,10.28,0,0,0,484.42,197.59Zm1.37-6.86-.75,3.1q-.17.71-.3,1.32h2.08c-.08-.41-.18-.85-.29-1.32Z"/><path class="cls-3" d="M494.11,195.24a3.47,3.47,0,0,1-.6,2.27,1.74,1.74,0,0,1-1.33.69,1.68,1.68,0,0,1-1.54-.92v2.88h-1v-8.7h1v.78a1.68,1.68,0,0,1,1.54-.9,1.74,1.74,0,0,1,1.33.69,3.47,3.47,0,0,1,.6,2.29Zm-1-.92a3,3,0,0,0-.32-1.62,1,1,0,0,0-.83-.46c-.65,0-1.08.45-1.29,1.36v2.33c.2.91.63,1.37,1.29,1.37a1,1,0,0,0,.83-.46,3,3,0,0,0,.32-1.6Z"/><path class="cls-3" d="M500.11,195.24a3.47,3.47,0,0,1-.6,2.27,1.74,1.74,0,0,1-1.33.69,1.68,1.68,0,0,1-1.54-.92v2.88h-1v-8.7h1v.78a1.68,1.68,0,0,1,1.54-.9,1.74,1.74,0,0,1,1.33.69,3.47,3.47,0,0,1,.6,2.29Zm-1-.92a3,3,0,0,0-.32-1.62,1,1,0,0,0-.83-.46c-.65,0-1.08.45-1.29,1.36v2.33c.2.91.63,1.37,1.29,1.37a1,1,0,0,0,.83-.46,3,3,0,0,0,.32-1.6Z"/><path class="cls-3" d="M504,198.09v-7.74l-1.68,1.32-.45-.76,2.24-1.76H505v8.94Z"/><path class="cls-3" d="M484.42,212v.5h-1V212a20.61,20.61,0,0,1,.76-4.32l1-4.12h1.13l1,4.12a20.82,20.82,0,0,1,.77,4.32v.5h-1V212a9.16,9.16,0,0,0-.17-1.59h-2.39A10.28,10.28,0,0,0,484.42,212Zm1.37-6.86-.75,3.1q-.17.71-.3,1.32h2.08c-.08-.41-.18-.85-.29-1.32Z"/><path class="cls-3" d="M494.11,209.64a3.47,3.47,0,0,1-.6,2.27,1.74,1.74,0,0,1-1.33.69,1.66,1.66,0,0,1-1.54-.92v2.88h-1v-8.7h1v.78a1.68,1.68,0,0,1,1.54-.9,1.74,1.74,0,0,1,1.33.69,3.47,3.47,0,0,1,.6,2.29Zm-1-.92a3,3,0,0,0-.32-1.62,1,1,0,0,0-.83-.46c-.65,0-1.08.45-1.29,1.36v2.33c.2.91.63,1.37,1.29,1.37a1,1,0,0,0,.83-.46,3,3,0,0,0,.32-1.6Z"/><path class="cls-3" d="M500.11,209.64a3.47,3.47,0,0,1-.6,2.27,1.74,1.74,0,0,1-1.33.69,1.66,1.66,0,0,1-1.54-.92v2.88h-1v-8.7h1v.78a1.68,1.68,0,0,1,1.54-.9,1.74,1.74,0,0,1,1.33.69,3.47,3.47,0,0,1,.6,2.29Zm-1-.92a3,3,0,0,0-.32-1.62,1,1,0,0,0-.83-.46c-.65,0-1.08.45-1.29,1.36v2.33c.2.91.63,1.37,1.29,1.37a1,1,0,0,0,.83-.46,3,3,0,0,0,.32-1.6Z"/><path class="cls-3" d="M506,212.49h-4.14v-.85a5.15,5.15,0,0,1,1.32-3.06l1.33-1.71a2,2,0,0,0,.5-1.24,1.34,1.34,0,0,0-.32-1,1.18,1.18,0,0,0-.87-.32,1.45,1.45,0,0,0-1.37,1.14l-.82-.57a2.39,2.39,0,0,1,2.19-1.48,2.17,2.17,0,0,1,2.18,2.21,3.07,3.07,0,0,1-.77,1.92l-1.3,1.67a4.15,4.15,0,0,0-1.07,2.42H506Z"/><path class="cls-3" d="M298.13,37a3,3,0,0,1-.63,2.12,2,2,0,0,1-1.52.67,2,2,0,0,1-1.53-.67,3.09,3.09,0,0,1-.62-2.12V30.75h1V37a2.35,2.35,0,0,0,.34,1.5,1,1,0,0,0,.82.39,1.06,1.06,0,0,0,.82-.39,2.43,2.43,0,0,0,.33-1.5V30.75h1Z"/><path class="cls-3" d="M302,38.92a1.31,1.31,0,0,0,.94-.29.93.93,0,0,0,.32-.72,1,1,0,0,0-.71-.9l-1.27-.59a1.74,1.74,0,0,1-.61-3,2.14,2.14,0,0,1,1.51-.53,2.22,2.22,0,0,1,2,1.22l-.81.49a1.27,1.27,0,0,0-1.23-.83,1.17,1.17,0,0,0-.8.26.8.8,0,0,0-.3.64c0,.34.22.61.66.82l1.21.57A2,2,0,0,1,304.26,38a1.72,1.72,0,0,1-.61,1.29,2.38,2.38,0,0,1-1.66.55,2.56,2.56,0,0,1-2.29-1.35l.82-.5A1.57,1.57,0,0,0,302,38.92Z"/><path class="cls-3" d="M310.21,36.58h-3.47v.19a2.72,2.72,0,0,0,.37,1.71,1.31,1.31,0,0,0,1,.42,1.47,1.47,0,0,0,1.31-.82l.81.51a2.43,2.43,0,0,1-2.18,1.21,2.14,2.14,0,0,1-1.67-.72,3.37,3.37,0,0,1-.66-2.31V36a3.34,3.34,0,0,1,.66-2.3,2,2,0,0,1,1.58-.73,2.11,2.11,0,0,1,1.61.67,3.2,3.2,0,0,1,.62,2.19Zm-1-.88a2.31,2.31,0,0,0-.34-1.44,1.14,1.14,0,0,0-1.77,0,2.23,2.23,0,0,0-.36,1.44Z"/><path class="cls-3" d="M316.55,34.18l-.87.39a1,1,0,0,0-1-.73c-1,0-1.46.91-1.46,2.72v3.13h-1V33.06h1v1.06a1.79,1.79,0,0,1,1.62-1.18A1.74,1.74,0,0,1,316.55,34.18Z"/><path class="cls-3" d="M320.17,39.69V32l-1.69,1.32-.45-.76,2.25-1.76h.88v8.94Z"/><path class="cls-3" d="M307.11,54.09h-1V45.15h1.95a2.19,2.19,0,0,1,2.41,2.37,2.45,2.45,0,0,1-.67,1.86,2.35,2.35,0,0,1-1.74.65h-.95Zm0-4.91h.94a1.38,1.38,0,0,0,1-.35,1.87,1.87,0,0,0,.35-1.31,1.72,1.72,0,0,0-.32-1.17,1.4,1.4,0,0,0-1.07-.35h-.94Z"/><path class="cls-3" d="M316.55,48.58l-.87.39a1,1,0,0,0-1-.73c-1,0-1.46.91-1.46,2.72v3.13h-1V47.46h1v1.06a1.79,1.79,0,0,1,1.62-1.18A1.74,1.74,0,0,1,316.55,48.58Z"/><path class="cls-3" d="M322.12,54.09h-4.18v-.85h1.59V48.31h-1.14v-.85h2.14v5.78h1.59Zm-1.51-8.88a.77.77,0,0,1-.76.77.75.75,0,0,1-.55-.23.77.77,0,0,1,0-1.08.75.75,0,0,1,.55-.23.77.77,0,0,1,.76.77Z"/><path class="cls-3" d="M326.55,54.09H325.4l-1.14-3.47a11,11,0,0,1-.65-2.69l0-.47h1l0,.47a12.67,12.67,0,0,0,.57,2.55l.81,2.67.81-2.67a12.67,12.67,0,0,0,.57-2.55l0-.47h1l0,.47a11.51,11.51,0,0,1-.65,2.69Z"/><path class="cls-3" d="M334,54.09h-1v-.75a1.91,1.91,0,0,1-1.6.86,1.69,1.69,0,0,1-1.32-.55,2,2,0,0,1-.5-1.4,1.92,1.92,0,0,1,.63-1.46,2.6,2.6,0,0,1,1.84-.58H333v-.72c0-.83-.4-1.25-1.19-1.25a1.43,1.43,0,0,0-1.32.77l-.75-.56a2.41,2.41,0,0,1,2.07-1.11,2.29,2.29,0,0,1,1.57.54,2,2,0,0,1,.61,1.61Zm-1-1.56V51H332a1.55,1.55,0,0,0-1.08.33,1.2,1.2,0,0,0-.36.91.92.92,0,0,0,1,1A1.59,1.59,0,0,0,333,52.53Z"/><path class="cls-3" d="M340.53,53.17a2.16,2.16,0,0,1-1.87,1,1.75,1.75,0,0,1-1.29-.52,2.11,2.11,0,0,1-.53-1.55V48.31h-1.11v-.85h1.11V45.15h1v2.31h2.24v.85h-2.24v3.88a1.3,1.3,0,0,0,.23.83.81.81,0,0,0,.65.28,1.14,1.14,0,0,0,1-.68Z"/><path class="cls-3" d="M346.21,51h-3.47v.19a2.72,2.72,0,0,0,.37,1.71,1.31,1.31,0,0,0,1,.42,1.47,1.47,0,0,0,1.31-.82l.81.51a2.43,2.43,0,0,1-2.18,1.21,2.14,2.14,0,0,1-1.67-.72,3.37,3.37,0,0,1-.66-2.31v-.8a3.34,3.34,0,0,1,.66-2.3,2,2,0,0,1,1.58-.73,2.11,2.11,0,0,1,1.61.67,3.2,3.2,0,0,1,.62,2.19Zm-1-.88a2.31,2.31,0,0,0-.34-1.44,1.14,1.14,0,0,0-1.77,0,2.23,2.23,0,0,0-.36,1.44Z"/><path class="cls-3" d="M355.11,45.15v4.27l1.51-2.23a4.2,4.2,0,0,0,.82-1.72l0-.32h1l-.05.43a5.73,5.73,0,0,1-1.05,2.13l-.92,1.38,1.32,2.25a6.06,6.06,0,0,1,.92,2.35l.05.4h-1l0-.31a5.06,5.06,0,0,0-.72-2l-1.2-2-.69,1v3.24h-1V45.15Z"/><path class="cls-3" d="M364.21,51h-3.47v.19a2.72,2.72,0,0,0,.37,1.71,1.31,1.31,0,0,0,1,.42,1.47,1.47,0,0,0,1.31-.82l.81.51a2.43,2.43,0,0,1-2.18,1.21,2.14,2.14,0,0,1-1.67-.72,3.37,3.37,0,0,1-.66-2.31v-.8a3.34,3.34,0,0,1,.66-2.3,2,2,0,0,1,1.58-.73,2.11,2.11,0,0,1,1.61.67,3.2,3.2,0,0,1,.62,2.19Zm-1-.88a2.31,2.31,0,0,0-.34-1.44,1.14,1.14,0,0,0-1.77,0,2.23,2.23,0,0,0-.36,1.44Z"/><path class="cls-3" d="M366.75,55.16l.77-2-1.38-3.38a6.3,6.3,0,0,1-.53-1.83l0-.51h1l0,.47a7.44,7.44,0,0,0,.46,1.59L368,52l.92-2.47a8,8,0,0,0,.46-1.62l0-.47h1l0,.51a7.28,7.28,0,0,1-.53,1.83l-2.12,5.49a2.08,2.08,0,0,0-.13.65v.22h-1v-.22A2.92,2.92,0,0,1,366.75,55.16Z"/><path class="cls-3" d="M310.35,66.41a2.2,2.2,0,0,1-.6,1.55,2.18,2.18,0,0,1-1.68.64,2.59,2.59,0,0,1-2.46-1.47l.73-.55a1.85,1.85,0,0,0,1.73,1.12,1.36,1.36,0,0,0,.9-.32,1.19,1.19,0,0,0,.39-1,1.68,1.68,0,0,0-.66-1.14l-1.93-1.79a2.53,2.53,0,0,1-.8-1.9,2.08,2.08,0,0,1,2.21-2.16,2.52,2.52,0,0,1,2.17,1.23l-.77.6a1.52,1.52,0,0,0-1.4-.92,1.31,1.31,0,0,0-.87.3,1.18,1.18,0,0,0-.35.94,1.54,1.54,0,0,0,.53,1.16l1.92,1.78A2.58,2.58,0,0,1,310.35,66.41Z"/><path class="cls-3" d="M316.47,67.39a2.41,2.41,0,0,1-2.18,1.21,2.17,2.17,0,0,1-1.67-.72,3.41,3.41,0,0,1-.65-2.3v-.82a3.39,3.39,0,0,1,.65-2.29,2.15,2.15,0,0,1,1.67-.73A2.4,2.4,0,0,1,316.47,63l-.8.51a1.5,1.5,0,0,0-1.32-.83,1.29,1.29,0,0,0-1,.42,2.69,2.69,0,0,0-.38,1.7v.82a2.69,2.69,0,0,0,.38,1.7,1.29,1.29,0,0,0,1,.42,1.48,1.48,0,0,0,1.32-.83Z"/><path class="cls-3" d="M322.22,65.62a3.36,3.36,0,0,1-.63,2.25,2.14,2.14,0,0,1-3.22,0,3.36,3.36,0,0,1-.62-2.25v-.9a3.36,3.36,0,0,1,.62-2.25,2.14,2.14,0,0,1,3.22,0,3.36,3.36,0,0,1,.63,2.25Zm-1,0v-.9a2.79,2.79,0,0,0-.35-1.63,1.11,1.11,0,0,0-1.78,0,2.79,2.79,0,0,0-.35,1.63v.9a2.79,2.79,0,0,0,.35,1.63,1.11,1.11,0,0,0,1.78,0A2.79,2.79,0,0,0,321.22,65.62Z"/><path class="cls-3" d="M328.3,65.64a3.47,3.47,0,0,1-.6,2.27,1.74,1.74,0,0,1-1.33.69,1.68,1.68,0,0,1-1.54-.92v2.88h-1v-8.7h1v.78a1.68,1.68,0,0,1,1.54-.9,1.74,1.74,0,0,1,1.33.69,3.47,3.47,0,0,1,.6,2.29Zm-1-.92A2.89,2.89,0,0,0,327,63.1a1,1,0,0,0-.83-.46c-.65,0-1.08.45-1.29,1.36v2.33c.2.91.63,1.37,1.29,1.37a1,1,0,0,0,.83-.46,2.88,2.88,0,0,0,.32-1.6Z"/><path class="cls-3" d="M334.21,65.37h-3.47v.2a2.72,2.72,0,0,0,.37,1.71,1.31,1.31,0,0,0,1,.42,1.46,1.46,0,0,0,1.31-.83l.81.52a2.43,2.43,0,0,1-2.18,1.21,2.14,2.14,0,0,1-1.67-.72,3.39,3.39,0,0,1-.66-2.31v-.8a3.34,3.34,0,0,1,.66-2.3,2,2,0,0,1,1.58-.73,2.11,2.11,0,0,1,1.61.67,3.2,3.2,0,0,1,.62,2.19Zm-1-.87a2.31,2.31,0,0,0-.34-1.44,1.14,1.14,0,0,0-1.77,0,2.23,2.23,0,0,0-.36,1.44Z"/><path class="cls-3" d="M339.13,62.89A1.16,1.16,0,0,1,338,64a1.07,1.07,0,0,1-.82-.35,1.14,1.14,0,0,1-.32-.8,1.2,1.2,0,0,1,.32-.81,1.16,1.16,0,0,1,1.65,0A1.13,1.13,0,0,1,339.13,62.89Zm0,4.57a1.13,1.13,0,0,1-.33.8,1.1,1.1,0,0,1-.83.34,1.06,1.06,0,0,1-.82-.34,1.16,1.16,0,0,1-.32-.8,1.19,1.19,0,0,1,.32-.81,1.14,1.14,0,0,1,1.65,0A1.13,1.13,0,0,1,339.13,67.46Z"/><path class="cls-3" d="M348.61,68v.5h-1V68a20.61,20.61,0,0,1,.76-4.32l1-4.12h1.12l1,4.12a20.82,20.82,0,0,1,.77,4.32v.5h-1V68a9.16,9.16,0,0,0-.17-1.59h-2.39A10.28,10.28,0,0,0,348.61,68ZM350,61.13l-.75,3.1c-.11.47-.21.91-.29,1.32H351c-.09-.41-.18-.85-.3-1.32Z"/><path class="cls-3" d="M358.3,65.64a3.47,3.47,0,0,1-.6,2.27,1.74,1.74,0,0,1-1.33.69,1.68,1.68,0,0,1-1.54-.92v2.88h-1v-8.7h1v.78a1.68,1.68,0,0,1,1.54-.9,1.74,1.74,0,0,1,1.33.69,3.47,3.47,0,0,1,.6,2.29Zm-1-.92A2.89,2.89,0,0,0,357,63.1a1,1,0,0,0-.83-.46c-.65,0-1.08.45-1.29,1.36v2.33c.2.91.63,1.37,1.29,1.37a1,1,0,0,0,.83-.46,2.88,2.88,0,0,0,.32-1.6Z"/><path class="cls-3" d="M364.3,65.64a3.47,3.47,0,0,1-.6,2.27,1.74,1.74,0,0,1-1.33.69,1.68,1.68,0,0,1-1.54-.92v2.88h-1v-8.7h1v.78a1.68,1.68,0,0,1,1.54-.9,1.74,1.74,0,0,1,1.33.69,3.47,3.47,0,0,1,.6,2.29Zm-1-.92A2.89,2.89,0,0,0,363,63.1a1,1,0,0,0-.83-.46c-.65,0-1.08.45-1.29,1.36v2.33c.2.91.63,1.37,1.29,1.37a1,1,0,0,0,.83-.46,2.88,2.88,0,0,0,.32-1.6Z"/><path class="cls-3" d="M370.16,68.49H366v-.85a5.15,5.15,0,0,1,1.32-3.06l1.33-1.71a2,2,0,0,0,.5-1.25,1.33,1.33,0,0,0-.32-1,1.18,1.18,0,0,0-.87-.32,1.45,1.45,0,0,0-1.37,1.14l-.82-.57A2.39,2.39,0,0,1,368,59.42a2.14,2.14,0,0,1,1.55.63,2.12,2.12,0,0,1,.63,1.58,3.12,3.12,0,0,1-.76,1.92l-1.31,1.67A4.15,4.15,0,0,0,367,67.64h3.14Z"/><path class="cls-3" d="M310.52,81.57A2.52,2.52,0,0,1,308.25,83a2.22,2.22,0,0,1-1.64-.65A3.33,3.33,0,0,1,306,80V76.87a3.39,3.39,0,0,1,.66-2.37,2.2,2.2,0,0,1,1.63-.68,2.35,2.35,0,0,1,2.22,1.46l-.81.49a1.49,1.49,0,0,0-1.41-1,1.22,1.22,0,0,0-.93.41,2.8,2.8,0,0,0-.37,1.73V80a2.8,2.8,0,0,0,.37,1.73,1.19,1.19,0,0,0,.93.41A1.6,1.6,0,0,0,309.71,81Z"/><path class="cls-3" d="M316.22,80a3.36,3.36,0,0,1-.63,2.25,2.14,2.14,0,0,1-3.22,0,3.36,3.36,0,0,1-.62-2.25v-.9a3.36,3.36,0,0,1,.62-2.25,2.14,2.14,0,0,1,3.22,0,3.36,3.36,0,0,1,.63,2.25Zm-1,0v-.9a2.79,2.79,0,0,0-.35-1.63,1.11,1.11,0,0,0-1.78,0,2.79,2.79,0,0,0-.35,1.63V80a2.79,2.79,0,0,0,.35,1.63,1.11,1.11,0,0,0,1.78,0A2.79,2.79,0,0,0,315.22,80Z"/><path class="cls-3" d="M322.4,82.89h-.81v-5c0-.56-.17-.85-.5-.85s-.53.22-.71.66v5.2h-.81v-5c0-.56-.14-.85-.39-.85s-.6.22-.81.66v5.2h-.82V76.26h.82v.65a1.28,1.28,0,0,1,1.1-.77c.4,0,.67.25.82.77a1.21,1.21,0,0,1,1-.77c.71,0,1.06.56,1.06,1.7Z"/><path class="cls-3" d="M328.4,82.89h-.81v-5c0-.56-.17-.85-.5-.85s-.53.22-.71.66v5.2h-.81v-5c0-.56-.14-.85-.39-.85s-.6.22-.81.66v5.2h-.82V76.26h.82v.65a1.28,1.28,0,0,1,1.1-.77c.4,0,.67.25.82.77a1.21,1.21,0,0,1,1-.77c.71,0,1.06.56,1.06,1.7Z"/><path class="cls-3" d="M334,82.89h-1v-.75a1.91,1.91,0,0,1-1.6.86,1.69,1.69,0,0,1-1.32-.55,2,2,0,0,1-.5-1.4,1.92,1.92,0,0,1,.63-1.46A2.6,2.6,0,0,1,332,79H333v-.72c0-.83-.4-1.25-1.19-1.25a1.43,1.43,0,0,0-1.32.77l-.75-.56a2.41,2.41,0,0,1,2.07-1.11,2.29,2.29,0,0,1,1.57.54,2,2,0,0,1,.61,1.61Zm-1-1.56V79.81H332a1.55,1.55,0,0,0-1.08.33,1.2,1.2,0,0,0-.36.91.92.92,0,0,0,1,1A1.59,1.59,0,0,0,333,81.33Z"/><path class="cls-3" d="M340.13,82.89h-1v-4.3a2,2,0,0,0-.27-1.2.9.9,0,0,0-.74-.33c-.65,0-1.09.45-1.3,1.34v4.49h-1V76.26h1v.85a1.85,1.85,0,0,1,1.55-1,1.66,1.66,0,0,1,1.25.54,2.71,2.71,0,0,1,.51,1.85Z"/><path class="cls-3" d="M341.66,79.12a3.65,3.65,0,0,1,.57-2.29,1.71,1.71,0,0,1,1.36-.69,1.68,1.68,0,0,1,1.54.92V74h1v8.94h-1V82.1a1.68,1.68,0,0,1-1.54.9,1.71,1.71,0,0,1-1.36-.69,3.59,3.59,0,0,1-.57-2.28Zm1,.91a3.1,3.1,0,0,0,.3,1.61.94.94,0,0,0,.85.46c.66,0,1.09-.44,1.3-1.32V78.42c-.21-.92-.64-1.38-1.3-1.38a.94.94,0,0,0-.85.46,3.17,3.17,0,0,0-.3,1.62Z"/><path class="cls-3" d="M351.13,77.29A1.16,1.16,0,0,1,350,78.44a1.07,1.07,0,0,1-.82-.35,1.14,1.14,0,0,1-.32-.8,1.16,1.16,0,0,1,.32-.8,1,1,0,0,1,.82-.35,1.07,1.07,0,0,1,.83.35A1.13,1.13,0,0,1,351.13,77.29Zm0,4.57a1.13,1.13,0,0,1-.33.8A1.1,1.1,0,0,1,350,83a1.06,1.06,0,0,1-.82-.34,1.16,1.16,0,0,1-.32-.8,1.19,1.19,0,0,1,.32-.81,1.14,1.14,0,0,1,1.65,0A1.13,1.13,0,0,1,351.13,81.86Z"/><path class="cls-3" d="M364.22,80.18a3.06,3.06,0,0,1-.64,2.14A2.09,2.09,0,0,1,362,83a2.05,2.05,0,0,1-1.59-.68,3.11,3.11,0,0,1-.62-2.14V76.65a3.1,3.1,0,0,1,.63-2.15,2.12,2.12,0,0,1,1.64-.68,2.26,2.26,0,0,1,2.08,1.46l-.81.49c-.3-.69-.72-1-1.26-1a1.18,1.18,0,0,0-.95.41,2.49,2.49,0,0,0-.33,1.51v3.53a2.5,2.5,0,0,0,.32,1.51,1,1,0,0,0,.89.41,1.13,1.13,0,0,0,.9-.41,2.43,2.43,0,0,0,.34-1.51V79h-1.06v-.85h2.06Z"/><path class="cls-3" d="M370.21,82.89h-4.12V74h4.12v.85h-3.13v2.9h2.31v.84h-2.31V82h3.13Z"/><path class="cls-3" d="M376.32,74.8h-1.84v8.09h-1V74.8h-1.84V74h4.68Z"/><path class="cls-5" d="M466.91,0a2,2,0,0,0-2,2v8a2,2,0,0,0,2,2h12a2,2,0,0,0,2-2V2a2,2,0,0,0-2-2h-12m0,2h12v8h-12V2m-2,11a2,2,0,0,0-2,2v3a2,2,0,0,0,2,2h16a2,2,0,0,0,2-2V15a2,2,0,0,0-2-2h-16m4,2h12v3h-12V15m1,.75v1.5h4v-1.5h-4m6,0v1.5h4v-1.5Z"/><path class="cls-5" d="M306,0a4,4,0,1,1-4,4,4,4,0,0,1,4-4m0,10c4.42,0,8,1.79,8,4v2H298V14C298,11.79,301.56,10,306,10Z"/><polyline class="cls-4" points="449.19 135.23 422.94 135.23 422.94 52.73 384.89 52.73"/><path class="cls-6" d="M431.39,102.71v4h-4v-3h-3v-3h-3l-2.26-2.26a5.86,5.86,0,0,1-1.74.26,6,6,0,1,1,6-6,5.86,5.86,0,0,1-.26,1.74l8.26,8.26m-15-13a2,2,0,1,0,2,2A2,2,0,0,0,416.39,89.71Z"/><polygon class="cls-5" points="448.32 135.23 448.32 132.67 450.54 133.95 452.76 135.23 450.54 136.51 448.32 137.79 448.32 135.23"/><line class="cls-4" x1="454.91" y1="37.08" x2="388.2" y2="37.08"/><polygon class="cls-5" points="391.96 37.08 391.96 39.64 389.74 38.36 387.53 37.08 389.74 35.8 391.96 34.52 391.96 37.08"/><path class="cls-9" d="M424,38.23h-1.13V34.85H424m0,5.63h-1.13V39.35H424M423.44,32a5.63,5.63,0,1,0,5.62,5.62A5.63,5.63,0,0,0,423.44,32Z"/><path class="cls-5" d="M424,38.23h-1.13V34.85H424m0,5.63h-1.13V39.35H424M423.44,32a5.63,5.63,0,1,0,5.62,5.62A5.63,5.63,0,0,0,423.44,32Z"/></g></g></svg>