<svg xmlns="http://www.w3.org/2000/svg" viewBox="0 0 262.6 220.74"><defs><style>.cls-1{fill:#c5e3c1;}.cls-2{fill:#231f20;}.cls-3{fill:#010101;}.cls-4{fill:#fff;}</style></defs><title>success</title><g id="Layer_2" data-name="Layer 2"><g id="Layer_1-2" data-name="Layer 1"><rect class="cls-1" x="166.31" y="22.64" width="95.79" height="49.6"/><rect class="cls-1" x="166.31" y="114.59" width="95.79" height="44.05"/><rect class="cls-1" x="0.5" y="22.64" width="95.79" height="67.07"/><path class="cls-2" d="M96.79,90.21H0V22.14H96.79ZM1,89.21H95.79V23.14H1Z"/><path class="cls-2" d="M40,15.08a3.81,3.81,0,0,1-3.41,2.15,3.4,3.4,0,0,1-2.46-1c-.66-.65-1-1.85-1-3.59V8a5.05,5.05,0,0,1,1-3.56,3.29,3.29,0,0,1,2.44-1,3.51,3.51,0,0,1,3.34,2.18l-1.22.73a2.22,2.22,0,0,0-2.11-1.55,1.8,1.8,0,0,0-1.39.61A4.17,4.17,0,0,0,34.6,8v4.62a4.11,4.11,0,0,0,.56,2.6,1.81,1.81,0,0,0,1.39.62,2.39,2.39,0,0,0,2.2-1.63Z"/><path class="cls-2" d="M48.29,17.06H42V15.79h2.39V4.92H42.7V3.65h3.2V15.79h2.39Z"/><path class="cls-2" d="M57.36,17.06H51.1V15.79h2.39V8.39H51.77V7.11H55v8.68h2.38ZM55.11,3.74a1.12,1.12,0,0,1-.33.81,1.16,1.16,0,0,1-1.64,0,1.12,1.12,0,0,1-.33-.81,1.1,1.1,0,0,1,.33-.81,1.16,1.16,0,0,1,1.64,0A1.1,1.1,0,0,1,55.11,3.74Z"/><path class="cls-2" d="M66.51,12.39H61.29v.3a4,4,0,0,0,.57,2.55,2,2,0,0,0,1.53.64,2.22,2.22,0,0,0,2-1.24l1.21.77a3.65,3.65,0,0,1-3.27,1.82,3.22,3.22,0,0,1-2.51-1.09,5.09,5.09,0,0,1-1-3.45V11.48a5.11,5.11,0,0,1,1-3.46,3.09,3.09,0,0,1,2.38-1.09,3.15,3.15,0,0,1,2.41,1,4.77,4.77,0,0,1,.94,3.29ZM65,11.07a3.44,3.44,0,0,0-.52-2.16,1.65,1.65,0,0,0-1.33-.63,1.68,1.68,0,0,0-1.32.63,3.36,3.36,0,0,0-.55,2.16Z"/><path class="cls-2" d="M75.38,17.06H73.89V10.61a3,3,0,0,0-.41-1.8,1.34,1.34,0,0,0-1.1-.5c-1,0-1.64.67-1.95,2v6.73h-1.5V7.11h1.5V8.39a2.73,2.73,0,0,1,2.32-1.46,2.46,2.46,0,0,1,1.87.82,4,4,0,0,1,.76,2.77Z"/><path class="cls-2" d="M85,15.67a3.22,3.22,0,0,1-2.79,1.56,2.62,2.62,0,0,1-2-.79,3.12,3.12,0,0,1-.79-2.32V8.39H77.78V7.11h1.67V3.65H81V7.11H84.3V8.39H81v5.82a1.85,1.85,0,0,0,.35,1.24,1.17,1.17,0,0,0,1,.43,1.72,1.72,0,0,0,1.58-1Z"/><path class="cls-2" d="M262.6,220.74H165.81V22.14H262.6Zm-95.79-1H261.6V23.14H166.81Z"/><path class="cls-2" d="M208.42,14.87a3.21,3.21,0,0,1-3.42,3.3A3.92,3.92,0,0,1,201.3,16l1.11-.83A2.77,2.77,0,0,0,205,16.81a2.06,2.06,0,0,0,1.37-.48,1.81,1.81,0,0,0,.57-1.45,2.54,2.54,0,0,0-1-1.71l-2.89-2.69a3.77,3.77,0,0,1-1.2-2.85,3.12,3.12,0,0,1,3.31-3.24,3.8,3.8,0,0,1,3.26,1.84l-1.15.91a2.29,2.29,0,0,0-2.1-1.38,2,2,0,0,0-1.31.45,1.78,1.78,0,0,0-.52,1.41,2.29,2.29,0,0,0,.79,1.73L207,12A3.89,3.89,0,0,1,208.42,14.87Z"/><path class="cls-2" d="M217.21,13.32H212v.3a4,4,0,0,0,.57,2.56,1.93,1.93,0,0,0,1.52.63,2.2,2.2,0,0,0,2-1.24l1.21.78A3.65,3.65,0,0,1,214,18.17a3.25,3.25,0,0,1-2.5-1.09,5.05,5.05,0,0,1-1-3.46v-1.2a5.05,5.05,0,0,1,1-3.46,3.25,3.25,0,0,1,4.78-.08,4.71,4.71,0,0,1,.94,3.28ZM215.72,12a3.41,3.41,0,0,0-.53-2.16,1.64,1.64,0,0,0-1.33-.63,1.7,1.7,0,0,0-1.32.63A3.34,3.34,0,0,0,212,12Z"/><path class="cls-2" d="M226.72,9.73l-1.3.58a1.52,1.52,0,0,0-1.48-1.09q-2.2,0-2.2,4.09V18h-1.5V8.05h1.5V9.64a2.7,2.7,0,0,1,2.43-1.77A2.61,2.61,0,0,1,226.72,9.73Z"/><path class="cls-2" d="M232.72,18H231l-1.72-5.2a18.08,18.08,0,0,1-1-4l0-.71h1.49l.05.71a17.88,17.88,0,0,0,.85,3.83l1.21,4,1.22-4a18.53,18.53,0,0,0,.85-3.83l0-.71h1.5l-.05.71a17.93,17.93,0,0,1-1,4Z"/><path class="cls-2" d="M244.21,13.32H239v.3a4,4,0,0,0,.57,2.56,1.93,1.93,0,0,0,1.52.63,2.2,2.2,0,0,0,2-1.24l1.21.78A3.65,3.65,0,0,1,241,18.17a3.25,3.25,0,0,1-2.5-1.09,5.05,5.05,0,0,1-1-3.46v-1.2a5.05,5.05,0,0,1,1-3.46,3.25,3.25,0,0,1,4.78-.08,4.71,4.71,0,0,1,.94,3.28ZM242.72,12a3.41,3.41,0,0,0-.53-2.16,1.64,1.64,0,0,0-1.33-.63,1.7,1.7,0,0,0-1.32.63A3.34,3.34,0,0,0,239,12Z"/><path class="cls-2" d="M253.72,9.73l-1.3.58a1.52,1.52,0,0,0-1.48-1.09q-2.2,0-2.2,4.09V18h-1.5V8.05h1.5V9.64a2.7,2.7,0,0,1,2.43-1.77A2.61,2.61,0,0,1,253.72,9.73Z"/><path class="cls-2" d="M171.82,39.19v.5h-1v-.5a20.82,20.82,0,0,1,.77-4.32l1-4.12h1.13l1,4.12a20.82,20.82,0,0,1,.77,4.32v.5h-1v-.5a10.28,10.28,0,0,0-.17-1.59H172A11.42,11.42,0,0,0,171.82,39.19Zm1.37-6.86-.75,3.1c-.12.47-.21.91-.3,1.32h2.08c-.08-.41-.18-.85-.29-1.32Z"/><path class="cls-2" d="M181.51,36.84a3.47,3.47,0,0,1-.6,2.27,1.74,1.74,0,0,1-1.33.69,1.68,1.68,0,0,1-1.54-.92v2.88h-1v-8.7h1v.78a1.68,1.68,0,0,1,1.54-.9,1.74,1.74,0,0,1,1.33.69,3.47,3.47,0,0,1,.6,2.29Zm-1-.92a3,3,0,0,0-.32-1.62,1,1,0,0,0-.83-.46c-.65,0-1.09.45-1.29,1.36v2.33c.2.91.63,1.37,1.29,1.37a1,1,0,0,0,.83-.46,3,3,0,0,0,.32-1.6Z"/><path class="cls-2" d="M187.51,36.84a3.47,3.47,0,0,1-.6,2.27,1.74,1.74,0,0,1-1.33.69,1.68,1.68,0,0,1-1.54-.92v2.88h-1v-8.7h1v.78a1.68,1.68,0,0,1,1.54-.9,1.74,1.74,0,0,1,1.33.69,3.47,3.47,0,0,1,.6,2.29Zm-1-.92a3,3,0,0,0-.32-1.62,1,1,0,0,0-.83-.46c-.65,0-1.09.45-1.29,1.36v2.33c.2.91.63,1.37,1.29,1.37a1,1,0,0,0,.83-.46,3,3,0,0,0,.32-1.6Z"/><path class="cls-2" d="M191.37,39.69V32l-1.68,1.32-.45-.76,2.24-1.76h.89v8.94Z"/><path class="cls-2" d="M183.82,53.59v.5h-1v-.5a20.82,20.82,0,0,1,.77-4.32l1-4.12h1.13l1,4.12a20.82,20.82,0,0,1,.77,4.32v.5h-1v-.5a10.28,10.28,0,0,0-.17-1.59H184A11.42,11.42,0,0,0,183.82,53.59Zm1.37-6.86-.75,3.1c-.12.47-.21.91-.3,1.32h2.08c-.08-.41-.18-.85-.29-1.32Z"/><path class="cls-2" d="M193.51,51.24a3.47,3.47,0,0,1-.6,2.27,1.74,1.74,0,0,1-1.33.69,1.68,1.68,0,0,1-1.54-.92v2.88h-1v-8.7h1v.78a1.68,1.68,0,0,1,1.54-.9,1.74,1.74,0,0,1,1.33.69,3.47,3.47,0,0,1,.6,2.29Zm-1-.92a3,3,0,0,0-.32-1.62,1,1,0,0,0-.83-.46c-.65,0-1.09.45-1.29,1.36v2.33c.2.91.63,1.37,1.29,1.37a1,1,0,0,0,.83-.46,3,3,0,0,0,.32-1.6Z"/><path class="cls-2" d="M199.51,51.24a3.47,3.47,0,0,1-.6,2.27,1.74,1.74,0,0,1-1.33.69,1.68,1.68,0,0,1-1.54-.92v2.88h-1v-8.7h1v.78a1.68,1.68,0,0,1,1.54-.9,1.74,1.74,0,0,1,1.33.69,3.47,3.47,0,0,1,.6,2.29Zm-1-.92a3,3,0,0,0-.32-1.62,1,1,0,0,0-.83-.46c-.65,0-1.09.45-1.29,1.36v2.33c.2.91.63,1.37,1.29,1.37a1,1,0,0,0,.83-.46,3,3,0,0,0,.32-1.6Z"/><path class="cls-2" d="M203.37,54.09V46.35l-1.68,1.32-.45-.76,2.24-1.76h.89v8.94Z"/><path class="cls-2" d="M211.56,52a2.13,2.13,0,0,1-2.28,2.19,2.6,2.6,0,0,1-2.47-1.47l.74-.55a1.84,1.84,0,0,0,1.72,1.12,1.37,1.37,0,0,0,.91-.32,1.19,1.19,0,0,0,.38-1,1.7,1.7,0,0,0-.65-1.14L208,49.08a2.49,2.49,0,0,1-.8-1.9A2.08,2.08,0,0,1,209.39,45a2.53,2.53,0,0,1,2.17,1.23l-.77.6a1.53,1.53,0,0,0-1.4-.92,1.28,1.28,0,0,0-.87.3,1.18,1.18,0,0,0-.35.94,1.54,1.54,0,0,0,.53,1.16l1.91,1.78A2.59,2.59,0,0,1,211.56,52Z"/><path class="cls-2" d="M217.42,51h-3.48v.2a2.71,2.71,0,0,0,.38,1.71,1.3,1.3,0,0,0,1,.42,1.46,1.46,0,0,0,1.31-.83l.8.52a2.41,2.41,0,0,1-2.18,1.21,2.17,2.17,0,0,1-1.67-.72,3.44,3.44,0,0,1-.65-2.31v-.8a3.4,3.4,0,0,1,.65-2.3,2.17,2.17,0,0,1,3.19-.06,3.15,3.15,0,0,1,.63,2.19Zm-1-.87a2.24,2.24,0,0,0-.35-1.44,1.08,1.08,0,0,0-.88-.42,1.11,1.11,0,0,0-.88.42,2.17,2.17,0,0,0-.37,1.44Z"/><path class="cls-2" d="M223.68,53a2.42,2.42,0,0,1-2.18,1.21,2.16,2.16,0,0,1-1.67-.72,3.36,3.36,0,0,1-.65-2.3v-.82a3.33,3.33,0,0,1,.65-2.29,2.13,2.13,0,0,1,1.67-.73,2.41,2.41,0,0,1,2.18,1.22l-.81.51a1.47,1.47,0,0,0-1.31-.83,1.29,1.29,0,0,0-1,.42,2.69,2.69,0,0,0-.38,1.7v.82a2.69,2.69,0,0,0,.38,1.7,1.29,1.29,0,0,0,1,.42,1.45,1.45,0,0,0,1.31-.83Z"/><path class="cls-2" d="M229.76,48.58l-.87.39a1,1,0,0,0-1-.73c-1,0-1.46.91-1.46,2.72v3.13h-1V47.46h1v1.06a1.79,1.79,0,0,1,1.62-1.18A1.74,1.74,0,0,1,229.76,48.58Z"/><path class="cls-2" d="M235.42,51h-3.48v.2a2.71,2.71,0,0,0,.38,1.71,1.3,1.3,0,0,0,1,.42,1.46,1.46,0,0,0,1.31-.83l.8.52a2.41,2.41,0,0,1-2.18,1.21,2.17,2.17,0,0,1-1.67-.72,3.44,3.44,0,0,1-.65-2.31v-.8a3.4,3.4,0,0,1,.65-2.3,2.17,2.17,0,0,1,3.19-.06,3.15,3.15,0,0,1,.63,2.19Zm-1-.87a2.24,2.24,0,0,0-.35-1.44,1.08,1.08,0,0,0-.88-.42,1.11,1.11,0,0,0-.88.42,2.17,2.17,0,0,0-.37,1.44Z"/><path class="cls-2" d="M241.73,53.17a2.13,2.13,0,0,1-1.86,1,1.77,1.77,0,0,1-1.3-.52,2.11,2.11,0,0,1-.52-1.55V48.31h-1.11v-.85h1.11V45.15h1v2.31h2.23v.85h-2.23v3.88a1.25,1.25,0,0,0,.23.83.79.79,0,0,0,.65.28,1.14,1.14,0,0,0,1-.68Z"/><path class="cls-2" d="M245.37,54.09V46.35l-1.68,1.32-.45-.76,2.24-1.76h.89v8.94Z"/><path class="cls-2" d="M183.82,68v.5h-1V68a20.82,20.82,0,0,1,.77-4.32l1-4.12h1.13l1,4.12a20.82,20.82,0,0,1,.77,4.32v.5h-1V68a10.28,10.28,0,0,0-.17-1.59H184A11.42,11.42,0,0,0,183.82,68Zm1.37-6.86-.75,3.1c-.12.47-.21.91-.3,1.32h2.08c-.08-.41-.18-.85-.29-1.32Z"/><path class="cls-2" d="M193.51,65.64a3.47,3.47,0,0,1-.6,2.27,1.74,1.74,0,0,1-1.33.69,1.68,1.68,0,0,1-1.54-.92v2.88h-1v-8.7h1v.78a1.68,1.68,0,0,1,1.54-.9,1.74,1.74,0,0,1,1.33.69,3.47,3.47,0,0,1,.6,2.29Zm-1-.92a3,3,0,0,0-.32-1.62,1,1,0,0,0-.83-.46c-.65,0-1.09.45-1.29,1.36v2.33c.2.91.63,1.37,1.29,1.37a1,1,0,0,0,.83-.46,3,3,0,0,0,.32-1.6Z"/><path class="cls-2" d="M199.51,65.64a3.47,3.47,0,0,1-.6,2.27,1.74,1.74,0,0,1-1.33.69,1.68,1.68,0,0,1-1.54-.92v2.88h-1v-8.7h1v.78a1.68,1.68,0,0,1,1.54-.9,1.74,1.74,0,0,1,1.33.69,3.47,3.47,0,0,1,.6,2.29Zm-1-.92a3,3,0,0,0-.32-1.62,1,1,0,0,0-.83-.46c-.65,0-1.09.45-1.29,1.36v2.33c.2.91.63,1.37,1.29,1.37a1,1,0,0,0,.83-.46,3,3,0,0,0,.32-1.6Z"/><path class="cls-2" d="M203.37,68.49V60.75l-1.68,1.32-.45-.76,2.24-1.76h.89v8.94Z"/><path class="cls-2" d="M211.56,66.41a2.13,2.13,0,0,1-2.28,2.19,2.6,2.6,0,0,1-2.47-1.47l.74-.55a1.84,1.84,0,0,0,1.72,1.12,1.37,1.37,0,0,0,.91-.32,1.19,1.19,0,0,0,.38-1,1.7,1.7,0,0,0-.65-1.14L208,63.48a2.49,2.49,0,0,1-.8-1.9,2.08,2.08,0,0,1,2.21-2.16,2.53,2.53,0,0,1,2.17,1.23l-.77.6a1.53,1.53,0,0,0-1.4-.92,1.28,1.28,0,0,0-.87.3,1.18,1.18,0,0,0-.35.94,1.54,1.54,0,0,0,.53,1.16l1.91,1.78A2.59,2.59,0,0,1,211.56,66.41Z"/><path class="cls-2" d="M217.42,65.37h-3.48v.2a2.71,2.71,0,0,0,.38,1.71,1.3,1.3,0,0,0,1,.42,1.46,1.46,0,0,0,1.31-.83l.8.52a2.41,2.41,0,0,1-2.18,1.21,2.17,2.17,0,0,1-1.67-.72,3.44,3.44,0,0,1-.65-2.31v-.8a3.4,3.4,0,0,1,.65-2.3,2.17,2.17,0,0,1,3.19-.06,3.15,3.15,0,0,1,.63,2.19Zm-1-.87a2.24,2.24,0,0,0-.35-1.44,1.08,1.08,0,0,0-.88-.42,1.11,1.11,0,0,0-.88.42,2.17,2.17,0,0,0-.37,1.44Z"/><path class="cls-2" d="M223.68,67.39a2.42,2.42,0,0,1-2.18,1.21,2.16,2.16,0,0,1-1.67-.72,3.36,3.36,0,0,1-.65-2.3v-.82a3.33,3.33,0,0,1,.65-2.29,2.13,2.13,0,0,1,1.67-.73A2.41,2.41,0,0,1,223.68,63l-.81.51a1.47,1.47,0,0,0-1.31-.83,1.29,1.29,0,0,0-1,.42,2.69,2.69,0,0,0-.38,1.7v.82a2.69,2.69,0,0,0,.38,1.7,1.29,1.29,0,0,0,1,.42,1.45,1.45,0,0,0,1.31-.83Z"/><path class="cls-2" d="M229.76,63l-.87.38a1,1,0,0,0-1-.72c-1,0-1.46.91-1.46,2.72v3.13h-1V61.86h1v1.06a1.79,1.79,0,0,1,1.62-1.18A1.74,1.74,0,0,1,229.76,63Z"/><path class="cls-2" d="M235.42,65.37h-3.48v.2a2.71,2.71,0,0,0,.38,1.71,1.3,1.3,0,0,0,1,.42,1.46,1.46,0,0,0,1.31-.83l.8.52a2.41,2.41,0,0,1-2.18,1.21,2.17,2.17,0,0,1-1.67-.72,3.44,3.44,0,0,1-.65-2.31v-.8a3.4,3.4,0,0,1,.65-2.3,2.17,2.17,0,0,1,3.19-.06,3.15,3.15,0,0,1,.63,2.19Zm-1-.87a2.24,2.24,0,0,0-.35-1.44,1.08,1.08,0,0,0-.88-.42,1.11,1.11,0,0,0-.88.42,2.17,2.17,0,0,0-.37,1.44Z"/><path class="cls-2" d="M241.73,67.57a2.13,2.13,0,0,1-1.86,1,1.77,1.77,0,0,1-1.3-.52,2.11,2.11,0,0,1-.52-1.55V62.71h-1.11v-.85h1.11V59.55h1v2.31h2.23v.85h-2.23v3.88a1.25,1.25,0,0,0,.23.83.79.79,0,0,0,.65.28,1.14,1.14,0,0,0,1-.68Z"/><path class="cls-2" d="M247.37,68.49h-4.14v-.85a5.15,5.15,0,0,1,1.32-3.06l1.33-1.71a2,2,0,0,0,.5-1.25,1.33,1.33,0,0,0-.32-1,1.18,1.18,0,0,0-.87-.32,1.45,1.45,0,0,0-1.37,1.14L243,60.9a2.39,2.39,0,0,1,2.19-1.48,2.17,2.17,0,0,1,2.18,2.21,3.07,3.07,0,0,1-.77,1.92l-1.3,1.67a4.15,4.15,0,0,0-1.07,2.42h3.14Z"/><path class="cls-2" d="M171.82,82.39v.5h-1v-.5a20.82,20.82,0,0,1,.77-4.32l1-4.12h1.13l1,4.12a20.82,20.82,0,0,1,.77,4.32v.5h-1v-.5a10.28,10.28,0,0,0-.17-1.59H172A11.42,11.42,0,0,0,171.82,82.39Zm1.37-6.86-.75,3.1c-.12.47-.21.91-.3,1.32h2.08c-.08-.41-.18-.85-.29-1.32Z"/><path class="cls-2" d="M181.51,80a3.47,3.47,0,0,1-.6,2.27,1.74,1.74,0,0,1-1.33.69,1.66,1.66,0,0,1-1.54-.92V85h-1v-8.7h1V77a1.68,1.68,0,0,1,1.54-.9,1.74,1.74,0,0,1,1.33.69,3.47,3.47,0,0,1,.6,2.29Zm-1-.92a3,3,0,0,0-.32-1.62,1,1,0,0,0-.83-.46c-.65,0-1.09.45-1.29,1.36v2.33c.2.91.63,1.37,1.29,1.37a1,1,0,0,0,.83-.46,3,3,0,0,0,.32-1.6Z"/><path class="cls-2" d="M187.51,80a3.47,3.47,0,0,1-.6,2.27,1.74,1.74,0,0,1-1.33.69,1.66,1.66,0,0,1-1.54-.92V85h-1v-8.7h1V77a1.68,1.68,0,0,1,1.54-.9,1.74,1.74,0,0,1,1.33.69,3.47,3.47,0,0,1,.6,2.29Zm-1-.92a3,3,0,0,0-.32-1.62,1,1,0,0,0-.83-.46c-.65,0-1.09.45-1.29,1.36v2.33c.2.91.63,1.37,1.29,1.37a1,1,0,0,0,.83-.46,3,3,0,0,0,.32-1.6Z"/><path class="cls-2" d="M193.37,82.89h-4.14V82A5.15,5.15,0,0,1,190.55,79l1.33-1.71a2,2,0,0,0,.5-1.24,1.34,1.34,0,0,0-.32-1,1.18,1.18,0,0,0-.87-.32,1.45,1.45,0,0,0-1.37,1.14L189,75.3a2.39,2.39,0,0,1,2.19-1.48A2.17,2.17,0,0,1,193.37,76,3.07,3.07,0,0,1,192.6,78l-1.3,1.67A4.15,4.15,0,0,0,190.23,82h3.14Z"/><path class="cls-2" d="M183.82,96.79v.5h-1v-.5a20.82,20.82,0,0,1,.77-4.32l1-4.12h1.13l1,4.12a20.82,20.82,0,0,1,.77,4.32v.5h-1v-.5a10.28,10.28,0,0,0-.17-1.59H184A11.42,11.42,0,0,0,183.82,96.79Zm1.37-6.86-.75,3.1c-.12.47-.21.91-.3,1.32h2.08c-.08-.41-.18-.85-.29-1.32Z"/><path class="cls-2" d="M193.51,94.44a3.47,3.47,0,0,1-.6,2.27,1.74,1.74,0,0,1-1.33.69,1.68,1.68,0,0,1-1.54-.92v2.88h-1v-8.7h1v.78a1.68,1.68,0,0,1,1.54-.9,1.74,1.74,0,0,1,1.33.69,3.47,3.47,0,0,1,.6,2.29Zm-1-.92a3,3,0,0,0-.32-1.62,1,1,0,0,0-.83-.46c-.65,0-1.09.45-1.29,1.36v2.33c.2.91.63,1.37,1.29,1.37a1,1,0,0,0,.83-.46,3,3,0,0,0,.32-1.6Z"/><path class="cls-2" d="M199.51,94.44a3.47,3.47,0,0,1-.6,2.27,1.74,1.74,0,0,1-1.33.69,1.68,1.68,0,0,1-1.54-.92v2.88h-1v-8.7h1v.78a1.68,1.68,0,0,1,1.54-.9,1.74,1.74,0,0,1,1.33.69,3.47,3.47,0,0,1,.6,2.29Zm-1-.92a3,3,0,0,0-.32-1.62,1,1,0,0,0-.83-.46c-.65,0-1.09.45-1.29,1.36v2.33c.2.91.63,1.37,1.29,1.37a1,1,0,0,0,.83-.46,3,3,0,0,0,.32-1.6Z"/><path class="cls-2" d="M205.37,97.29h-4.14v-.85a5.15,5.15,0,0,1,1.32-3.06l1.33-1.71a2,2,0,0,0,.5-1.24,1.34,1.34,0,0,0-.32-1,1.18,1.18,0,0,0-.87-.32,1.45,1.45,0,0,0-1.37,1.14L201,89.7a2.39,2.39,0,0,1,2.19-1.48,2.17,2.17,0,0,1,2.18,2.21,3.07,3.07,0,0,1-.77,1.92L203.3,94a4.15,4.15,0,0,0-1.07,2.42h3.14Z"/><path class="cls-2" d="M211.56,95.21a2.13,2.13,0,0,1-2.28,2.19,2.6,2.6,0,0,1-2.47-1.47l.74-.55a1.84,1.84,0,0,0,1.72,1.12,1.37,1.37,0,0,0,.91-.32,1.19,1.19,0,0,0,.38-1,1.7,1.7,0,0,0-.65-1.14L208,92.28a2.49,2.49,0,0,1-.8-1.9,2.08,2.08,0,0,1,2.21-2.16,2.53,2.53,0,0,1,2.17,1.23l-.77.6a1.53,1.53,0,0,0-1.4-.92,1.28,1.28,0,0,0-.87.3,1.18,1.18,0,0,0-.35.94,1.54,1.54,0,0,0,.53,1.16l1.91,1.78A2.59,2.59,0,0,1,211.56,95.21Z"/><path class="cls-2" d="M217.42,94.18h-3.48v.19a2.71,2.71,0,0,0,.38,1.71,1.3,1.3,0,0,0,1,.42,1.47,1.47,0,0,0,1.31-.82l.8.51a2.41,2.41,0,0,1-2.18,1.21,2.17,2.17,0,0,1-1.67-.72,3.43,3.43,0,0,1-.65-2.31v-.8a3.4,3.4,0,0,1,.65-2.3,2.17,2.17,0,0,1,3.19-.06,3.15,3.15,0,0,1,.63,2.19Zm-1-.88a2.24,2.24,0,0,0-.35-1.44,1.08,1.08,0,0,0-.88-.42,1.11,1.11,0,0,0-.88.42,2.17,2.17,0,0,0-.37,1.44Z"/><path class="cls-2" d="M223.68,96.19a2.42,2.42,0,0,1-2.18,1.21,2.16,2.16,0,0,1-1.67-.72,3.36,3.36,0,0,1-.65-2.3v-.82a3.33,3.33,0,0,1,.65-2.29,2.13,2.13,0,0,1,1.67-.73,2.41,2.41,0,0,1,2.18,1.22l-.81.51a1.47,1.47,0,0,0-1.31-.83,1.29,1.29,0,0,0-1,.42,2.69,2.69,0,0,0-.38,1.7v.82a2.69,2.69,0,0,0,.38,1.7,1.29,1.29,0,0,0,1,.42,1.46,1.46,0,0,0,1.31-.82Z"/><path class="cls-2" d="M229.76,91.78l-.87.39a1,1,0,0,0-1-.73c-1,0-1.46.91-1.46,2.72v3.13h-1V90.66h1v1.06a1.79,1.79,0,0,1,1.62-1.18A1.74,1.74,0,0,1,229.76,91.78Z"/><path class="cls-2" d="M235.42,94.18h-3.48v.19a2.71,2.71,0,0,0,.38,1.71,1.3,1.3,0,0,0,1,.42,1.47,1.47,0,0,0,1.31-.82l.8.51a2.41,2.41,0,0,1-2.18,1.21,2.17,2.17,0,0,1-1.67-.72,3.43,3.43,0,0,1-.65-2.31v-.8a3.4,3.4,0,0,1,.65-2.3,2.17,2.17,0,0,1,3.19-.06,3.15,3.15,0,0,1,.63,2.19Zm-1-.88a2.24,2.24,0,0,0-.35-1.44,1.08,1.08,0,0,0-.88-.42,1.11,1.11,0,0,0-.88.42,2.17,2.17,0,0,0-.37,1.44Z"/><path class="cls-2" d="M241.73,96.37a2.13,2.13,0,0,1-1.86,1,1.77,1.77,0,0,1-1.3-.52,2.11,2.11,0,0,1-.52-1.55V91.51h-1.11v-.85h1.11V88.35h1v2.31h2.23v.85h-2.23v3.88a1.25,1.25,0,0,0,.23.83.79.79,0,0,0,.65.28,1.14,1.14,0,0,0,1-.68Z"/><path class="cls-2" d="M245.37,97.29V89.55l-1.68,1.32-.45-.76,2.24-1.76h.89v8.94Z"/><path class="cls-2" d="M175.34,109a3,3,0,0,1-.63,2.12,2,2,0,0,1-1.52.67,2,2,0,0,1-1.53-.67A3,3,0,0,1,171,109v-6.26h1V109a2.43,2.43,0,0,0,.33,1.5,1,1,0,0,0,.82.39,1.06,1.06,0,0,0,.83-.39,2.43,2.43,0,0,0,.33-1.5v-6.26h1Z"/><path class="cls-2" d="M179.21,110.92a1.32,1.32,0,0,0,.94-.29,1,1,0,0,0,.32-.72,1,1,0,0,0-.71-.9l-1.28-.59a1.73,1.73,0,0,1-.6-3,2.13,2.13,0,0,1,1.51-.53,2.22,2.22,0,0,1,2,1.22l-.81.49a1.27,1.27,0,0,0-1.23-.83,1.17,1.17,0,0,0-.8.26.8.8,0,0,0-.3.64c0,.34.22.61.66.82l1.21.57a2,2,0,0,1,1.31,1.85,1.72,1.72,0,0,1-.61,1.29,2.38,2.38,0,0,1-1.66.55,2.56,2.56,0,0,1-2.29-1.35l.82-.5A1.57,1.57,0,0,0,179.21,110.92Z"/><path class="cls-2" d="M187.42,108.57h-3.48v.2a2.71,2.71,0,0,0,.38,1.71,1.3,1.3,0,0,0,1,.42,1.46,1.46,0,0,0,1.31-.83l.8.52a2.41,2.41,0,0,1-2.18,1.21,2.17,2.17,0,0,1-1.67-.72,3.44,3.44,0,0,1-.65-2.31V108a3.4,3.4,0,0,1,.65-2.3,2.17,2.17,0,0,1,3.19-.06,3.15,3.15,0,0,1,.63,2.19Zm-1-.87a2.24,2.24,0,0,0-.35-1.44,1.08,1.08,0,0,0-.88-.42,1.11,1.11,0,0,0-.88.42,2.17,2.17,0,0,0-.37,1.44Z"/><path class="cls-2" d="M193.76,106.18l-.87.39a1,1,0,0,0-1-.73c-1,0-1.46.91-1.46,2.72v3.13h-1v-6.63h1v1.06a1.79,1.79,0,0,1,1.62-1.18A1.74,1.74,0,0,1,193.76,106.18Z"/><path class="cls-2" d="M197.21,110.92a1.32,1.32,0,0,0,.94-.29,1,1,0,0,0,.32-.72,1,1,0,0,0-.71-.9l-1.28-.59a1.73,1.73,0,0,1-.6-3,2.13,2.13,0,0,1,1.51-.53,2.22,2.22,0,0,1,2,1.22l-.81.49a1.27,1.27,0,0,0-1.23-.83,1.17,1.17,0,0,0-.8.26.8.8,0,0,0-.3.64c0,.34.22.61.66.82l1.21.57a2,2,0,0,1,1.31,1.85,1.72,1.72,0,0,1-.61,1.29,2.38,2.38,0,0,1-1.66.55,2.56,2.56,0,0,1-2.29-1.35l.82-.5A1.57,1.57,0,0,0,197.21,110.92Z"/><path class="cls-2" d="M187.34,123.41a3,3,0,0,1-.63,2.12,2,2,0,0,1-1.52.67,2,2,0,0,1-1.53-.67,3,3,0,0,1-.62-2.12v-6.26h1v6.26a2.43,2.43,0,0,0,.33,1.5,1,1,0,0,0,.82.39,1.06,1.06,0,0,0,.83-.39,2.43,2.43,0,0,0,.33-1.5v-6.26h1Z"/><path class="cls-2" d="M191.21,125.32a1.32,1.32,0,0,0,.94-.29,1,1,0,0,0,.32-.72,1,1,0,0,0-.71-.9l-1.28-.59a1.73,1.73,0,0,1-.6-2.95,2.13,2.13,0,0,1,1.51-.53,2.22,2.22,0,0,1,2,1.22l-.81.49a1.27,1.27,0,0,0-1.23-.83,1.17,1.17,0,0,0-.8.26.8.8,0,0,0-.3.64c0,.34.22.61.66.82l1.21.57a2,2,0,0,1,1.31,1.85,1.72,1.72,0,0,1-.61,1.29,2.38,2.38,0,0,1-1.66.55,2.56,2.56,0,0,1-2.29-1.35l.82-.5A1.57,1.57,0,0,0,191.21,125.32Z"/><path class="cls-2" d="M199.42,123h-3.48v.2a2.71,2.71,0,0,0,.38,1.71,1.3,1.3,0,0,0,1,.42,1.46,1.46,0,0,0,1.31-.83l.8.52a2.41,2.41,0,0,1-2.18,1.21,2.17,2.17,0,0,1-1.67-.72,3.44,3.44,0,0,1-.65-2.31v-.8a3.4,3.4,0,0,1,.65-2.3,2.17,2.17,0,0,1,3.19-.06,3.15,3.15,0,0,1,.63,2.19Zm-1-.87a2.24,2.24,0,0,0-.35-1.44,1.08,1.08,0,0,0-.88-.42,1.11,1.11,0,0,0-.88.42,2.17,2.17,0,0,0-.37,1.44Z"/><path class="cls-2" d="M205.76,120.58l-.87.39a1,1,0,0,0-1-.73c-1,0-1.46.91-1.46,2.72v3.13h-1v-6.63h1v1.06a1.79,1.79,0,0,1,1.62-1.18A1.74,1.74,0,0,1,205.76,120.58Z"/><path class="cls-2" d="M209.37,126.09v-7.74l-1.68,1.32-.45-.76,2.24-1.76h.89v8.94Z"/><path class="cls-2" d="M196.31,140.49h-1v-8.94h2a2.37,2.37,0,0,1,1.8.65,2.44,2.44,0,0,1,.61,1.72,2.49,2.49,0,0,1-.67,1.86,2.38,2.38,0,0,1-1.74.65h-1Zm0-4.91h.95a1.39,1.39,0,0,0,1-.35,1.87,1.87,0,0,0,.35-1.31,1.72,1.72,0,0,0-.32-1.17,1.42,1.42,0,0,0-1.07-.35h-.95Z"/><path class="cls-2" d="M205.34,140.49h-1v-.86a1.84,1.84,0,0,1-1.55,1,1.61,1.61,0,0,1-1.24-.55,3,3,0,0,1-.51-2v-4.19h1v4.19a2.26,2.26,0,0,0,.27,1.31.89.89,0,0,0,.74.34c.66,0,1.09-.43,1.3-1.29v-4.55h1Z"/><path class="cls-2" d="M211.51,137.63a3.59,3.59,0,0,1-.57,2.28,1.71,1.71,0,0,1-1.36.69,1.68,1.68,0,0,1-1.54-.9v.79h-1v-8.94h1v3.11a1.68,1.68,0,0,1,1.54-.92,1.71,1.71,0,0,1,1.36.69,3.65,3.65,0,0,1,.57,2.29Zm-1,0v-.91a3.3,3.3,0,0,0-.29-1.62,1,1,0,0,0-.86-.46q-1,0-1.29,1.32v2.42c.2.88.64,1.32,1.29,1.32a1,1,0,0,0,.86-.46A3.23,3.23,0,0,0,210.48,137.63Z"/><path class="cls-2" d="M217.28,140.49h-4.19v-.85h1.6V132.4h-1.14v-.85h2.13v8.09h1.6Z"/><path class="cls-2" d="M223.32,140.49h-4.17v-.85h1.59v-4.93H219.6v-.85h2.14v5.78h1.58Zm-1.5-8.88a.73.73,0,0,1-.22.54.75.75,0,0,1-.55.23.77.77,0,0,1,0-1.54.75.75,0,0,1,.55.23A.73.73,0,0,1,221.82,131.61Z"/><path class="cls-2" d="M229.68,139.39a2.42,2.42,0,0,1-2.18,1.21,2.16,2.16,0,0,1-1.67-.72,3.36,3.36,0,0,1-.65-2.3v-.82a3.33,3.33,0,0,1,.65-2.29,2.13,2.13,0,0,1,1.67-.73,2.41,2.41,0,0,1,2.18,1.22l-.81.51a1.47,1.47,0,0,0-1.31-.83,1.29,1.29,0,0,0-1,.42,2.69,2.69,0,0,0-.38,1.7v.82a2.69,2.69,0,0,0,.38,1.7,1.29,1.29,0,0,0,1,.42,1.46,1.46,0,0,0,1.31-.82Z"/><path class="cls-2" d="M238.31,131.55v4.27l1.52-2.23a4.34,4.34,0,0,0,.82-1.72l0-.32h1l-.05.43a5.83,5.83,0,0,1-1,2.13l-.92,1.38,1.32,2.25a6,6,0,0,1,.91,2.35l.06.4h-1l0-.31a5.23,5.23,0,0,0-.72-2l-1.2-2-.7,1v3.24h-1v-8.94Z"/><path class="cls-2" d="M247.42,137.38h-3.48v.19a2.71,2.71,0,0,0,.38,1.71,1.3,1.3,0,0,0,1,.42,1.47,1.47,0,0,0,1.31-.82l.8.51a2.41,2.41,0,0,1-2.18,1.21,2.17,2.17,0,0,1-1.67-.72,3.43,3.43,0,0,1-.65-2.31v-.8a3.4,3.4,0,0,1,.65-2.3,2.17,2.17,0,0,1,3.19-.06,3.15,3.15,0,0,1,.63,2.19Zm-1-.88a2.24,2.24,0,0,0-.35-1.44,1.08,1.08,0,0,0-.88-.42,1.11,1.11,0,0,0-.88.42,2.17,2.17,0,0,0-.37,1.44Z"/><path class="cls-2" d="M250,141.56l.76-2-1.37-3.38a6.75,6.75,0,0,1-.54-1.83l0-.51h1l0,.47a6.86,6.86,0,0,0,.46,1.59l.92,2.5.92-2.47a7.77,7.77,0,0,0,.45-1.62l0-.47h1l0,.51a7.13,7.13,0,0,1-.52,1.83l-2.12,5.49a2.08,2.08,0,0,0-.13.65l0,.22h-1v-.22A2.92,2.92,0,0,1,250,141.56Z"/><path class="cls-2" d="M195.82,154.39v.5h-1v-.5a20.82,20.82,0,0,1,.77-4.32l1-4.12h1.13l1,4.12a20.82,20.82,0,0,1,.77,4.32v.5h-1v-.5a10.28,10.28,0,0,0-.17-1.59H196A11.42,11.42,0,0,0,195.82,154.39Zm1.37-6.86-.75,3.1c-.12.47-.21.91-.3,1.32h2.08c-.08-.41-.18-.85-.29-1.32Z"/><path class="cls-2" d="M205.51,152a3.47,3.47,0,0,1-.6,2.27,1.74,1.74,0,0,1-1.33.69,1.68,1.68,0,0,1-1.54-.92V157h-1v-8.7h1V149a1.68,1.68,0,0,1,1.54-.9,1.74,1.74,0,0,1,1.33.69,3.47,3.47,0,0,1,.6,2.29Zm-1-.92a3,3,0,0,0-.32-1.62,1,1,0,0,0-.83-.46c-.65,0-1.09.45-1.29,1.36v2.33c.2.91.63,1.37,1.29,1.37a1,1,0,0,0,.83-.46,3,3,0,0,0,.32-1.6Z"/><path class="cls-2" d="M211.51,152a3.47,3.47,0,0,1-.6,2.27,1.74,1.74,0,0,1-1.33.69,1.68,1.68,0,0,1-1.54-.92V157h-1v-8.7h1V149a1.68,1.68,0,0,1,1.54-.9,1.74,1.74,0,0,1,1.33.69,3.47,3.47,0,0,1,.6,2.29Zm-1-.92a3,3,0,0,0-.32-1.62,1,1,0,0,0-.83-.46c-.65,0-1.09.45-1.29,1.36v2.33c.2.91.63,1.37,1.29,1.37a1,1,0,0,0,.83-.46,3,3,0,0,0,.32-1.6Z"/><path class="cls-2" d="M215.37,154.89v-7.74l-1.68,1.32-.45-.76,2.24-1.76h.89v8.94Z"/><path class="cls-2" d="M187.34,166.61a3,3,0,0,1-.63,2.12,2,2,0,0,1-1.52.67,2,2,0,0,1-1.53-.67,3,3,0,0,1-.62-2.12v-6.26h1v6.26a2.43,2.43,0,0,0,.33,1.5,1,1,0,0,0,.82.39,1.06,1.06,0,0,0,.83-.39,2.43,2.43,0,0,0,.33-1.5v-6.26h1Z"/><path class="cls-2" d="M191.21,168.52a1.32,1.32,0,0,0,.94-.29,1,1,0,0,0,.32-.72,1,1,0,0,0-.71-.9l-1.28-.59a1.73,1.73,0,0,1-.6-3,2.13,2.13,0,0,1,1.51-.53,2.22,2.22,0,0,1,2,1.22l-.81.49a1.27,1.27,0,0,0-1.23-.83,1.17,1.17,0,0,0-.8.26.8.8,0,0,0-.3.64c0,.34.22.61.66.82l1.21.57a2,2,0,0,1,1.31,1.85,1.72,1.72,0,0,1-.61,1.29,2.38,2.38,0,0,1-1.66.55,2.56,2.56,0,0,1-2.29-1.35l.82-.5A1.57,1.57,0,0,0,191.21,168.52Z"/><path class="cls-2" d="M199.42,166.18h-3.48v.19a2.71,2.71,0,0,0,.38,1.71,1.3,1.3,0,0,0,1,.42,1.47,1.47,0,0,0,1.31-.82l.8.51a2.41,2.41,0,0,1-2.18,1.21,2.17,2.17,0,0,1-1.67-.72,3.43,3.43,0,0,1-.65-2.31v-.8a3.4,3.4,0,0,1,.65-2.3,2.17,2.17,0,0,1,3.19-.06,3.15,3.15,0,0,1,.63,2.19Zm-1-.88a2.24,2.24,0,0,0-.35-1.44,1.08,1.08,0,0,0-.88-.42,1.11,1.11,0,0,0-.88.42,2.17,2.17,0,0,0-.37,1.44Z"/><path class="cls-2" d="M205.76,163.78l-.87.39a1,1,0,0,0-1-.73c-1,0-1.46.91-1.46,2.72v3.13h-1v-6.63h1v1.06a1.79,1.79,0,0,1,1.62-1.18A1.74,1.74,0,0,1,205.76,163.78Z"/><path class="cls-2" d="M211.37,169.29h-4.14v-.85a5.15,5.15,0,0,1,1.32-3.06l1.33-1.71a2,2,0,0,0,.5-1.24,1.34,1.34,0,0,0-.32-1,1.18,1.18,0,0,0-.87-.32,1.45,1.45,0,0,0-1.37,1.14l-.82-.57a2.39,2.39,0,0,1,2.19-1.48,2.17,2.17,0,0,1,2.18,2.21,3.07,3.07,0,0,1-.77,1.92L209.3,166a4.15,4.15,0,0,0-1.07,2.42h3.14Z"/><path class="cls-2" d="M196.31,183.69h-1v-8.94h2a2.37,2.37,0,0,1,1.8.65,2.42,2.42,0,0,1,.61,1.72A2.49,2.49,0,0,1,199,179a2.38,2.38,0,0,1-1.74.65h-1Zm0-4.91h.95a1.39,1.39,0,0,0,1-.35,1.87,1.87,0,0,0,.35-1.31,1.72,1.72,0,0,0-.32-1.17,1.42,1.42,0,0,0-1.07-.35h-.95Z"/><path class="cls-2" d="M205.34,183.69h-1v-.86a1.84,1.84,0,0,1-1.55,1,1.61,1.61,0,0,1-1.24-.55,3,3,0,0,1-.51-2v-4.19h1v4.19a2.26,2.26,0,0,0,.27,1.31.89.89,0,0,0,.74.34c.66,0,1.09-.43,1.3-1.29v-4.55h1Z"/><path class="cls-2" d="M211.51,180.83a3.59,3.59,0,0,1-.57,2.28,1.71,1.71,0,0,1-1.36.69,1.67,1.67,0,0,1-1.54-.91v.8h-1v-8.94h1v3.11a1.66,1.66,0,0,1,1.54-.92,1.71,1.71,0,0,1,1.36.69,3.65,3.65,0,0,1,.57,2.29Zm-1,0v-.91a3.25,3.25,0,0,0-.29-1.62,1,1,0,0,0-.86-.46q-1,0-1.29,1.32v2.42c.2.88.64,1.32,1.29,1.32a1,1,0,0,0,.86-.46A3.23,3.23,0,0,0,210.48,180.83Z"/><path class="cls-2" d="M217.28,183.69h-4.19v-.85h1.6V175.6h-1.14v-.85h2.13v8.09h1.6Z"/><path class="cls-2" d="M223.32,183.69h-4.17v-.85h1.59v-4.93H219.6v-.85h2.14v5.78h1.58Zm-1.5-8.88a.73.73,0,0,1-.22.54.75.75,0,0,1-.55.23.77.77,0,0,1,0-1.54.75.75,0,0,1,.55.23A.73.73,0,0,1,221.82,174.81Z"/><path class="cls-2" d="M229.68,182.59a2.42,2.42,0,0,1-2.18,1.21,2.16,2.16,0,0,1-1.67-.72,3.36,3.36,0,0,1-.65-2.3V180a3.33,3.33,0,0,1,.65-2.29,2.13,2.13,0,0,1,1.67-.73,2.41,2.41,0,0,1,2.18,1.22l-.81.51a1.47,1.47,0,0,0-1.31-.83,1.29,1.29,0,0,0-1,.42,2.69,2.69,0,0,0-.38,1.7v.82a2.69,2.69,0,0,0,.38,1.7,1.29,1.29,0,0,0,1,.42,1.45,1.45,0,0,0,1.31-.83Z"/><path class="cls-2" d="M238.31,174.75V179l1.52-2.23a4.34,4.34,0,0,0,.82-1.72l0-.32h1l-.05.43a5.9,5.9,0,0,1-1,2.13l-.92,1.38,1.32,2.25a6,6,0,0,1,.91,2.35l.06.4h-1l0-.31a5.23,5.23,0,0,0-.72-2l-1.2-2-.7,1v3.24h-1v-8.94Z"/><path class="cls-2" d="M247.42,180.57h-3.48v.2a2.71,2.71,0,0,0,.38,1.71,1.3,1.3,0,0,0,1,.42,1.46,1.46,0,0,0,1.31-.83l.8.52a2.41,2.41,0,0,1-2.18,1.21,2.17,2.17,0,0,1-1.67-.72,3.44,3.44,0,0,1-.65-2.31V180a3.4,3.4,0,0,1,.65-2.3,2.17,2.17,0,0,1,3.19-.06,3.15,3.15,0,0,1,.63,2.19Zm-1-.87a2.24,2.24,0,0,0-.35-1.44,1.08,1.08,0,0,0-.88-.42,1.11,1.11,0,0,0-.88.42,2.17,2.17,0,0,0-.37,1.44Z"/><path class="cls-2" d="M250,184.76l.76-2-1.37-3.38a6.75,6.75,0,0,1-.54-1.83l0-.51h1l0,.47a6.86,6.86,0,0,0,.46,1.59l.92,2.5.92-2.47a7.94,7.94,0,0,0,.45-1.62l0-.47h1l0,.51a7.13,7.13,0,0,1-.52,1.83l-2.12,5.49a2.08,2.08,0,0,0-.13.65l0,.22h-1v-.22A2.92,2.92,0,0,1,250,184.76Z"/><path class="cls-2" d="M195.82,197.59v.5h-1v-.5a20.82,20.82,0,0,1,.77-4.32l1-4.12h1.13l1,4.12a20.82,20.82,0,0,1,.77,4.32v.5h-1v-.5a10.28,10.28,0,0,0-.17-1.59H196A11.42,11.42,0,0,0,195.82,197.59Zm1.37-6.86-.75,3.1c-.12.47-.21.91-.3,1.32h2.08c-.08-.41-.18-.85-.29-1.32Z"/><path class="cls-2" d="M205.51,195.24a3.47,3.47,0,0,1-.6,2.27,1.74,1.74,0,0,1-1.33.69,1.68,1.68,0,0,1-1.54-.92v2.88h-1v-8.7h1v.78a1.68,1.68,0,0,1,1.54-.9,1.74,1.74,0,0,1,1.33.69,3.47,3.47,0,0,1,.6,2.29Zm-1-.92a3,3,0,0,0-.32-1.62,1,1,0,0,0-.83-.46c-.65,0-1.09.45-1.29,1.36v2.33c.2.91.63,1.37,1.29,1.37a1,1,0,0,0,.83-.46,3,3,0,0,0,.32-1.6Z"/><path class="cls-2" d="M211.51,195.24a3.47,3.47,0,0,1-.6,2.27,1.74,1.74,0,0,1-1.33.69,1.68,1.68,0,0,1-1.54-.92v2.88h-1v-8.7h1v.78a1.68,1.68,0,0,1,1.54-.9,1.74,1.74,0,0,1,1.33.69,3.47,3.47,0,0,1,.6,2.29Zm-1-.92a3,3,0,0,0-.32-1.62,1,1,0,0,0-.83-.46c-.65,0-1.09.45-1.29,1.36v2.33c.2.91.63,1.37,1.29,1.37a1,1,0,0,0,.83-.46,3,3,0,0,0,.32-1.6Z"/><path class="cls-2" d="M215.37,198.09v-7.74l-1.68,1.32-.45-.76,2.24-1.76h.89v8.94Z"/><path class="cls-2" d="M195.82,212v.5h-1V212a20.82,20.82,0,0,1,.77-4.32l1-4.12h1.13l1,4.12a20.82,20.82,0,0,1,.77,4.32v.5h-1V212a10.28,10.28,0,0,0-.17-1.59H196A11.42,11.42,0,0,0,195.82,212Zm1.37-6.86-.75,3.1c-.12.47-.21.91-.3,1.32h2.08c-.08-.41-.18-.85-.29-1.32Z"/><path class="cls-2" d="M205.51,209.64a3.47,3.47,0,0,1-.6,2.27,1.74,1.74,0,0,1-1.33.69,1.66,1.66,0,0,1-1.54-.92v2.88h-1v-8.7h1v.78a1.68,1.68,0,0,1,1.54-.9,1.74,1.74,0,0,1,1.33.69,3.47,3.47,0,0,1,.6,2.29Zm-1-.92a3,3,0,0,0-.32-1.62,1,1,0,0,0-.83-.46c-.65,0-1.09.45-1.29,1.36v2.33c.2.91.63,1.37,1.29,1.37a1,1,0,0,0,.83-.46,3,3,0,0,0,.32-1.6Z"/><path class="cls-2" d="M211.51,209.64a3.47,3.47,0,0,1-.6,2.27,1.74,1.74,0,0,1-1.33.69,1.66,1.66,0,0,1-1.54-.92v2.88h-1v-8.7h1v.78a1.68,1.68,0,0,1,1.54-.9,1.74,1.74,0,0,1,1.33.69,3.47,3.47,0,0,1,.6,2.29Zm-1-.92a3,3,0,0,0-.32-1.62,1,1,0,0,0-.83-.46c-.65,0-1.09.45-1.29,1.36v2.33c.2.91.63,1.37,1.29,1.37a1,1,0,0,0,.83-.46,3,3,0,0,0,.32-1.6Z"/><path class="cls-2" d="M217.37,212.49h-4.14v-.85a5.15,5.15,0,0,1,1.32-3.06l1.33-1.71a2,2,0,0,0,.5-1.24,1.34,1.34,0,0,0-.32-1,1.18,1.18,0,0,0-.87-.32,1.45,1.45,0,0,0-1.37,1.14l-.82-.57a2.39,2.39,0,0,1,2.19-1.48,2.17,2.17,0,0,1,2.18,2.21,3.07,3.07,0,0,1-.77,1.92l-1.3,1.67a4.15,4.15,0,0,0-1.07,2.42h3.14Z"/><path class="cls-2" d="M9.53,37a3,3,0,0,1-.63,2.12,2,2,0,0,1-1.52.67,2,2,0,0,1-1.53-.67A3.09,3.09,0,0,1,5.23,37V30.75h1V37a2.35,2.35,0,0,0,.34,1.5,1,1,0,0,0,.82.39,1.06,1.06,0,0,0,.82-.39A2.43,2.43,0,0,0,8.53,37V30.75h1Z"/><path class="cls-2" d="M13.4,38.92a1.31,1.31,0,0,0,.94-.29,1,1,0,0,0,.32-.72A1,1,0,0,0,14,37l-1.28-.59a1.74,1.74,0,0,1-.6-3,2.14,2.14,0,0,1,1.51-.53,2.22,2.22,0,0,1,2,1.22l-.81.49a1.27,1.27,0,0,0-1.23-.83,1.17,1.17,0,0,0-.8.26.8.8,0,0,0-.3.64c0,.34.22.61.66.82l1.21.57A2,2,0,0,1,15.66,38a1.72,1.72,0,0,1-.61,1.29,2.38,2.38,0,0,1-1.66.55,2.56,2.56,0,0,1-2.29-1.35l.82-.5A1.57,1.57,0,0,0,13.4,38.92Z"/><path class="cls-2" d="M21.61,36.57H18.14v.2a2.72,2.72,0,0,0,.37,1.71,1.31,1.31,0,0,0,1,.42,1.46,1.46,0,0,0,1.31-.83l.81.52a2.43,2.43,0,0,1-2.18,1.21,2.14,2.14,0,0,1-1.67-.72,3.39,3.39,0,0,1-.66-2.31V36a3.34,3.34,0,0,1,.66-2.3,2,2,0,0,1,1.58-.73,2.11,2.11,0,0,1,1.61.67,3.2,3.2,0,0,1,.62,2.19Zm-1-.87a2.31,2.31,0,0,0-.34-1.44,1.14,1.14,0,0,0-1.77,0,2.23,2.23,0,0,0-.36,1.44Z"/><path class="cls-2" d="M28,34.18l-.87.39a1,1,0,0,0-1-.73c-1,0-1.46.91-1.46,2.72v3.13h-1V33.06h1v1.06a1.79,1.79,0,0,1,1.62-1.18A1.74,1.74,0,0,1,28,34.18Z"/><path class="cls-2" d="M31.57,39.69V32l-1.69,1.32-.45-.76,2.25-1.76h.88v8.94Z"/><path class="cls-2" d="M18.5,54.09h-1V45.15h1.95a2.19,2.19,0,0,1,2.41,2.37,2.45,2.45,0,0,1-.67,1.86,2.38,2.38,0,0,1-1.74.65h-1Zm0-4.91h.95a1.38,1.38,0,0,0,1-.35,1.87,1.87,0,0,0,.35-1.31,1.72,1.72,0,0,0-.32-1.17A1.42,1.42,0,0,0,19.45,46H18.5Z"/><path class="cls-2" d="M28,48.58l-.87.39a1,1,0,0,0-1-.73c-1,0-1.46.91-1.46,2.72v3.13h-1V47.46h1v1.06a1.79,1.79,0,0,1,1.62-1.18A1.74,1.74,0,0,1,28,48.58Z"/><path class="cls-2" d="M33.52,54.09H29.34v-.85h1.59V48.31H29.79v-.85h2.14v5.78h1.59ZM32,45.21a.77.77,0,0,1-.76.77.75.75,0,0,1-.55-.23.77.77,0,0,1,0-1.08.75.75,0,0,1,.55-.23.77.77,0,0,1,.76.77Z"/><path class="cls-2" d="M38,54.09H36.8l-1.14-3.47A11.64,11.64,0,0,1,35,47.93l0-.47h1l0,.47a12.67,12.67,0,0,0,.57,2.55l.81,2.67.81-2.67a11.84,11.84,0,0,0,.56-2.55l0-.47h1l0,.47a11.51,11.51,0,0,1-.65,2.69Z"/><path class="cls-2" d="M45.38,54.09h-1v-.75a1.91,1.91,0,0,1-1.6.86,1.68,1.68,0,0,1-1.32-.55,2,2,0,0,1-.5-1.4,1.92,1.92,0,0,1,.63-1.46,2.59,2.59,0,0,1,1.84-.58h1v-.72c0-.83-.4-1.25-1.19-1.25a1.43,1.43,0,0,0-1.32.77l-.75-.56a2.41,2.41,0,0,1,2.07-1.11,2.29,2.29,0,0,1,1.57.54,2,2,0,0,1,.61,1.61Zm-1-1.56V51h-1a1.55,1.55,0,0,0-1.08.33,1.2,1.2,0,0,0-.36.91.92.92,0,0,0,1,1A1.59,1.59,0,0,0,44.39,52.53Z"/><path class="cls-2" d="M51.93,53.17a2.16,2.16,0,0,1-1.87,1,1.75,1.75,0,0,1-1.29-.52,2.11,2.11,0,0,1-.53-1.55V48.31H47.13v-.85h1.11V45.15h1v2.31h2.24v.85H49.24v3.88a1.3,1.3,0,0,0,.23.83.79.79,0,0,0,.65.28,1.14,1.14,0,0,0,1.05-.68Z"/><path class="cls-2" d="M57.61,51H54.14v.2a2.72,2.72,0,0,0,.37,1.71,1.31,1.31,0,0,0,1,.42,1.46,1.46,0,0,0,1.31-.83l.81.52a2.43,2.43,0,0,1-2.18,1.21,2.14,2.14,0,0,1-1.67-.72,3.39,3.39,0,0,1-.66-2.31v-.8a3.34,3.34,0,0,1,.66-2.3,2,2,0,0,1,1.58-.73A2.11,2.11,0,0,1,57,48a3.2,3.2,0,0,1,.62,2.19Zm-1-.87a2.31,2.31,0,0,0-.34-1.44,1.14,1.14,0,0,0-1.77,0,2.23,2.23,0,0,0-.36,1.44Z"/><path class="cls-2" d="M66.5,45.15v4.27L68,47.19a4.2,4.2,0,0,0,.82-1.72l0-.32h1l0,.43a5.9,5.9,0,0,1-1,2.13l-.92,1.38,1.32,2.25a6.06,6.06,0,0,1,.92,2.35l.05.4h-1l0-.31a5.06,5.06,0,0,0-.72-2l-1.2-2-.7,1v3.24h-1V45.15Z"/><path class="cls-2" d="M75.61,51H72.14v.2a2.72,2.72,0,0,0,.37,1.71,1.31,1.31,0,0,0,1,.42,1.46,1.46,0,0,0,1.31-.83l.81.52a2.43,2.43,0,0,1-2.18,1.21,2.14,2.14,0,0,1-1.67-.72,3.39,3.39,0,0,1-.66-2.31v-.8a3.34,3.34,0,0,1,.66-2.3,2,2,0,0,1,1.58-.73A2.11,2.11,0,0,1,75,48a3.2,3.2,0,0,1,.62,2.19Zm-1-.87a2.31,2.31,0,0,0-.34-1.44,1.14,1.14,0,0,0-1.77,0,2.23,2.23,0,0,0-.36,1.44Z"/><path class="cls-2" d="M78.15,55.16l.77-2L77.54,49.8A6.75,6.75,0,0,1,77,48l0-.51h1l0,.47a7.44,7.44,0,0,0,.46,1.59l.92,2.5.92-2.47a7.17,7.17,0,0,0,.45-1.62l0-.47h1l0,.51a7.28,7.28,0,0,1-.53,1.83L79.1,55.29a2.08,2.08,0,0,0-.13.65v.22H78v-.22A2.92,2.92,0,0,1,78.15,55.16Z"/><path class="cls-2" d="M21.75,66.41a2.2,2.2,0,0,1-.6,1.55,2.18,2.18,0,0,1-1.68.64A2.61,2.61,0,0,1,17,67.13l.74-.55a1.85,1.85,0,0,0,1.73,1.12,1.36,1.36,0,0,0,.9-.32,1.19,1.19,0,0,0,.38-1,1.66,1.66,0,0,0-.65-1.14l-1.93-1.79a2.53,2.53,0,0,1-.8-1.9,2.08,2.08,0,0,1,2.21-2.16,2.52,2.52,0,0,1,2.17,1.23l-.77.6a1.52,1.52,0,0,0-1.4-.92,1.31,1.31,0,0,0-.87.3,1.18,1.18,0,0,0-.35.94,1.54,1.54,0,0,0,.53,1.16l1.92,1.78A2.58,2.58,0,0,1,21.75,66.41Z"/><path class="cls-2" d="M27.87,67.39a2.41,2.41,0,0,1-2.18,1.21A2.16,2.16,0,0,1,24,67.88a3.41,3.41,0,0,1-.65-2.3v-.82A3.39,3.39,0,0,1,24,62.47a2.13,2.13,0,0,1,1.67-.73A2.4,2.4,0,0,1,27.87,63l-.8.51a1.5,1.5,0,0,0-1.32-.83,1.29,1.29,0,0,0-1,.42,2.69,2.69,0,0,0-.38,1.7v.82a2.69,2.69,0,0,0,.38,1.7,1.29,1.29,0,0,0,1,.42,1.48,1.48,0,0,0,1.32-.83Z"/><path class="cls-2" d="M33.62,65.62A3.36,3.36,0,0,1,33,67.87a2.14,2.14,0,0,1-3.22,0,3.36,3.36,0,0,1-.62-2.25v-.9a3.36,3.36,0,0,1,.62-2.25,2.14,2.14,0,0,1,3.22,0,3.36,3.36,0,0,1,.63,2.25Zm-1,0v-.9a2.79,2.79,0,0,0-.35-1.63,1.08,1.08,0,0,0-.89-.45,1.06,1.06,0,0,0-.89.45,2.79,2.79,0,0,0-.35,1.63v.9a2.79,2.79,0,0,0,.35,1.63,1.06,1.06,0,0,0,.89.45,1.08,1.08,0,0,0,.89-.45A2.79,2.79,0,0,0,32.62,65.62Z"/><path class="cls-2" d="M39.7,65.64a3.47,3.47,0,0,1-.6,2.27,1.74,1.74,0,0,1-1.33.69,1.68,1.68,0,0,1-1.54-.92v2.88h-1v-8.7h1v.78a1.68,1.68,0,0,1,1.54-.9,1.74,1.74,0,0,1,1.33.69,3.47,3.47,0,0,1,.6,2.29Zm-1-.92a2.89,2.89,0,0,0-.32-1.62,1,1,0,0,0-.83-.46c-.65,0-1.08.45-1.29,1.36v2.33c.2.91.63,1.37,1.29,1.37a1,1,0,0,0,.83-.46,2.88,2.88,0,0,0,.32-1.6Z"/><path class="cls-2" d="M45.61,65.37H42.14v.2a2.72,2.72,0,0,0,.37,1.71,1.31,1.31,0,0,0,1,.42,1.46,1.46,0,0,0,1.31-.83l.81.52a2.43,2.43,0,0,1-2.18,1.21,2.14,2.14,0,0,1-1.67-.72,3.39,3.39,0,0,1-.66-2.31v-.8a3.34,3.34,0,0,1,.66-2.3,2,2,0,0,1,1.58-.73,2.11,2.11,0,0,1,1.61.67,3.2,3.2,0,0,1,.62,2.19Zm-1-.87a2.31,2.31,0,0,0-.34-1.44,1.14,1.14,0,0,0-1.77,0,2.23,2.23,0,0,0-.36,1.44Z"/><path class="cls-2" d="M50.53,62.89A1.16,1.16,0,0,1,49.37,64a1.07,1.07,0,0,1-.82-.35,1.14,1.14,0,0,1-.32-.8,1.2,1.2,0,0,1,.32-.81,1.16,1.16,0,0,1,1.65,0A1.13,1.13,0,0,1,50.53,62.89Zm0,4.56a1.13,1.13,0,0,1-.33.81,1.1,1.1,0,0,1-.83.34,1.06,1.06,0,0,1-.82-.34,1.17,1.17,0,0,1-.32-.81,1.18,1.18,0,0,1,.32-.8,1.07,1.07,0,0,1,.82-.35,1.11,1.11,0,0,1,.83.35A1.16,1.16,0,0,1,50.53,67.45Z"/><path class="cls-2" d="M60,68v.5H59V68a20.61,20.61,0,0,1,.76-4.32l1-4.12h1.12l1,4.12A20.82,20.82,0,0,1,63.74,68v.5h-1V68a9.16,9.16,0,0,0-.17-1.59H60.18A10.28,10.28,0,0,0,60,68Zm1.37-6.86-.75,3.1q-.16.7-.3,1.32h2.09c-.09-.41-.18-.85-.3-1.32Z"/><path class="cls-2" d="M69.7,65.64a3.47,3.47,0,0,1-.6,2.27,1.74,1.74,0,0,1-1.33.69,1.68,1.68,0,0,1-1.54-.92v2.88h-1v-8.7h1v.78a1.68,1.68,0,0,1,1.54-.9,1.74,1.74,0,0,1,1.33.69,3.47,3.47,0,0,1,.6,2.29Zm-1-.92a2.89,2.89,0,0,0-.32-1.62,1,1,0,0,0-.83-.46c-.65,0-1.08.45-1.29,1.36v2.33c.2.91.63,1.37,1.29,1.37a1,1,0,0,0,.83-.46,2.88,2.88,0,0,0,.32-1.6Z"/><path class="cls-2" d="M75.7,65.64a3.47,3.47,0,0,1-.6,2.27,1.74,1.74,0,0,1-1.33.69,1.68,1.68,0,0,1-1.54-.92v2.88h-1v-8.7h1v.78a1.68,1.68,0,0,1,1.54-.9,1.74,1.74,0,0,1,1.33.69,3.47,3.47,0,0,1,.6,2.29Zm-1-.92a2.89,2.89,0,0,0-.32-1.62,1,1,0,0,0-.83-.46c-.65,0-1.08.45-1.29,1.36v2.33c.2.91.63,1.37,1.29,1.37a1,1,0,0,0,.83-.46,2.88,2.88,0,0,0,.32-1.6Z"/><path class="cls-2" d="M79.57,68.49V60.75l-1.69,1.32-.45-.76,2.25-1.76h.88v8.94Z"/><path class="cls-2" d="M21.92,81.57A2.52,2.52,0,0,1,19.65,83,2.22,2.22,0,0,1,18,82.35,3.33,3.33,0,0,1,17.34,80V76.87A3.37,3.37,0,0,1,18,74.5a2.2,2.2,0,0,1,1.63-.68,2.35,2.35,0,0,1,2.22,1.46l-.81.49a1.49,1.49,0,0,0-1.41-1,1.22,1.22,0,0,0-.93.41,2.73,2.73,0,0,0-.37,1.73V80a2.73,2.73,0,0,0,.37,1.73,1.19,1.19,0,0,0,.93.41A1.6,1.6,0,0,0,21.11,81Z"/><path class="cls-2" d="M27.62,80A3.36,3.36,0,0,1,27,82.27a2.14,2.14,0,0,1-3.22,0A3.36,3.36,0,0,1,23.15,80v-.9a3.36,3.36,0,0,1,.62-2.25,2.14,2.14,0,0,1,3.22,0,3.36,3.36,0,0,1,.63,2.25Zm-1,0v-.9a2.79,2.79,0,0,0-.35-1.63,1.08,1.08,0,0,0-.89-.45,1.06,1.06,0,0,0-.89.45,2.79,2.79,0,0,0-.35,1.63V80a2.79,2.79,0,0,0,.35,1.63,1.06,1.06,0,0,0,.89.45,1.08,1.08,0,0,0,.89-.45A2.79,2.79,0,0,0,26.62,80Z"/><path class="cls-2" d="M33.8,82.89H33v-5c0-.56-.17-.85-.5-.85s-.53.22-.71.66v5.2H31v-5c0-.56-.14-.85-.39-.85s-.6.22-.81.66v5.2H29V76.26h.82v.65a1.28,1.28,0,0,1,1.1-.77c.4,0,.67.25.82.77a1.21,1.21,0,0,1,1.05-.77c.71,0,1.06.56,1.06,1.7Z"/><path class="cls-2" d="M39.8,82.89H39v-5c0-.56-.17-.85-.5-.85s-.53.22-.71.66v5.2H37v-5c0-.56-.14-.85-.39-.85s-.6.22-.81.66v5.2H35V76.26h.82v.65a1.28,1.28,0,0,1,1.1-.77c.4,0,.67.25.82.77a1.21,1.21,0,0,1,1.05-.77c.71,0,1.06.56,1.06,1.7Z"/><path class="cls-2" d="M45.38,82.89h-1v-.75a1.91,1.91,0,0,1-1.6.86,1.68,1.68,0,0,1-1.32-.55,2,2,0,0,1-.5-1.4,1.92,1.92,0,0,1,.63-1.46A2.59,2.59,0,0,1,43.44,79h1v-.72c0-.83-.4-1.25-1.19-1.25a1.43,1.43,0,0,0-1.32.77l-.75-.56a2.41,2.41,0,0,1,2.07-1.11,2.29,2.29,0,0,1,1.57.54,2,2,0,0,1,.61,1.61Zm-1-1.56V79.81h-1a1.55,1.55,0,0,0-1.08.33,1.2,1.2,0,0,0-.36.91.92.92,0,0,0,1,1A1.59,1.59,0,0,0,44.39,81.33Z"/><path class="cls-2" d="M51.53,82.89h-1v-4.3a2,2,0,0,0-.27-1.2.9.9,0,0,0-.74-.33c-.65,0-1.09.45-1.3,1.34v4.49h-1V76.26h1v.85a1.85,1.85,0,0,1,1.55-1,1.66,1.66,0,0,1,1.25.54,2.71,2.71,0,0,1,.51,1.85Z"/><path class="cls-2" d="M53.06,79.12a3.65,3.65,0,0,1,.57-2.29A1.7,1.7,0,0,1,55,76.14a1.68,1.68,0,0,1,1.54.92V74h1v8.94h-1V82.1A1.68,1.68,0,0,1,55,83a1.7,1.7,0,0,1-1.36-.69A3.59,3.59,0,0,1,53.06,80Zm1,.91a3.1,3.1,0,0,0,.3,1.61.94.94,0,0,0,.85.46c.66,0,1.09-.44,1.3-1.32V78.42c-.21-.92-.64-1.38-1.3-1.38a.94.94,0,0,0-.85.46,3.17,3.17,0,0,0-.3,1.62Z"/><path class="cls-2" d="M62.53,77.29a1.16,1.16,0,0,1-1.16,1.15,1.07,1.07,0,0,1-.82-.35,1.14,1.14,0,0,1-.32-.8,1.16,1.16,0,0,1,.32-.8,1,1,0,0,1,.82-.35,1.07,1.07,0,0,1,.83.35A1.13,1.13,0,0,1,62.53,77.29Zm0,4.57a1.13,1.13,0,0,1-.33.8,1.1,1.1,0,0,1-.83.34,1.06,1.06,0,0,1-.82-.34,1.16,1.16,0,0,1-.32-.8,1.19,1.19,0,0,1,.32-.81,1.14,1.14,0,0,1,1.65,0A1.13,1.13,0,0,1,62.53,81.86Z"/><path class="cls-2" d="M75.62,80.18A3.06,3.06,0,0,1,75,82.32a2.09,2.09,0,0,1-1.6.68,2.05,2.05,0,0,1-1.59-.68,3.11,3.11,0,0,1-.62-2.14V76.65a3.09,3.09,0,0,1,.63-2.15,2.12,2.12,0,0,1,1.64-.68,2.26,2.26,0,0,1,2.08,1.46l-.81.49c-.3-.69-.72-1-1.26-1a1.18,1.18,0,0,0-1,.41,2.49,2.49,0,0,0-.33,1.51v3.53a2.5,2.5,0,0,0,.32,1.51,1,1,0,0,0,.89.41,1.13,1.13,0,0,0,.9-.41,2.43,2.43,0,0,0,.34-1.51V79H73.56v-.85h2.06Z"/><path class="cls-2" d="M81.61,82.89H77.49V74h4.12v.85H78.48v2.9h2.31v.84H78.48V82h3.13Z"/><path class="cls-2" d="M87.72,74.8H85.88v8.09h-1V74.8H83V74h4.68Z"/><path class="cls-3" d="M178.31,0a2,2,0,0,0-2,2v8a2,2,0,0,0,2,2h12a2,2,0,0,0,2-2V2a2,2,0,0,0-2-2h-12m0,2h12v8h-12V2m-2,11a2,2,0,0,0-2,2v3a2,2,0,0,0,2,2h16a2,2,0,0,0,2-2V15a2,2,0,0,0-2-2h-16m4,2h12v3h-12V15m1,.75v1.5h4v-1.5h-4m6,0v1.5h4v-1.5Z"/><path class="cls-3" d="M17.38,2a4,4,0,1,1-4,4,4,4,0,0,1,4-4m0,10c4.42,0,8,1.79,8,4v2h-16V16C9.38,13.79,13,12,17.38,12Z"/><polygon class="cls-2" points="160.59 135.73 133.84 135.73 133.84 53.23 96.29 53.23 96.29 52.23 134.84 52.23 134.84 134.73 160.59 134.73 160.59 135.73"/><path class="cls-3" d="M142.79,102.71v4h-4v-3h-3v-3h-3l-2.26-2.26a5.86,5.86,0,0,1-1.74.26,6,6,0,1,1,6-6,5.86,5.86,0,0,1-.26,1.74l8.26,8.26m-15-13a2,2,0,1,0,2,2A2,2,0,0,0,127.79,89.71Z"/><path class="cls-4" d="M143.29,107.21h-5v-3h-3v-3h-2.71l-2.2-2.2a6.51,6.51,0,1,1,4.71-4.71l8.2,8.2Zm-4-1h3v-3.3L134,94.59l.09-.29a5.33,5.33,0,0,0,.24-1.59,5.5,5.5,0,1,0-5.5,5.5,5.28,5.28,0,0,0,1.59-.24l.29-.09,2.33,2.33h3.29v3h3Zm-11.5-12a2.5,2.5,0,1,1,2.5-2.5A2.51,2.51,0,0,1,127.79,94.21Zm0-4a1.5,1.5,0,1,0,1.5,1.5A1.5,1.5,0,0,0,127.79,90.21Z"/><polygon class="cls-3" points="159.72 135.23 159.72 132.67 161.94 133.95 164.16 135.23 161.94 136.51 159.72 137.79 159.72 135.23"/><rect class="cls-2" x="99.6" y="36.58" width="66.71" height="1"/><polygon class="cls-3" points="103.36 37.08 103.36 39.64 101.14 38.36 98.93 37.08 101.14 35.8 103.36 34.52 103.36 37.08"/><path class="cls-4" d="M134.41,35h3.85l-3.85-3.85V35m-4.9-4.9h5.6l4.2,4.2v8.4a1.4,1.4,0,0,1-1.4,1.4h-8.4a1.4,1.4,0,0,1-1.4-1.4V31.48a1.39,1.39,0,0,1,1.4-1.4m6.3,11.2v-1.4h-6.3v1.4h6.3m2.1-2.8v-1.4h-8.4v1.4Z"/><path class="cls-4" d="M137.91,44.58h-8.4a1.9,1.9,0,0,1-1.9-1.9V31.48a1.9,1.9,0,0,1,1.9-1.9h5.8l4.5,4.49v8.61A1.91,1.91,0,0,1,137.91,44.58Zm-8.4-14a.89.89,0,0,0-.9.9v11.2a.9.9,0,0,0,.9.9h8.4a.9.9,0,0,0,.9-.9v-7.2h-4.9v-4.9Zm5.05,0,4.25,4.24v-.33l-3.91-3.91Zm.35,3.9h2.14l-2.14-2.14Zm1.4,7.3H129v-2.4h7.3Zm-6.3-1h5.3v-.4H130Zm8.4-1.8H129v-2.4h9.4ZM130,38h7.4v-.4H130Z"/><path class="cls-3" d="M134.41,35h3.85l-3.85-3.85V35m-4.9-4.9h5.6l4.2,4.2v8.4a1.4,1.4,0,0,1-1.4,1.4h-8.4a1.4,1.4,0,0,1-1.4-1.4V31.48a1.39,1.39,0,0,1,1.4-1.4m6.3,11.2v-1.4h-6.3v1.4h6.3m2.1-2.8v-1.4h-8.4v1.4Z"/></g></g></svg>